<ttFont>
<head>
    <!-- Most of this table will be recalculated by the compiler -->
    <tableVersion value="1.0"/>
    <fontRevision value="1.016"/>
    <checkSumAdjustment value="0xeb7ee4ce"/>
    <magicNumber value="0x5f0f3cf5"/>
    <flags value="00000000 00001001"/>
    <unitsPerEm value="1000"/>
    <created value="Thu Mar  1 01:50:57 2018"/>
    <modified value="Fri Mar  8 00:28:54 2019"/>
    <xMin value="-275"/>
    <yMin value="-371"/>
    <xMax value="1099"/>
    <yMax value="985"/>
    <macStyle value="00000000 00000000"/>
    <lowestRecPPEM value="8"/>
    <fontDirectionHint value="2"/>
    <indexToLocFormat value="0"/>
    <glyphDataFormat value="0"/>
  </head>
    <TTGlyph name="A" xMin="34" yMin="-52" xMax="734" yMax="746">
      <contour>
        <pt x="690" y="104" on="1"/>
        <pt x="707" y="118" on="0"/>
        <pt x="733" y="113" on="0"/>
        <pt x="733" y="90" on="1"/>
        <pt x="734" y="84" on="0"/>
        <pt x="727" y="70" on="0"/>
        <pt x="719" y="59" on="0"/>
        <pt x="704" y="46" on="0"/>
        <pt x="695" y="40" on="0"/>
        <pt x="677" y="28" on="0"/>
        <pt x="675" y="27" on="1"/>
        <pt x="656" y="14" on="0"/>
        <pt x="637" y="6" on="1"/>
        <pt x="634" y="5" on="0"/>
        <pt x="613" y="-7" on="0"/>
        <pt x="593" y="-18" on="0"/>
        <pt x="564" y="-31" on="0"/>
        <pt x="542" y="-38" on="0"/>
        <pt x="519" y="-41" on="0"/>
        <pt x="514" y="-36" on="1"/>
        <pt x="485" y="-35" on="0"/>
        <pt x="437" y="-7" on="1"/>
        <pt x="373" y="30" on="0"/>
        <pt x="365" y="64" on="1"/>
        <pt x="358" y="88" on="0"/>
        <pt x="349" y="88" on="1"/>
        <pt x="341" y="88" on="0"/>
        <pt x="262" y="23" on="1"/>
        <pt x="196" y="-28" on="0"/>
        <pt x="135" y="-52" on="0"/>
        <pt x="108" y="-36" on="1"/>
        <pt x="80" y="-23" on="0"/>
        <pt x="34" y="36" on="0"/>
        <pt x="34" y="57" on="1"/>
        <pt x="34" y="82" on="0"/>
        <pt x="62" y="184" on="0"/>
        <pt x="69" y="192" on="1"/>
        <pt x="80" y="203" on="0"/>
        <pt x="80" y="228" on="1"/>
        <pt x="80" y="242" on="0"/>
        <pt x="108" y="292" on="0"/>
        <pt x="108" y="307" on="1"/>
        <pt x="108" y="328" on="0"/>
        <pt x="126" y="340" on="0"/>
        <pt x="155" y="400" on="1"/>
        <pt x="183" y="461" on="0"/>
        <pt x="193" y="501" on="1"/>
        <pt x="203" y="534" on="0"/>
        <pt x="240" y="589" on="0"/>
        <pt x="255" y="580" on="0"/>
        <pt x="321" y="633" on="1"/>
        <pt x="373" y="676" on="0"/>
        <pt x="440" y="715" on="0"/>
        <pt x="494" y="732" on="1"/>
        <pt x="542" y="746" on="0"/>
        <pt x="564" y="744" on="0"/>
        <pt x="595" y="718" on="1"/>
        <pt x="616" y="701" on="0"/>
        <pt x="629" y="678" on="0"/>
        <pt x="629" y="654" on="1"/>
        <pt x="629" y="616" on="0"/>
        <pt x="592" y="528" on="1"/>
        <pt x="583" y="509" on="0"/>
        <pt x="563" y="451" on="1"/>
        <pt x="544" y="393" on="0"/>
        <pt x="526" y="362" on="1"/>
        <pt x="510" y="336" on="0"/>
        <pt x="504" y="296" on="1"/>
        <pt x="498" y="261" on="0"/>
        <pt x="489" y="241" on="1"/>
        <pt x="486" y="236" on="0"/>
        <pt x="461" y="166" on="1"/>
        <pt x="447" y="126" on="0"/>
        <pt x="445" y="100" on="0"/>
        <pt x="456" y="80" on="1"/>
        <pt x="472" y="51" on="0"/>
        <pt x="492" y="51" on="1"/>
        <pt x="515" y="48" on="0"/>
        <pt x="538" y="28" on="1"/>
        <pt x="538" y="28" on="0"/>
        <pt x="543" y="24" on="1"/>
        <pt x="551" y="28" on="0"/>
        <pt x="588" y="41" on="0"/>
        <pt x="595" y="44" on="1"/>
        <pt x="655" y="76" on="0"/>
      </contour>
      <contour>
        <pt x="405" y="334" on="1"/>
        <pt x="431" y="375" on="0"/>
        <pt x="444" y="415" on="1"/>
        <pt x="463" y="472" on="0"/>
        <pt x="476" y="492" on="1"/>
        <pt x="489" y="510" on="0"/>
        <pt x="489" y="531" on="1"/>
        <pt x="489" y="551" on="0"/>
        <pt x="498" y="557" on="1"/>
        <pt x="505" y="561" on="0"/>
        <pt x="547" y="637" on="0"/>
        <pt x="529" y="653" on="0"/>
        <pt x="459" y="635" on="0"/>
        <pt x="432" y="620" on="1"/>
        <pt x="407" y="604" on="0"/>
        <pt x="340" y="528" on="0"/>
        <pt x="340" y="517" on="1"/>
        <pt x="340" y="507" on="0"/>
        <pt x="257" y="410" on="0"/>
        <pt x="257" y="386" on="0"/>
        <pt x="225" y="341" on="1"/>
        <pt x="192" y="292" on="0"/>
        <pt x="183" y="254" on="1"/>
        <pt x="170" y="209" on="0"/>
        <pt x="163" y="197" on="1"/>
        <pt x="155" y="180" on="0"/>
        <pt x="155" y="168" on="1"/>
        <pt x="155" y="155" on="0"/>
        <pt x="139" y="126" on="1"/>
        <pt x="126" y="100" on="0"/>
        <pt x="137" y="79" on="0"/>
        <pt x="164" y="79" on="1"/>
        <pt x="182" y="79" on="0"/>
        <pt x="252" y="125" on="0"/>
        <pt x="267" y="148" on="1"/>
        <pt x="270" y="150" on="0"/>
        <pt x="281" y="164" on="0"/>
        <pt x="296" y="185" on="0"/>
        <pt x="303" y="195" on="1"/>
        <pt x="378" y="292" on="0"/>
      </contour>
    </TTGlyph>
    <TTGlyph name="B" xMin="34" yMin="-39" xMax="761" yMax="786">
      <contour>
        <pt x="313" y="720" on="1"/>
        <pt x="338" y="739" on="0"/>
        <pt x="374" y="761" on="1"/>
        <pt x="409" y="786" on="0"/>
        <pt x="453" y="786" on="0"/>
        <pt x="478" y="754" on="0"/>
        <pt x="470" y="734" on="1"/>
        <pt x="463" y="706" on="0"/>
        <pt x="488" y="707" on="1"/>
        <pt x="504" y="709" on="0"/>
        <pt x="533" y="723" on="1"/>
        <pt x="568" y="742" on="0"/>
        <pt x="656" y="745" on="0"/>
        <pt x="686" y="731" on="1"/>
        <pt x="715" y="715" on="0"/>
        <pt x="739" y="678" on="1"/>
        <pt x="756" y="653" on="0"/>
        <pt x="761" y="625" on="0"/>
        <pt x="752" y="588" on="1"/>
        <pt x="730" y="480" on="0"/>
        <pt x="615" y="376" on="1"/>
        <pt x="556" y="326" on="1"/>
        <pt x="578" y="288" on="1"/>
        <pt x="599" y="253" on="0"/>
        <pt x="606" y="202" on="1"/>
        <pt x="610" y="182" on="0"/>
        <pt x="606" y="150" on="0"/>
        <pt x="596" y="126" on="0"/>
        <pt x="581" y="104" on="1"/>
        <pt x="539" y="43" on="0"/>
        <pt x="397" y="-37" on="0"/>
        <pt x="330" y="-39" on="1"/>
        <pt x="298" y="-39" on="0"/>
        <pt x="257" y="-25" on="0"/>
        <pt x="224" y="-1" on="1"/>
        <pt x="167" y="39" on="1"/>
        <pt x="136" y="10" on="1"/>
        <pt x="114" y="-12" on="0"/>
        <pt x="101" y="-14" on="0"/>
        <pt x="85" y="1" on="1"/>
        <pt x="70" y="12" on="0"/>
        <pt x="67" y="25" on="1"/>
        <pt x="65" y="37" on="0"/>
        <pt x="69" y="68" on="1"/>
        <pt x="73" y="100" on="0"/>
        <pt x="69" y="120" on="0"/>
        <pt x="54" y="128" on="1"/>
        <pt x="34" y="139" on="0"/>
        <pt x="34" y="150" on="1"/>
        <pt x="34" y="169" on="0"/>
        <pt x="78" y="199" on="0"/>
        <pt x="102" y="199" on="1"/>
        <pt x="114" y="199" on="0"/>
        <pt x="121" y="201" on="1"/>
        <pt x="129" y="202" on="0"/>
        <pt x="143" y="214" on="0"/>
        <pt x="150" y="223" on="1"/>
        <pt x="158" y="234" on="0"/>
        <pt x="168" y="248" on="1"/>
        <pt x="176" y="260" on="0"/>
        <pt x="188" y="292" on="0"/>
        <pt x="194" y="319" on="0"/>
        <pt x="204" y="352" on="0"/>
        <pt x="209" y="365" on="1"/>
        <pt x="214" y="374" on="0"/>
        <pt x="226" y="396" on="0"/>
        <pt x="240" y="418" on="0"/>
        <pt x="244" y="427" on="1"/>
        <pt x="254" y="446" on="0"/>
        <pt x="255" y="487" on="0"/>
        <pt x="250" y="533" on="0"/>
        <pt x="253" y="549" on="1"/>
        <pt x="254" y="559" on="0"/>
        <pt x="283" y="638" on="0"/>
        <pt x="287" y="639" on="1"/>
        <pt x="234" y="625" on="0"/>
        <pt x="207" y="632" on="1"/>
        <pt x="168" y="645" on="0"/>
        <pt x="173" y="693" on="0"/>
        <pt x="205" y="706" on="1"/>
        <pt x="219" y="712" on="0"/>
        <pt x="298" y="709" on="0"/>
      </contour>
      <contour>
        <pt x="507" y="199" on="1"/>
        <pt x="507" y="250" on="0"/>
        <pt x="487" y="267" on="1"/>
        <pt x="475" y="278" on="0"/>
        <pt x="435" y="280" on="0"/>
        <pt x="379" y="274" on="0"/>
        <pt x="362" y="275" on="1"/>
        <pt x="314" y="280" on="0"/>
        <pt x="299" y="272" on="1"/>
        <pt x="277" y="260" on="0"/>
        <pt x="254" y="95" on="0"/>
        <pt x="273" y="77" on="1"/>
        <pt x="285" y="64" on="0"/>
        <pt x="321" y="56" on="0"/>
        <pt x="358" y="61" on="0"/>
        <pt x="397" y="75" on="0"/>
        <pt x="427" y="92" on="0"/>
        <pt x="440" y="102" on="1"/>
        <pt x="507" y="151" on="0"/>
      </contour>
      <contour>
        <pt x="609" y="618" on="1"/>
        <pt x="588" y="643" on="0"/>
        <pt x="559" y="647" on="1"/>
        <pt x="515" y="654" on="0"/>
        <pt x="408" y="578" on="0"/>
        <pt x="340" y="472" on="0"/>
        <pt x="343" y="435" on="1"/>
        <pt x="349" y="372" on="0"/>
        <pt x="425" y="383" on="1"/>
        <pt x="497" y="394" on="0"/>
        <pt x="567" y="451" on="1"/>
        <pt x="624" y="498" on="0"/>
        <pt x="628" y="539" on="1"/>
        <pt x="634" y="589" on="0"/>
      </contour>
    </TTGlyph>
    <TTGlyph name="C" xMin="63" yMin="-69" xMax="681" yMax="753">
      <contour>
        <pt x="391" y="698" on="1"/>
        <pt x="426" y="722" on="0"/>
        <pt x="441" y="722" on="1"/>
        <pt x="449" y="722" on="0"/>
        <pt x="490" y="740" on="0"/>
        <pt x="529" y="753" on="0"/>
        <pt x="540" y="751" on="1"/>
        <pt x="560" y="746" on="0"/>
        <pt x="595" y="742" on="1"/>
        <pt x="648" y="734" on="0"/>
        <pt x="681" y="636" on="0"/>
        <pt x="651" y="575" on="1"/>
        <pt x="643" y="558" on="0"/>
        <pt x="629" y="525" on="1"/>
        <pt x="619" y="499" on="0"/>
        <pt x="537" y="445" on="0"/>
        <pt x="513" y="449" on="1"/>
        <pt x="496" y="453" on="0"/>
        <pt x="454" y="490" on="0"/>
        <pt x="424" y="537" on="0"/>
        <pt x="424" y="553" on="1"/>
        <pt x="424" y="581" on="0"/>
        <pt x="416" y="586" on="1"/>
        <pt x="409" y="590" on="0"/>
        <pt x="381" y="562" on="1"/>
        <pt x="353" y="535" on="0"/>
        <pt x="319" y="494" on="1"/>
        <pt x="287" y="454" on="0"/>
        <pt x="269" y="424" on="1"/>
        <pt x="104" y="133" on="0"/>
        <pt x="169" y="79" on="1"/>
        <pt x="182" y="70" on="0"/>
        <pt x="182" y="58" on="1"/>
        <pt x="182" y="45" on="0"/>
        <pt x="227" y="7" on="0"/>
        <pt x="249" y="3" on="1"/>
        <pt x="275" y="-4" on="0"/>
        <pt x="311" y="7" on="1"/>
        <pt x="331" y="12" on="0"/>
        <pt x="389" y="48" on="0"/>
        <pt x="433" y="86" on="0"/>
        <pt x="433" y="94" on="1"/>
        <pt x="433" y="117" on="0"/>
        <pt x="501" y="131" on="0"/>
        <pt x="520" y="110" on="1"/>
        <pt x="544" y="83" on="0"/>
        <pt x="476" y="-7" on="0"/>
        <pt x="405" y="-42" on="1"/>
        <pt x="373" y="-58" on="0"/>
        <pt x="327" y="-69" on="0"/>
        <pt x="285" y="-69" on="1"/>
        <pt x="239" y="-69" on="0"/>
        <pt x="220" y="-64" on="1"/>
        <pt x="202" y="-59" on="0"/>
        <pt x="173" y="-41" on="1"/>
        <pt x="125" y="-9" on="0"/>
        <pt x="98" y="37" on="1"/>
        <pt x="75" y="71" on="0"/>
        <pt x="66" y="110" on="0"/>
        <pt x="65" y="169" on="1"/>
        <pt x="63" y="220" on="0"/>
        <pt x="69" y="257" on="0"/>
        <pt x="96" y="302" on="0"/>
        <pt x="104" y="322" on="1"/>
        <pt x="121" y="364" on="0"/>
        <pt x="145" y="401" on="1"/>
        <pt x="210" y="496" on="0"/>
        <pt x="210" y="520" on="1"/>
        <pt x="210" y="531" on="0"/>
        <pt x="354" y="673" on="0"/>
      </contour>
      <contour>
        <pt x="560" y="596" on="0"/>
        <pt x="573" y="619" on="0"/>
        <pt x="573" y="623" on="1"/>
        <pt x="573" y="640" on="0"/>
        <pt x="549" y="622" on="1"/>
        <pt x="537" y="611" on="0"/>
        <pt x="529" y="596" on="1"/>
        <pt x="501" y="554" on="0"/>
        <pt x="527" y="554" on="1"/>
        <pt x="529" y="554" on="0"/>
        <pt x="545" y="573" on="0"/>
      </contour>
    </TTGlyph>
    <TTGlyph name="D" xMin="42" yMin="-40" xMax="832" yMax="821">
      <contour>
        <pt x="278" y="652" on="0"/>
        <pt x="307" y="689" on="0"/>
        <pt x="352" y="727" on="1"/>
        <pt x="359" y="733" on="0"/>
        <pt x="382" y="754" on="0"/>
        <pt x="398" y="768" on="0"/>
        <pt x="420" y="784" on="0"/>
        <pt x="431" y="789" on="1"/>
        <pt x="500" y="821" on="0"/>
        <pt x="615" y="800" on="1"/>
        <pt x="700" y="785" on="0"/>
        <pt x="731" y="724" on="1"/>
        <pt x="752" y="684" on="0"/>
        <pt x="782" y="645" on="1"/>
        <pt x="815" y="606" on="0"/>
        <pt x="832" y="524" on="0"/>
        <pt x="822" y="458" on="1"/>
        <pt x="810" y="388" on="0"/>
        <pt x="794" y="369" on="0"/>
        <pt x="794" y="346" on="1"/>
        <pt x="794" y="326" on="0"/>
        <pt x="784" y="307" on="1"/>
        <pt x="774" y="288" on="0"/>
        <pt x="737" y="234" on="1"/>
        <pt x="679" y="149" on="0"/>
        <pt x="572" y="69" on="0"/>
        <pt x="484" y="42" on="1"/>
        <pt x="426" y="25" on="0"/>
        <pt x="417" y="17" on="1"/>
        <pt x="403" y="9" on="0"/>
        <pt x="359" y="24" on="1"/>
        <pt x="312" y="40" on="0"/>
        <pt x="310" y="40" on="1"/>
        <pt x="305" y="40" on="0"/>
        <pt x="272" y="8" on="1"/>
        <pt x="244" y="-17" on="0"/>
        <pt x="187" y="-37" on="0"/>
        <pt x="136" y="-38" on="1"/>
        <pt x="105" y="-40" on="0"/>
        <pt x="88" y="-28" on="0"/>
        <pt x="68" y="11" on="1"/>
        <pt x="42" y="63" on="0"/>
        <pt x="42" y="82" on="1"/>
        <pt x="42" y="106" on="0"/>
        <pt x="87" y="182" on="0"/>
        <pt x="105" y="189" on="1"/>
        <pt x="130" y="198" on="0"/>
        <pt x="208" y="195" on="0"/>
        <pt x="224" y="183" on="1"/>
        <pt x="261" y="156" on="0"/>
        <pt x="270" y="186" on="1"/>
        <pt x="271" y="190" on="0"/>
        <pt x="281" y="211" on="0"/>
        <pt x="294" y="247" on="0"/>
        <pt x="298" y="260" on="1"/>
        <pt x="327" y="331" on="0"/>
        <pt x="328" y="377" on="0"/>
        <pt x="303" y="409" on="1"/>
        <pt x="276" y="443" on="0"/>
        <pt x="260" y="500" on="1"/>
        <pt x="250" y="538" on="0"/>
        <pt x="252" y="571" on="0"/>
        <pt x="266" y="614" on="1"/>
      </contour>
      <contour>
        <pt x="215" y="78" on="0"/>
        <pt x="212" y="91" on="0"/>
        <pt x="195" y="108" on="1"/>
        <pt x="171" y="132" on="0"/>
        <pt x="163" y="132" on="1"/>
        <pt x="153" y="132" on="0"/>
        <pt x="126" y="81" on="0"/>
        <pt x="130" y="67" on="1"/>
        <pt x="136" y="49" on="0"/>
        <pt x="187" y="48" on="0"/>
        <pt x="204" y="66" on="1"/>
      </contour>
      <contour>
        <pt x="691" y="632" on="1"/>
        <pt x="657" y="681" on="0"/>
        <pt x="650" y="703" on="1"/>
        <pt x="647" y="713" on="0"/>
        <pt x="634" y="732" on="0"/>
        <pt x="616" y="744" on="0"/>
        <pt x="607" y="744" on="1"/>
        <pt x="604" y="743" on="0"/>
        <pt x="546" y="736" on="1"/>
        <pt x="509" y="732" on="0"/>
        <pt x="472" y="715" on="0"/>
        <pt x="438" y="685" on="1"/>
        <pt x="390" y="644" on="0"/>
        <pt x="351" y="591" on="0"/>
        <pt x="344" y="560" on="1"/>
        <pt x="339" y="534" on="0"/>
        <pt x="355" y="476" on="0"/>
        <pt x="367" y="476" on="1"/>
        <pt x="374" y="476" on="0"/>
        <pt x="392" y="505" on="0"/>
        <pt x="406" y="552" on="0"/>
        <pt x="407" y="575" on="1"/>
        <pt x="409" y="585" on="0"/>
        <pt x="410" y="607" on="0"/>
        <pt x="410" y="615" on="0"/>
        <pt x="413" y="628" on="0"/>
        <pt x="415" y="632" on="0"/>
        <pt x="425" y="640" on="0"/>
        <pt x="433" y="645" on="0"/>
        <pt x="442" y="652" on="1"/>
        <pt x="467" y="665" on="0"/>
        <pt x="512" y="664" on="0"/>
        <pt x="535" y="635" on="0"/>
        <pt x="525" y="615" on="1"/>
        <pt x="512" y="588" on="0"/>
        <pt x="502" y="545" on="1"/>
        <pt x="487" y="491" on="0"/>
        <pt x="459" y="438" on="1"/>
        <pt x="438" y="396" on="0"/>
        <pt x="434" y="376" on="0"/>
        <pt x="447" y="367" on="1"/>
        <pt x="466" y="355" on="0"/>
        <pt x="526" y="360" on="1"/>
        <pt x="574" y="365" on="0"/>
        <pt x="628" y="350" on="0"/>
        <pt x="628" y="331" on="1"/>
        <pt x="628" y="311" on="0"/>
        <pt x="569" y="298" on="0"/>
        <pt x="501" y="302" on="1"/>
        <pt x="479" y="303" on="0"/>
        <pt x="468" y="304" on="1"/>
        <pt x="458" y="305" on="0"/>
        <pt x="444" y="304" on="1"/>
        <pt x="430" y="303" on="0"/>
        <pt x="426" y="303" on="1"/>
        <pt x="421" y="302" on="0"/>
        <pt x="405" y="294" on="0"/>
        <pt x="401" y="288" on="0"/>
        <pt x="393" y="269" on="0"/>
        <pt x="391" y="262" on="1"/>
        <pt x="389" y="255" on="0"/>
        <pt x="386" y="239" on="1"/>
        <pt x="374" y="191" on="0"/>
        <pt x="356" y="161" on="1"/>
        <pt x="339" y="131" on="0"/>
        <pt x="345" y="112" on="1"/>
        <pt x="348" y="100" on="0"/>
        <pt x="363" y="95" on="0"/>
        <pt x="385" y="99" on="1"/>
        <pt x="422" y="104" on="0"/>
        <pt x="443" y="104" on="1"/>
        <pt x="470" y="104" on="0"/>
        <pt x="496" y="131" on="1"/>
        <pt x="521" y="156" on="0"/>
        <pt x="551" y="169" on="1"/>
        <pt x="580" y="182" on="0"/>
        <pt x="580" y="194" on="0"/>
        <pt x="629" y="249" on="1"/>
        <pt x="671" y="298" on="0"/>
        <pt x="710" y="377" on="0"/>
        <pt x="724" y="451" on="1"/>
        <pt x="739" y="519" on="0"/>
        <pt x="727" y="587" on="0"/>
      </contour>
    </TTGlyph>
    <TTGlyph name="E" xMin="34" yMin="-48" xMax="583" yMax="836">
      <contour>
        <pt x="562" y="692" on="0"/>
        <pt x="583" y="658" on="0"/>
        <pt x="583" y="630" on="0"/>
        <pt x="561" y="597" on="0"/>
        <pt x="529" y="578" on="0"/>
        <pt x="513" y="578" on="1"/>
        <pt x="469" y="578" on="0"/>
        <pt x="383" y="638" on="1"/>
        <pt x="336" y="674" on="0"/>
        <pt x="265" y="613" on="1"/>
        <pt x="233" y="588" on="0"/>
        <pt x="224" y="588" on="1"/>
        <pt x="219" y="588" on="0"/>
        <pt x="202" y="559" on="0"/>
        <pt x="196" y="539" on="1"/>
        <pt x="190" y="519" on="0"/>
        <pt x="185" y="478" on="0"/>
        <pt x="188" y="448" on="0"/>
        <pt x="195" y="447" on="1"/>
        <pt x="196" y="447" on="0"/>
        <pt x="204" y="446" on="1"/>
        <pt x="211" y="445" on="0"/>
        <pt x="226" y="445" on="1"/>
        <pt x="241" y="444" on="0"/>
        <pt x="252" y="444" on="1"/>
        <pt x="275" y="443" on="0"/>
        <pt x="300" y="438" on="0"/>
        <pt x="317" y="426" on="0"/>
        <pt x="327" y="413" on="1"/>
        <pt x="348" y="388" on="0"/>
        <pt x="364" y="351" on="1"/>
        <pt x="369" y="337" on="0"/>
        <pt x="369" y="314" on="0"/>
        <pt x="362" y="301" on="0"/>
        <pt x="342" y="287" on="0"/>
        <pt x="329" y="281" on="0"/>
        <pt x="301" y="270" on="0"/>
        <pt x="296" y="268" on="1"/>
        <pt x="281" y="262" on="0"/>
        <pt x="232" y="245" on="0"/>
        <pt x="210" y="234" on="0"/>
        <pt x="174" y="206" on="0"/>
        <pt x="157" y="184" on="1"/>
        <pt x="130" y="151" on="0"/>
        <pt x="133" y="129" on="1"/>
        <pt x="139" y="89" on="0"/>
        <pt x="209" y="58" on="0"/>
        <pt x="304" y="71" on="0"/>
        <pt x="406" y="103" on="0"/>
        <pt x="485" y="141" on="0"/>
        <pt x="501" y="154" on="1"/>
        <pt x="520" y="169" on="0"/>
        <pt x="547" y="164" on="0"/>
        <pt x="547" y="140" on="1"/>
        <pt x="548" y="131" on="0"/>
        <pt x="532" y="105" on="0"/>
        <pt x="516" y="87" on="0"/>
        <pt x="488" y="59" on="0"/>
        <pt x="486" y="56" on="1"/>
        <pt x="432" y="-3" on="0"/>
        <pt x="289" y="-26" on="1"/>
        <pt x="159" y="-48" on="0"/>
        <pt x="81" y="7" on="1"/>
        <pt x="58" y="23" on="0"/>
        <pt x="35" y="60" on="0"/>
        <pt x="34" y="106" on="0"/>
        <pt x="40" y="140" on="0"/>
        <pt x="48" y="169" on="1"/>
        <pt x="55" y="194" on="0"/>
        <pt x="97" y="270" on="1"/>
        <pt x="142" y="344" on="0"/>
        <pt x="156" y="336" on="1"/>
        <pt x="117" y="387" on="0"/>
        <pt x="75" y="477" on="0"/>
        <pt x="80" y="525" on="1"/>
        <pt x="86" y="572" on="0"/>
        <pt x="130" y="647" on="0"/>
        <pt x="171" y="681" on="1"/>
        <pt x="200" y="704" on="0"/>
        <pt x="266" y="731" on="0"/>
        <pt x="335" y="745" on="1"/>
        <pt x="357" y="750" on="0"/>
        <pt x="368" y="759" on="0"/>
        <pt x="366" y="775" on="1"/>
        <pt x="365" y="782" on="0"/>
        <pt x="369" y="796" on="0"/>
        <pt x="378" y="809" on="0"/>
        <pt x="390" y="821" on="0"/>
        <pt x="404" y="830" on="0"/>
        <pt x="419" y="836" on="0"/>
        <pt x="426" y="836" on="1"/>
        <pt x="440" y="836" on="0"/>
        <pt x="513" y="806" on="0"/>
        <pt x="513" y="799" on="1"/>
        <pt x="513" y="793" on="0"/>
        <pt x="493" y="769" on="1"/>
        <pt x="476" y="747" on="0"/>
        <pt x="483" y="728" on="0"/>
        <pt x="513" y="721" on="1"/>
        <pt x="530" y="717" on="0"/>
      </contour>
    </TTGlyph>
    <TTGlyph name="F" xMin="33" yMin="-49" xMax="986" yMax="811">
      <contour>
        <pt x="264" y="735" on="0"/>
        <pt x="328" y="793" on="0"/>
        <pt x="350" y="800" on="1"/>
        <pt x="394" y="811" on="0"/>
        <pt x="492" y="769" on="0"/>
        <pt x="501" y="735" on="1"/>
        <pt x="504" y="721" on="0"/>
        <pt x="512" y="704" on="1"/>
        <pt x="520" y="689" on="0"/>
        <pt x="525" y="674" on="1"/>
        <pt x="526" y="664" on="0"/>
        <pt x="536" y="649" on="0"/>
        <pt x="539" y="649" on="1"/>
        <pt x="550" y="649" on="0"/>
        <pt x="588" y="609" on="1"/>
        <pt x="604" y="593" on="0"/>
        <pt x="623" y="578" on="0"/>
        <pt x="651" y="567" on="0"/>
        <pt x="667" y="568" on="1"/>
        <pt x="681" y="568" on="0"/>
        <pt x="712" y="570" on="1"/>
        <pt x="736" y="571" on="0"/>
        <pt x="827" y="597" on="0"/>
        <pt x="838" y="606" on="1"/>
        <pt x="848" y="613" on="0"/>
        <pt x="906" y="645" on="1"/>
        <pt x="967" y="676" on="0"/>
        <pt x="977" y="666" on="1"/>
        <pt x="986" y="657" on="0"/>
        <pt x="962" y="613" on="0"/>
        <pt x="942" y="602" on="1"/>
        <pt x="940" y="601" on="0"/>
        <pt x="909" y="580" on="1"/>
        <pt x="797" y="507" on="0"/>
        <pt x="724" y="507" on="1"/>
        <pt x="706" y="505" on="0"/>
        <pt x="690" y="505" on="0"/>
        <pt x="670" y="494" on="0"/>
        <pt x="663" y="485" on="0"/>
        <pt x="649" y="449" on="0"/>
        <pt x="646" y="432" on="1"/>
        <pt x="642" y="415" on="0"/>
        <pt x="633" y="379" on="1"/>
        <pt x="614" y="295" on="0"/>
        <pt x="604" y="282" on="1"/>
        <pt x="593" y="261" on="0"/>
        <pt x="605" y="260" on="1"/>
        <pt x="611" y="260" on="0"/>
        <pt x="623" y="266" on="0"/>
        <pt x="635" y="275" on="0"/>
        <pt x="640" y="276" on="1"/>
        <pt x="655" y="281" on="0"/>
        <pt x="679" y="277" on="1"/>
        <pt x="718" y="270" on="0"/>
        <pt x="741" y="240" on="1"/>
        <pt x="746" y="234" on="0"/>
        <pt x="746" y="229" on="1"/>
        <pt x="746" y="220" on="0"/>
        <pt x="732" y="213" on="1"/>
        <pt x="711" y="201" on="0"/>
        <pt x="700" y="200" on="1"/>
        <pt x="689" y="198" on="0"/>
        <pt x="676" y="205" on="0"/>
        <pt x="672" y="215" on="0"/>
        <pt x="664" y="226" on="0"/>
        <pt x="658" y="227" on="1"/>
        <pt x="654" y="229" on="0"/>
        <pt x="644" y="220" on="1"/>
        <pt x="633" y="210" on="0"/>
        <pt x="598" y="195" on="1"/>
        <pt x="577" y="187" on="0"/>
        <pt x="543" y="154" on="0"/>
        <pt x="517" y="109" on="0"/>
        <pt x="498" y="68" on="0"/>
        <pt x="476" y="15" on="0"/>
        <pt x="468" y="0" on="1"/>
        <pt x="460" y="-14" on="0"/>
        <pt x="438" y="-34" on="0"/>
        <pt x="418" y="-44" on="0"/>
        <pt x="383" y="-49" on="0"/>
        <pt x="364" y="-49" on="0"/>
        <pt x="322" y="-49" on="0"/>
        <pt x="314" y="-49" on="1"/>
        <pt x="261" y="-49" on="0"/>
        <pt x="238" y="-43" on="1"/>
        <pt x="223" y="-40" on="0"/>
        <pt x="190" y="-21" on="0"/>
        <pt x="160" y="1" on="0"/>
        <pt x="134" y="30" on="0"/>
        <pt x="114" y="58" on="0"/>
        <pt x="103" y="86" on="0"/>
        <pt x="103" y="98" on="1"/>
        <pt x="103" y="112" on="0"/>
        <pt x="96" y="124" on="1"/>
        <pt x="87" y="131" on="0"/>
        <pt x="77" y="170" on="1"/>
        <pt x="64" y="211" on="0"/>
        <pt x="49" y="230" on="1"/>
        <pt x="33" y="252" on="0"/>
        <pt x="35" y="273" on="0"/>
        <pt x="56" y="278" on="1"/>
        <pt x="88" y="287" on="0"/>
        <pt x="120" y="247" on="1"/>
        <pt x="137" y="229" on="0"/>
        <pt x="174" y="224" on="1"/>
        <pt x="211" y="219" on="0"/>
        <pt x="324" y="220" on="1"/>
        <pt x="481" y="221" on="1"/>
        <pt x="501" y="245" on="1"/>
        <pt x="521" y="266" on="0"/>
        <pt x="521" y="279" on="1"/>
        <pt x="521" y="292" on="0"/>
        <pt x="528" y="308" on="1"/>
        <pt x="538" y="326" on="0"/>
        <pt x="563" y="450" on="0"/>
        <pt x="559" y="461" on="1"/>
        <pt x="553" y="476" on="0"/>
        <pt x="568" y="502" on="1"/>
        <pt x="581" y="530" on="0"/>
        <pt x="581" y="531" on="1"/>
        <pt x="581" y="534" on="0"/>
        <pt x="547" y="557" on="1"/>
        <pt x="512" y="582" on="0"/>
        <pt x="496" y="607" on="1"/>
        <pt x="481" y="631" on="0"/>
        <pt x="474" y="631" on="1"/>
        <pt x="465" y="631" on="0"/>
        <pt x="421" y="592" on="1"/>
        <pt x="344" y="528" on="0"/>
        <pt x="311" y="567" on="1"/>
        <pt x="298" y="582" on="0"/>
        <pt x="269" y="597" on="1"/>
        <pt x="237" y="613" on="0"/>
        <pt x="225" y="635" on="1"/>
        <pt x="217" y="650" on="0"/>
        <pt x="222" y="670" on="0"/>
        <pt x="242" y="701" on="1"/>
      </contour>
      <contour>
        <pt x="389" y="51" on="1"/>
        <pt x="410" y="64" on="0"/>
        <pt x="438" y="121" on="1"/>
        <pt x="466" y="179" on="0"/>
        <pt x="460" y="183" on="1"/>
        <pt x="455" y="185" on="0"/>
        <pt x="431" y="173" on="1"/>
        <pt x="407" y="161" on="0"/>
        <pt x="382" y="166" on="1"/>
        <pt x="366" y="169" on="0"/>
        <pt x="310" y="171" on="1"/>
        <pt x="253" y="173" on="0"/>
        <pt x="204" y="173" on="1"/>
        <pt x="155" y="173" on="0"/>
        <pt x="155" y="169" on="1"/>
        <pt x="155" y="162" on="0"/>
        <pt x="208" y="36" on="0"/>
        <pt x="213" y="30" on="1"/>
        <pt x="225" y="17" on="0"/>
        <pt x="366" y="33" on="0"/>
      </contour>
      <contour>
        <pt x="426" y="698" on="0"/>
        <pt x="431" y="707" on="0"/>
        <pt x="420" y="719" on="1"/>
        <pt x="402" y="739" on="0"/>
        <pt x="344" y="727" on="0"/>
        <pt x="307" y="672" on="0"/>
        <pt x="324" y="650" on="0"/>
        <pt x="354" y="665" on="1"/>
        <pt x="370" y="675" on="0"/>
        <pt x="401" y="688" on="1"/>
      </contour>
    </TTGlyph>
    <TTGlyph name="G" xMin="30" yMin="-65" xMax="944" yMax="779">
      <contour>
        <pt x="899" y="145" on="1"/>
        <pt x="917" y="160" on="0"/>
        <pt x="944" y="154" on="0"/>
        <pt x="944" y="131" on="1"/>
        <pt x="944" y="125" on="0"/>
        <pt x="940" y="113" on="0"/>
        <pt x="931" y="102" on="0"/>
        <pt x="923" y="92" on="0"/>
        <pt x="909" y="82" on="0"/>
        <pt x="900" y="76" on="0"/>
        <pt x="886" y="66" on="0"/>
        <pt x="883" y="65" on="1"/>
        <pt x="806" y="11" on="0"/>
        <pt x="758" y="2" on="1"/>
        <pt x="733" y="-5" on="0"/>
        <pt x="615" y="8" on="0"/>
        <pt x="564" y="2" on="0"/>
        <pt x="553" y="-9" on="1"/>
        <pt x="534" y="-25" on="0"/>
        <pt x="481" y="-25" on="0"/>
        <pt x="457" y="-41" on="1"/>
        <pt x="435" y="-57" on="0"/>
        <pt x="366" y="-63" on="1"/>
        <pt x="318" y="-65" on="0"/>
        <pt x="280" y="-56" on="0"/>
        <pt x="231" y="-27" on="1"/>
        <pt x="215" y="-18" on="0"/>
        <pt x="150" y="6" on="0"/>
        <pt x="101" y="27" on="0"/>
        <pt x="52" y="58" on="0"/>
        <pt x="30" y="106" on="0"/>
        <pt x="36" y="137" on="1"/>
        <pt x="41" y="169" on="0"/>
        <pt x="66" y="206" on="1"/>
        <pt x="80" y="228" on="0"/>
        <pt x="108" y="248" on="0"/>
        <pt x="132" y="248" on="0"/>
        <pt x="160" y="241" on="0"/>
        <pt x="187" y="231" on="0"/>
        <pt x="220" y="231" on="0"/>
        <pt x="238" y="237" on="1"/>
        <pt x="262" y="247" on="0"/>
        <pt x="307" y="321" on="0"/>
        <pt x="314" y="350" on="1"/>
        <pt x="317" y="365" on="0"/>
        <pt x="318" y="388" on="0"/>
        <pt x="314" y="404" on="0"/>
        <pt x="306" y="417" on="0"/>
        <pt x="296" y="427" on="0"/>
        <pt x="284" y="440" on="0"/>
        <pt x="273" y="453" on="0"/>
        <pt x="261" y="473" on="0"/>
        <pt x="256" y="485" on="1"/>
        <pt x="252" y="498" on="0"/>
        <pt x="253" y="522" on="1"/>
        <pt x="254" y="554" on="0"/>
        <pt x="275" y="636" on="0"/>
        <pt x="314" y="720" on="0"/>
        <pt x="369" y="772" on="0"/>
        <pt x="439" y="779" on="0"/>
        <pt x="481" y="744" on="1"/>
        <pt x="506" y="723" on="0"/>
        <pt x="514" y="668" on="0"/>
        <pt x="501" y="601" on="1"/>
        <pt x="490" y="543" on="0"/>
        <pt x="512" y="525" on="0"/>
        <pt x="563" y="550" on="1"/>
        <pt x="616" y="575" on="0"/>
        <pt x="624" y="575" on="1"/>
        <pt x="642" y="575" on="0"/>
        <pt x="724" y="676" on="1"/>
        <pt x="768" y="730" on="0"/>
        <pt x="821" y="748" on="0"/>
        <pt x="847" y="719" on="1"/>
        <pt x="871" y="694" on="0"/>
        <pt x="865" y="580" on="0"/>
        <pt x="839" y="546" on="1"/>
        <pt x="816" y="515" on="0"/>
        <pt x="807" y="484" on="1"/>
        <pt x="802" y="458" on="0"/>
        <pt x="781" y="414" on="1"/>
        <pt x="761" y="370" on="0"/>
        <pt x="700" y="252" on="0"/>
        <pt x="692" y="236" on="1"/>
        <pt x="674" y="198" on="0"/>
        <pt x="644" y="154" on="1"/>
        <pt x="598" y="87" on="0"/>
        <pt x="635" y="75" on="1"/>
        <pt x="652" y="70" on="0"/>
        <pt x="668" y="60" on="1"/>
        <pt x="690" y="49" on="0"/>
        <pt x="728" y="54" on="1"/>
        <pt x="730" y="55" on="0"/>
        <pt x="732" y="55" on="1"/>
        <pt x="744" y="62" on="0"/>
        <pt x="792" y="79" on="0"/>
        <pt x="799" y="83" on="1"/>
        <pt x="862" y="116" on="0"/>
      </contour>
      <contour>
        <pt x="397" y="624" on="0"/>
        <pt x="364" y="584" on="0"/>
        <pt x="369" y="579" on="1"/>
        <pt x="375" y="572" on="0"/>
        <pt x="414" y="598" on="0"/>
        <pt x="414" y="609" on="1"/>
        <pt x="414" y="624" on="0"/>
        <pt x="407" y="624" on="1"/>
      </contour>
      <contour>
        <pt x="315" y="25" on="1"/>
        <pt x="330" y="28" on="0"/>
        <pt x="315" y="36" on="1"/>
        <pt x="312" y="38" on="0"/>
        <pt x="305" y="41" on="1"/>
        <pt x="282" y="50" on="0"/>
        <pt x="274" y="60" on="1"/>
        <pt x="268" y="71" on="0"/>
        <pt x="250" y="71" on="0"/>
        <pt x="245" y="61" on="1"/>
        <pt x="242" y="56" on="0"/>
        <pt x="268" y="37" on="0"/>
        <pt x="305" y="23" on="0"/>
      </contour>
      <contour>
        <pt x="536" y="142" on="0"/>
        <pt x="597" y="247" on="0"/>
        <pt x="651" y="360" on="0"/>
        <pt x="675" y="431" on="0"/>
        <pt x="701" y="471" on="1"/>
        <pt x="725" y="507" on="0"/>
        <pt x="719" y="517" on="1"/>
        <pt x="704" y="543" on="0"/>
        <pt x="667" y="503" on="1"/>
        <pt x="652" y="486" on="0"/>
        <pt x="594" y="466" on="1"/>
        <pt x="537" y="445" on="0"/>
        <pt x="531" y="442" on="1"/>
        <pt x="506" y="430" on="0"/>
        <pt x="485" y="430" on="1"/>
        <pt x="470" y="430" on="0"/>
        <pt x="395" y="350" on="0"/>
        <pt x="395" y="332" on="1"/>
        <pt x="395" y="323" on="0"/>
        <pt x="378" y="297" on="1"/>
        <pt x="298" y="177" on="0"/>
        <pt x="298" y="170" on="1"/>
        <pt x="298" y="156" on="0"/>
        <pt x="375" y="97" on="0"/>
        <pt x="407" y="86" on="1"/>
        <pt x="451" y="71" on="0"/>
        <pt x="491" y="83" on="0"/>
        <pt x="517" y="116" on="1"/>
      </contour>
    </TTGlyph>
    <TTGlyph name="H" xMin="30" yMin="-95" xMax="850" yMax="725">
      <contour>
        <pt x="383" y="679" on="1"/>
        <pt x="403" y="616" on="0"/>
        <pt x="392" y="547" on="1"/>
        <pt x="385" y="510" on="0"/>
        <pt x="370" y="473" on="1"/>
        <pt x="369" y="469" on="0"/>
        <pt x="350" y="432" on="0"/>
        <pt x="337" y="400" on="0"/>
        <pt x="325" y="362" on="0"/>
        <pt x="330" y="333" on="0"/>
        <pt x="341" y="327" on="1"/>
        <pt x="347" y="324" on="0"/>
        <pt x="357" y="324" on="1"/>
        <pt x="370" y="324" on="0"/>
        <pt x="424" y="271" on="0"/>
        <pt x="435" y="249" on="1"/>
        <pt x="447" y="228" on="0"/>
        <pt x="470" y="230" on="0"/>
        <pt x="476" y="254" on="1"/>
        <pt x="481" y="280" on="0"/>
        <pt x="494" y="290" on="1"/>
        <pt x="505" y="298" on="0"/>
        <pt x="511" y="327" on="1"/>
        <pt x="516" y="350" on="0"/>
        <pt x="556" y="435" on="1"/>
        <pt x="594" y="515" on="0"/>
        <pt x="594" y="525" on="1"/>
        <pt x="594" y="534" on="0"/>
        <pt x="620" y="584" on="1"/>
        <pt x="645" y="626" on="0"/>
        <pt x="648" y="644" on="1"/>
        <pt x="648" y="659" on="0"/>
        <pt x="662" y="687" on="1"/>
        <pt x="686" y="725" on="0"/>
        <pt x="739" y="704" on="1"/>
        <pt x="747" y="701" on="0"/>
        <pt x="751" y="682" on="0"/>
        <pt x="745" y="655" on="0"/>
        <pt x="733" y="624" on="0"/>
        <pt x="717" y="591" on="0"/>
        <pt x="704" y="565" on="0"/>
        <pt x="691" y="542" on="0"/>
        <pt x="690" y="540" on="1"/>
        <pt x="678" y="516" on="0"/>
        <pt x="675" y="503" on="1"/>
        <pt x="674" y="499" on="0"/>
        <pt x="669" y="476" on="0"/>
        <pt x="667" y="470" on="1"/>
        <pt x="665" y="463" on="0"/>
        <pt x="655" y="447" on="0"/>
        <pt x="643" y="429" on="0"/>
        <pt x="640" y="423" on="1"/>
        <pt x="630" y="404" on="0"/>
        <pt x="598" y="324" on="0"/>
        <pt x="589" y="307" on="1"/>
        <pt x="587" y="303" on="0"/>
        <pt x="571" y="272" on="0"/>
        <pt x="562" y="254" on="0"/>
        <pt x="554" y="227" on="0"/>
        <pt x="554" y="218" on="1"/>
        <pt x="556" y="200" on="0"/>
        <pt x="594" y="203" on="1"/>
        <pt x="602" y="203" on="0"/>
        <pt x="612" y="204" on="1"/>
        <pt x="664" y="210" on="0"/>
        <pt x="711" y="240" on="1"/>
        <pt x="759" y="271" on="0"/>
        <pt x="763" y="280" on="1"/>
        <pt x="769" y="290" on="0"/>
        <pt x="799" y="290" on="1"/>
        <pt x="824" y="290" on="0"/>
        <pt x="850" y="259" on="0"/>
        <pt x="842" y="236" on="1"/>
        <pt x="837" y="220" on="0"/>
        <pt x="774" y="174" on="0"/>
        <pt x="690" y="138" on="0"/>
        <pt x="659" y="135" on="1"/>
        <pt x="617" y="130" on="0"/>
        <pt x="605" y="121" on="1"/>
        <pt x="589" y="110" on="0"/>
        <pt x="515" y="128" on="1"/>
        <pt x="502" y="132" on="0"/>
        <pt x="474" y="77" on="0"/>
        <pt x="468" y="41" on="1"/>
        <pt x="460" y="9" on="0"/>
        <pt x="445" y="-1" on="0"/>
        <pt x="445" y="-24" on="1"/>
        <pt x="445" y="-38" on="0"/>
        <pt x="429" y="-71" on="0"/>
        <pt x="406" y="-95" on="0"/>
        <pt x="397" y="-95" on="1"/>
        <pt x="385" y="-95" on="0"/>
        <pt x="370" y="-74" on="1"/>
        <pt x="361" y="-59" on="0"/>
        <pt x="357" y="-23" on="0"/>
        <pt x="361" y="20" on="1"/>
        <pt x="366" y="94" on="0"/>
        <pt x="357" y="106" on="1"/>
        <pt x="355" y="111" on="0"/>
        <pt x="334" y="118" on="0"/>
        <pt x="318" y="120" on="1"/>
        <pt x="301" y="122" on="0"/>
        <pt x="290" y="123" on="1"/>
        <pt x="278" y="123" on="0"/>
        <pt x="259" y="124" on="1"/>
        <pt x="239" y="125" on="0"/>
        <pt x="237" y="125" on="1"/>
        <pt x="216" y="127" on="0"/>
        <pt x="200" y="115" on="0"/>
        <pt x="184" y="84" on="1"/>
        <pt x="160" y="40" on="0"/>
        <pt x="149" y="1" on="1"/>
        <pt x="133" y="-52" on="0"/>
        <pt x="99" y="-95" on="0"/>
        <pt x="74" y="-95" on="1"/>
        <pt x="47" y="-95" on="0"/>
        <pt x="30" y="-72" on="0"/>
        <pt x="37" y="-46" on="1"/>
        <pt x="45" y="-18" on="0"/>
        <pt x="54" y="11" on="0"/>
        <pt x="70" y="57" on="0"/>
        <pt x="79" y="75" on="1"/>
        <pt x="85" y="88" on="0"/>
        <pt x="109" y="128" on="0"/>
        <pt x="127" y="163" on="0"/>
        <pt x="131" y="180" on="1"/>
        <pt x="135" y="199" on="0"/>
        <pt x="135" y="233" on="1"/>
        <pt x="135" y="292" on="1"/>
        <pt x="176" y="324" on="1"/>
        <pt x="216" y="353" on="0"/>
        <pt x="241" y="403" on="1"/>
        <pt x="267" y="459" on="0"/>
        <pt x="280" y="484" on="1"/>
        <pt x="294" y="514" on="0"/>
        <pt x="309" y="636" on="0"/>
        <pt x="299" y="642" on="1"/>
        <pt x="291" y="647" on="0"/>
        <pt x="261" y="589" on="1"/>
        <pt x="258" y="583" on="0"/>
        <pt x="254" y="576" on="1"/>
        <pt x="233" y="534" on="0"/>
        <pt x="206" y="489" on="0"/>
        <pt x="181" y="462" on="0"/>
        <pt x="164" y="451" on="1"/>
        <pt x="144" y="438" on="0"/>
        <pt x="91" y="445" on="0"/>
        <pt x="77" y="461" on="1"/>
        <pt x="65" y="476" on="0"/>
        <pt x="71" y="582" on="0"/>
        <pt x="86" y="606" on="1"/>
        <pt x="108" y="641" on="0"/>
        <pt x="179" y="701" on="0"/>
        <pt x="210" y="711" on="1"/>
        <pt x="247" y="724" on="0"/>
        <pt x="337" y="725" on="0"/>
        <pt x="357" y="715" on="1"/>
        <pt x="375" y="706" on="0"/>
      </contour>
      <contour>
        <pt x="140" y="538" on="0"/>
        <pt x="170" y="558" on="0"/>
        <pt x="177" y="581" on="1"/>
        <pt x="191" y="616" on="0"/>
        <pt x="174" y="615" on="1"/>
        <pt x="161" y="612" on="0"/>
        <pt x="144" y="591" on="1"/>
        <pt x="119" y="559" on="0"/>
      </contour>
      <contour>
        <pt x="329" y="202" on="1"/>
        <pt x="339" y="205" on="0"/>
        <pt x="339" y="213" on="1"/>
        <pt x="335" y="223" on="0"/>
        <pt x="282" y="245" on="0"/>
        <pt x="275" y="239" on="1"/>
        <pt x="270" y="233" on="0"/>
        <pt x="285" y="218" on="1"/>
        <pt x="301" y="199" on="0"/>
      </contour>
    </TTGlyph>
    <TTGlyph name="I" xMin="32" yMin="-85" xMax="796" yMax="768">
      <contour>
        <pt x="385" y="650" on="0"/>
        <pt x="454" y="737" on="0"/>
        <pt x="481" y="751" on="1"/>
        <pt x="517" y="768" on="0"/>
        <pt x="566" y="764" on="0"/>
        <pt x="588" y="742" on="1"/>
        <pt x="638" y="690" on="0"/>
        <pt x="656" y="526" on="0"/>
        <pt x="620" y="454" on="1"/>
        <pt x="595" y="397" on="0"/>
        <pt x="568" y="356" on="1"/>
        <pt x="544" y="323" on="0"/>
        <pt x="521" y="276" on="0"/>
        <pt x="517" y="258" on="1"/>
        <pt x="513" y="240" on="0"/>
        <pt x="515" y="225" on="1"/>
        <pt x="521" y="196" on="0"/>
        <pt x="540" y="185" on="0"/>
        <pt x="636" y="202" on="1"/>
        <pt x="708" y="214" on="0"/>
        <pt x="738" y="214" on="0"/>
        <pt x="753" y="198" on="1"/>
        <pt x="796" y="155" on="0"/>
        <pt x="705" y="143" on="1"/>
        <pt x="661" y="139" on="0"/>
        <pt x="610" y="124" on="1"/>
        <pt x="561" y="108" on="0"/>
        <pt x="533" y="107" on="1"/>
        <pt x="532" y="107" on="1"/>
        <pt x="510" y="106" on="0"/>
        <pt x="506" y="85" on="0"/>
        <pt x="514" y="29" on="1"/>
        <pt x="514" y="23" on="0"/>
        <pt x="515" y="19" on="1"/>
        <pt x="518" y="-9" on="0"/>
        <pt x="514" y="-35" on="0"/>
        <pt x="504" y="-46" on="1"/>
        <pt x="474" y="-79" on="0"/>
        <pt x="433" y="-50" on="1"/>
        <pt x="411" y="-35" on="0"/>
        <pt x="416" y="-17" on="1"/>
        <pt x="419" y="-8" on="0"/>
        <pt x="418" y="4" on="0"/>
        <pt x="414" y="7" on="1"/>
        <pt x="405" y="12" on="0"/>
        <pt x="317" y="-22" on="0"/>
        <pt x="294" y="-41" on="1"/>
        <pt x="265" y="-65" on="0"/>
        <pt x="195" y="-85" on="0"/>
        <pt x="176" y="-77" on="1"/>
        <pt x="173" y="-74" on="0"/>
        <pt x="159" y="-69" on="1"/>
        <pt x="145" y="-63" on="0"/>
        <pt x="135" y="-59" on="1"/>
        <pt x="124" y="-54" on="0"/>
        <pt x="110" y="-47" on="1"/>
        <pt x="97" y="-40" on="0"/>
        <pt x="88" y="-34" on="1"/>
        <pt x="78" y="-28" on="0"/>
        <pt x="74" y="-22" on="1"/>
        <pt x="64" y="-11" on="0"/>
        <pt x="54" y="54" on="1"/>
        <pt x="53" y="60" on="0"/>
        <pt x="42" y="110" on="0"/>
        <pt x="36" y="151" on="0"/>
        <pt x="32" y="200" on="0"/>
        <pt x="42" y="232" on="0"/>
        <pt x="55" y="236" on="1"/>
        <pt x="49" y="247" on="0"/>
        <pt x="47" y="264" on="0"/>
        <pt x="61" y="276" on="0"/>
        <pt x="75" y="284" on="0"/>
        <pt x="98" y="289" on="0"/>
        <pt x="115" y="291" on="0"/>
        <pt x="124" y="292" on="1"/>
        <pt x="154" y="294" on="0"/>
        <pt x="178" y="287" on="0"/>
        <pt x="203" y="270" on="1"/>
        <pt x="205" y="268" on="0"/>
        <pt x="230" y="250" on="0"/>
        <pt x="249" y="237" on="0"/>
        <pt x="281" y="217" on="0"/>
        <pt x="306" y="205" on="0"/>
        <pt x="333" y="197" on="0"/>
        <pt x="354" y="200" on="0"/>
        <pt x="360" y="208" on="1"/>
        <pt x="370" y="221" on="0"/>
        <pt x="363" y="245" on="1"/>
        <pt x="361" y="248" on="0"/>
        <pt x="357" y="259" on="0"/>
        <pt x="354" y="267" on="0"/>
        <pt x="351" y="277" on="0"/>
        <pt x="350" y="281" on="1"/>
        <pt x="349" y="282" on="0"/>
        <pt x="350" y="315" on="0"/>
        <pt x="350" y="316" on="1"/>
        <pt x="350" y="326" on="0"/>
        <pt x="349" y="394" on="0"/>
        <pt x="349" y="419" on="0"/>
        <pt x="351" y="476" on="0"/>
        <pt x="356" y="511" on="0"/>
        <pt x="366" y="558" on="0"/>
        <pt x="374" y="580" on="1"/>
        <pt x="382" y="603" on="0"/>
        <pt x="385" y="628" on="1"/>
      </contour>
      <contour>
        <pt x="276" y="126" on="1"/>
        <pt x="264" y="151" on="0"/>
        <pt x="247" y="157" on="1"/>
        <pt x="243" y="158" on="0"/>
        <pt x="232" y="165" on="1"/>
        <pt x="221" y="171" on="0"/>
        <pt x="207" y="179" on="1"/>
        <pt x="194" y="185" on="0"/>
        <pt x="179" y="192" on="1"/>
        <pt x="165" y="198" on="0"/>
        <pt x="143" y="196" on="0"/>
        <pt x="137" y="188" on="1"/>
        <pt x="130" y="177" on="0"/>
        <pt x="155" y="53" on="0"/>
        <pt x="168" y="36" on="1"/>
        <pt x="187" y="11" on="0"/>
        <pt x="223" y="20" on="0"/>
        <pt x="253" y="56" on="1"/>
        <pt x="279" y="88" on="0"/>
        <pt x="286" y="108" on="0"/>
      </contour>
      <contour>
        <pt x="553" y="588" on="1"/>
        <pt x="547" y="645" on="0"/>
        <pt x="536" y="658" on="1"/>
        <pt x="525" y="671" on="0"/>
        <pt x="511" y="671" on="0"/>
        <pt x="489" y="632" on="0"/>
        <pt x="469" y="574" on="0"/>
        <pt x="466" y="550" on="1"/>
        <pt x="458" y="502" on="0"/>
        <pt x="433" y="466" on="0"/>
        <pt x="432" y="400" on="0"/>
        <pt x="443" y="378" on="1"/>
        <pt x="447" y="369" on="0"/>
        <pt x="451" y="364" on="0"/>
        <pt x="459" y="365" on="0"/>
        <pt x="466" y="372" on="0"/>
        <pt x="476" y="382" on="1"/>
        <pt x="499" y="403" on="0"/>
        <pt x="499" y="437" on="0"/>
        <pt x="509" y="442" on="1"/>
        <pt x="517" y="448" on="0"/>
        <pt x="539" y="489" on="1"/>
        <pt x="551" y="515" on="0"/>
        <pt x="557" y="551" on="0"/>
      </contour>
    </TTGlyph>
    <TTGlyph name="J" xMin="-136" yMin="-283" xMax="733" yMax="806">
      <contour>
        <pt x="690" y="131" on="1"/>
        <pt x="707" y="145" on="0"/>
        <pt x="733" y="140" on="0"/>
        <pt x="733" y="118" on="1"/>
        <pt x="733" y="111" on="0"/>
        <pt x="726" y="97" on="0"/>
        <pt x="719" y="87" on="0"/>
        <pt x="703" y="74" on="0"/>
        <pt x="694" y="67" on="0"/>
        <pt x="676" y="55" on="0"/>
        <pt x="674" y="54" on="1"/>
        <pt x="656" y="41" on="0"/>
        <pt x="636" y="33" on="1"/>
        <pt x="599" y="16" on="0"/>
        <pt x="371" y="-42" on="0"/>
        <pt x="331" y="-23" on="1"/>
        <pt x="321" y="-18" on="0"/>
        <pt x="301" y="-18" on="0"/>
        <pt x="286" y="-24" on="0"/>
        <pt x="270" y="-38" on="0"/>
        <pt x="258" y="-53" on="0"/>
        <pt x="245" y="-75" on="0"/>
        <pt x="235" y="-94" on="0"/>
        <pt x="222" y="-117" on="0"/>
        <pt x="217" y="-124" on="1"/>
        <pt x="170" y="-198" on="0"/>
        <pt x="152" y="-210" on="1"/>
        <pt x="126" y="-228" on="0"/>
        <pt x="95" y="-254" on="1"/>
        <pt x="71" y="-274" on="0"/>
        <pt x="53" y="-277" on="1"/>
        <pt x="35" y="-280" on="0"/>
        <pt x="-37" y="-281" on="1"/>
        <pt x="-136" y="-283" on="1"/>
        <pt x="-136" y="-217" on="1"/>
        <pt x="-136" y="-172" on="0"/>
        <pt x="-127" y="-140" on="0"/>
        <pt x="-103" y="-111" on="1"/>
        <pt x="-73" y="-73" on="0"/>
        <pt x="5" y="-16" on="1"/>
        <pt x="79" y="37" on="0"/>
        <pt x="86" y="51" on="1"/>
        <pt x="91" y="64" on="0"/>
        <pt x="144" y="80" on="1"/>
        <pt x="204" y="100" on="0"/>
        <pt x="214" y="113" on="1"/>
        <pt x="224" y="120" on="0"/>
        <pt x="207" y="181" on="0"/>
        <pt x="183" y="235" on="0"/>
        <pt x="155" y="295" on="0"/>
        <pt x="153" y="303" on="1"/>
        <pt x="108" y="451" on="0"/>
        <pt x="136" y="588" on="1"/>
        <pt x="158" y="701" on="0"/>
        <pt x="222" y="759" on="1"/>
        <pt x="222" y="759" on="0"/>
        <pt x="223" y="760" on="0"/>
        <pt x="223" y="760" on="1"/>
        <pt x="273" y="806" on="0"/>
        <pt x="409" y="806" on="0"/>
        <pt x="456" y="756" on="1"/>
        <pt x="472" y="737" on="0"/>
        <pt x="472" y="650" on="1"/>
        <pt x="472" y="591" on="0"/>
        <pt x="458" y="493" on="0"/>
        <pt x="435" y="395" on="1"/>
        <pt x="411" y="285" on="0"/>
        <pt x="402" y="236" on="1"/>
        <pt x="396" y="195" on="1"/>
        <pt x="438" y="202" on="1"/>
        <pt x="464" y="205" on="0"/>
        <pt x="488" y="199" on="0"/>
        <pt x="507" y="183" on="1"/>
        <pt x="533" y="161" on="1"/>
        <pt x="513" y="141" on="1"/>
        <pt x="493" y="120" on="0"/>
        <pt x="448" y="112" on="1"/>
        <pt x="435" y="109" on="0"/>
        <pt x="397" y="93" on="0"/>
        <pt x="359" y="67" on="0"/>
        <pt x="354" y="37" on="0"/>
        <pt x="373" y="21" on="1"/>
        <pt x="383" y="14" on="0"/>
        <pt x="410" y="9" on="0"/>
        <pt x="446" y="17" on="0"/>
        <pt x="473" y="25" on="0"/>
        <pt x="518" y="41" on="0"/>
        <pt x="528" y="44" on="1"/>
        <pt x="537" y="50" on="0"/>
        <pt x="562" y="59" on="0"/>
        <pt x="588" y="68" on="0"/>
        <pt x="594" y="71" on="1"/>
        <pt x="655" y="103" on="0"/>
      </contour>
      <contour>
        <pt x="127" y="-109" on="1"/>
        <pt x="194" y="-15" on="0"/>
        <pt x="194" y="1" on="1"/>
        <pt x="194" y="34" on="0"/>
        <pt x="113" y="-36" on="1"/>
        <pt x="107" y="-43" on="1"/>
        <pt x="62" y="-82" on="0"/>
        <pt x="50" y="-82" on="1"/>
        <pt x="32" y="-82" on="0"/>
        <pt x="-56" y="-177" on="0"/>
        <pt x="-60" y="-198" on="1"/>
        <pt x="-61" y="-218" on="0"/>
        <pt x="-53" y="-226" on="0"/>
        <pt x="-34" y="-223" on="1"/>
        <pt x="-3" y="-221" on="0"/>
        <pt x="96" y="-149" on="0"/>
      </contour>
      <contour>
        <pt x="334" y="298" on="1"/>
        <pt x="412" y="673" on="0"/>
        <pt x="380" y="713" on="1"/>
        <pt x="368" y="725" on="0"/>
        <pt x="339" y="725" on="1"/>
        <pt x="330" y="725" on="0"/>
        <pt x="315" y="723" on="0"/>
        <pt x="301" y="711" on="0"/>
        <pt x="293" y="702" on="1"/>
        <pt x="285" y="693" on="0"/>
        <pt x="273" y="679" on="1"/>
        <pt x="241" y="640" on="0"/>
        <pt x="214" y="550" on="0"/>
        <pt x="207" y="469" on="1"/>
        <pt x="203" y="419" on="0"/>
        <pt x="207" y="385" on="0"/>
        <pt x="220" y="368" on="1"/>
        <pt x="240" y="339" on="0"/>
        <pt x="249" y="287" on="1"/>
        <pt x="260" y="234" on="0"/>
        <pt x="269" y="229" on="1"/>
        <pt x="277" y="223" on="0"/>
        <pt x="277" y="204" on="1"/>
        <pt x="277" y="170" on="0"/>
        <pt x="295" y="196" on="1"/>
        <pt x="319" y="230" on="0"/>
      </contour>
    </TTGlyph>
    <TTGlyph name="K" xMin="34" yMin="-75" xMax="733" yMax="800">
      <contour>
        <pt x="691" y="96" on="1"/>
        <pt x="707" y="109" on="0"/>
        <pt x="732" y="104" on="0"/>
        <pt x="733" y="83" on="1"/>
        <pt x="733" y="76" on="0"/>
        <pt x="727" y="62" on="0"/>
        <pt x="719" y="53" on="0"/>
        <pt x="704" y="40" on="0"/>
        <pt x="695" y="34" on="0"/>
        <pt x="678" y="22" on="0"/>
        <pt x="676" y="21" on="1"/>
        <pt x="650" y="3" on="0"/>
        <pt x="621" y="-8" on="1"/>
        <pt x="604" y="-19" on="0"/>
        <pt x="571" y="-21" on="1"/>
        <pt x="559" y="-22" on="0"/>
        <pt x="550" y="-21" on="1"/>
        <pt x="544" y="-21" on="0"/>
        <pt x="542" y="-21" on="1"/>
        <pt x="488" y="-20" on="0"/>
        <pt x="433" y="11" on="0"/>
        <pt x="365" y="76" on="1"/>
        <pt x="277" y="162" on="0"/>
        <pt x="266" y="157" on="1"/>
        <pt x="255" y="153" on="0"/>
        <pt x="208" y="81" on="0"/>
        <pt x="208" y="69" on="1"/>
        <pt x="208" y="57" on="0"/>
        <pt x="187" y="24" on="1"/>
        <pt x="166" y="-8" on="0"/>
        <pt x="159" y="-31" on="1"/>
        <pt x="153" y="-57" on="0"/>
        <pt x="116" y="-75" on="0"/>
        <pt x="82" y="-44" on="0"/>
        <pt x="85" y="-18" on="0"/>
        <pt x="109" y="33" on="1"/>
        <pt x="131" y="79" on="0"/>
        <pt x="130" y="107" on="0"/>
        <pt x="106" y="107" on="1"/>
        <pt x="86" y="107" on="0"/>
        <pt x="61" y="129" on="1"/>
        <pt x="43" y="142" on="0"/>
        <pt x="34" y="163" on="0"/>
        <pt x="34" y="185" on="1"/>
        <pt x="36" y="272" on="0"/>
        <pt x="54" y="304" on="1"/>
        <pt x="62" y="318" on="0"/>
        <pt x="84" y="323" on="0"/>
        <pt x="130" y="321" on="1"/>
        <pt x="196" y="316" on="0"/>
        <pt x="209" y="309" on="1"/>
        <pt x="244" y="296" on="0"/>
        <pt x="314" y="408" on="0"/>
        <pt x="314" y="474" on="1"/>
        <pt x="314" y="526" on="0"/>
        <pt x="290" y="533" on="0"/>
        <pt x="262" y="490" on="1"/>
        <pt x="240" y="456" on="0"/>
        <pt x="213" y="448" on="1"/>
        <pt x="198" y="444" on="0"/>
        <pt x="158" y="451" on="0"/>
        <pt x="125" y="472" on="0"/>
        <pt x="118" y="485" on="1"/>
        <pt x="109" y="501" on="0"/>
        <pt x="114" y="578" on="0"/>
        <pt x="125" y="605" on="1"/>
        <pt x="136" y="631" on="0"/>
        <pt x="136" y="649" on="0"/>
        <pt x="175" y="693" on="1"/>
        <pt x="210" y="735" on="0"/>
        <pt x="282" y="784" on="0"/>
        <pt x="330" y="794" on="1"/>
        <pt x="358" y="800" on="0"/>
        <pt x="374" y="795" on="1"/>
        <pt x="402" y="787" on="0"/>
        <pt x="416" y="755" on="1"/>
        <pt x="445" y="688" on="0"/>
        <pt x="430" y="566" on="1"/>
        <pt x="423" y="508" on="0"/>
        <pt x="414" y="499" on="1"/>
        <pt x="406" y="492" on="0"/>
        <pt x="406" y="457" on="1"/>
        <pt x="406" y="428" on="0"/>
        <pt x="365" y="343" on="0"/>
        <pt x="337" y="313" on="1"/>
        <pt x="310" y="285" on="0"/>
        <pt x="323" y="272" on="1"/>
        <pt x="327" y="270" on="0"/>
        <pt x="340" y="270" on="0"/>
        <pt x="389" y="312" on="1"/>
        <pt x="439" y="356" on="0"/>
        <pt x="496" y="413" on="1"/>
        <pt x="547" y="464" on="0"/>
        <pt x="609" y="550" on="0"/>
        <pt x="609" y="570" on="1"/>
        <pt x="611" y="590" on="0"/>
        <pt x="618" y="601" on="1"/>
        <pt x="624" y="611" on="0"/>
        <pt x="665" y="611" on="0"/>
        <pt x="679" y="601" on="1"/>
        <pt x="700" y="586" on="0"/>
        <pt x="660" y="488" on="0"/>
        <pt x="610" y="430" on="1"/>
        <pt x="565" y="377" on="0"/>
        <pt x="405" y="229" on="0"/>
        <pt x="386" y="221" on="1"/>
        <pt x="365" y="214" on="0"/>
        <pt x="378" y="166" on="0"/>
        <pt x="410" y="134" on="1"/>
        <pt x="451" y="95" on="0"/>
        <pt x="451" y="84" on="1"/>
        <pt x="451" y="74" on="0"/>
        <pt x="469" y="57" on="1"/>
        <pt x="474" y="53" on="0"/>
        <pt x="486" y="47" on="0"/>
        <pt x="498" y="43" on="0"/>
        <pt x="516" y="42" on="0"/>
        <pt x="529" y="41" on="0"/>
        <pt x="549" y="43" on="0"/>
        <pt x="561" y="44" on="0"/>
        <pt x="582" y="48" on="0"/>
        <pt x="591" y="49" on="0"/>
        <pt x="611" y="53" on="0"/>
        <pt x="612" y="53" on="1"/>
        <pt x="644" y="59" on="0"/>
      </contour>
      <contour>
        <pt x="246" y="581" on="1"/>
        <pt x="296" y="628" on="0"/>
        <pt x="269" y="655" on="1"/>
        <pt x="258" y="666" on="0"/>
        <pt x="228" y="665" on="0"/>
        <pt x="219" y="655" on="1"/>
        <pt x="205" y="637" on="0"/>
        <pt x="181" y="571" on="0"/>
        <pt x="185" y="561" on="1"/>
        <pt x="196" y="531" on="0"/>
      </contour>
      <contour>
        <pt x="164" y="200" on="0"/>
        <pt x="189" y="221" on="0"/>
        <pt x="187" y="227" on="1"/>
        <pt x="184" y="239" on="0"/>
        <pt x="139" y="241" on="0"/>
        <pt x="129" y="231" on="1"/>
        <pt x="120" y="222" on="0"/>
        <pt x="117" y="198" on="0"/>
        <pt x="127" y="193" on="1"/>
        <pt x="132" y="189" on="0"/>
      </contour>
    </TTGlyph>
    <TTGlyph name="L" xMin="34" yMin="-17" xMax="803" yMax="793">
      <contour>
        <pt x="753" y="151" on="1"/>
        <pt x="754" y="151" on="0"/>
        <pt x="756" y="153" on="0"/>
        <pt x="756" y="153" on="1"/>
        <pt x="775" y="169" on="0"/>
        <pt x="787" y="163" on="1"/>
        <pt x="795" y="159" on="0"/>
        <pt x="797" y="147" on="1"/>
        <pt x="803" y="117" on="0"/>
        <pt x="757" y="83" on="1"/>
        <pt x="691" y="35" on="0"/>
        <pt x="622" y="-8" on="1"/>
        <pt x="611" y="-14" on="0"/>
        <pt x="606" y="-16" on="1"/>
        <pt x="598" y="-17" on="0"/>
        <pt x="583" y="-13" on="1"/>
        <pt x="538" y="-1" on="0"/>
        <pt x="440" y="29" on="1"/>
        <pt x="398" y="39" on="0"/>
        <pt x="374" y="44" on="1"/>
        <pt x="332" y="52" on="0"/>
        <pt x="318" y="60" on="1"/>
        <pt x="305" y="68" on="0"/>
        <pt x="268" y="45" on="1"/>
        <pt x="225" y="19" on="0"/>
        <pt x="148" y="-1" on="0"/>
        <pt x="70" y="28" on="0"/>
        <pt x="43" y="71" on="1"/>
        <pt x="40" y="78" on="0"/>
        <pt x="35" y="91" on="0"/>
        <pt x="34" y="106" on="0"/>
        <pt x="34" y="117" on="0"/>
        <pt x="37" y="136" on="0"/>
        <pt x="38" y="144" on="0"/>
        <pt x="44" y="166" on="0"/>
        <pt x="44" y="168" on="1"/>
        <pt x="50" y="195" on="0"/>
        <pt x="81" y="242" on="0"/>
        <pt x="101" y="249" on="1"/>
        <pt x="127" y="258" on="0"/>
        <pt x="214" y="250" on="0"/>
        <pt x="230" y="236" on="1"/>
        <pt x="275" y="202" on="0"/>
        <pt x="326" y="220" on="0"/>
        <pt x="355" y="281" on="1"/>
        <pt x="371" y="313" on="0"/>
        <pt x="398" y="369" on="1"/>
        <pt x="452" y="479" on="0"/>
        <pt x="335" y="468" on="1"/>
        <pt x="294" y="465" on="0"/>
        <pt x="265" y="481" on="1"/>
        <pt x="213" y="509" on="0"/>
        <pt x="179" y="519" on="1"/>
        <pt x="157" y="525" on="0"/>
        <pt x="138" y="554" on="0"/>
        <pt x="147" y="566" on="1"/>
        <pt x="156" y="576" on="0"/>
        <pt x="175" y="568" on="1"/>
        <pt x="215" y="550" on="0"/>
        <pt x="241" y="542" on="1"/>
        <pt x="268" y="534" on="0"/>
        <pt x="293" y="531" on="1"/>
        <pt x="318" y="529" on="0"/>
        <pt x="354" y="530" on="1"/>
        <pt x="430" y="530" on="0"/>
        <pt x="449" y="542" on="1"/>
        <pt x="457" y="549" on="0"/>
        <pt x="480" y="587" on="0"/>
        <pt x="497" y="636" on="0"/>
        <pt x="501" y="657" on="1"/>
        <pt x="503" y="678" on="0"/>
        <pt x="557" y="752" on="0"/>
        <pt x="585" y="770" on="1"/>
        <pt x="618" y="793" on="0"/>
        <pt x="674" y="760" on="1"/>
        <pt x="694" y="748" on="0"/>
        <pt x="702" y="729" on="0"/>
        <pt x="701" y="695" on="1"/>
        <pt x="700" y="651" on="0"/>
        <pt x="678" y="586" on="0"/>
        <pt x="630" y="538" on="0"/>
        <pt x="592" y="519" on="1"/>
        <pt x="556" y="501" on="0"/>
        <pt x="522" y="451" on="0"/>
        <pt x="490" y="366" on="1"/>
        <pt x="435" y="224" on="0"/>
        <pt x="401" y="168" on="1"/>
        <pt x="382" y="136" on="0"/>
        <pt x="402" y="95" on="0"/>
        <pt x="441" y="92" on="1"/>
        <pt x="492" y="88" on="0"/>
        <pt x="553" y="68" on="1"/>
        <pt x="591" y="55" on="0"/>
        <pt x="637" y="72" on="1"/>
        <pt x="679" y="88" on="0"/>
        <pt x="747" y="146" on="1"/>
        <pt x="751" y="149" on="0"/>
      </contour>
      <contour>
        <pt x="575" y="666" on="1"/>
        <pt x="543" y="613" on="0"/>
        <pt x="574" y="612" on="1"/>
        <pt x="584" y="612" on="0"/>
        <pt x="616" y="642" on="0"/>
        <pt x="635" y="678" on="0"/>
        <pt x="631" y="686" on="1"/>
        <pt x="613" y="721" on="0"/>
      </contour>
      <contour>
        <pt x="207" y="113" on="1"/>
        <pt x="240" y="131" on="0"/>
        <pt x="239" y="156" on="0"/>
        <pt x="204" y="169" on="1"/>
        <pt x="172" y="182" on="0"/>
        <pt x="159" y="181" on="0"/>
        <pt x="140" y="166" on="1"/>
        <pt x="123" y="151" on="0"/>
        <pt x="125" y="126" on="0"/>
        <pt x="147" y="110" on="1"/>
        <pt x="164" y="97" on="0"/>
        <pt x="178" y="98" on="0"/>
      </contour>
    </TTGlyph>
    <TTGlyph name="M" xMin="34" yMin="18" xMax="971" yMax="804">
      <contour>
        <pt x="168" y="756" on="1"/>
        <pt x="218" y="785" on="0"/>
        <pt x="224" y="789" on="1"/>
        <pt x="239" y="804" on="0"/>
        <pt x="255" y="788" on="1"/>
        <pt x="266" y="777" on="0"/>
        <pt x="286" y="788" on="1"/>
        <pt x="305" y="797" on="0"/>
        <pt x="334" y="784" on="1"/>
        <pt x="352" y="774" on="0"/>
        <pt x="365" y="752" on="0"/>
        <pt x="369" y="720" on="1"/>
        <pt x="376" y="677" on="0"/>
        <pt x="397" y="660" on="0"/>
        <pt x="419" y="680" on="1"/>
        <pt x="438" y="701" on="0"/>
        <pt x="465" y="701" on="0"/>
        <pt x="488" y="716" on="1"/>
        <pt x="527" y="742" on="0"/>
        <pt x="600" y="689" on="0"/>
        <pt x="600" y="635" on="1"/>
        <pt x="600" y="606" on="0"/>
        <pt x="618" y="604" on="0"/>
        <pt x="646" y="626" on="1"/>
        <pt x="718" y="685" on="0"/>
        <pt x="797" y="706" on="0"/>
        <pt x="834" y="674" on="1"/>
        <pt x="865" y="648" on="1"/>
        <pt x="859" y="575" on="1"/>
        <pt x="851" y="500" on="0"/>
        <pt x="827" y="453" on="1"/>
        <pt x="804" y="403" on="0"/>
        <pt x="804" y="386" on="0"/>
        <pt x="791" y="359" on="1"/>
        <pt x="766" y="311" on="0"/>
        <pt x="777" y="129" on="0"/>
        <pt x="806" y="119" on="1"/>
        <pt x="826" y="115" on="0"/>
        <pt x="859" y="134" on="1"/>
        <pt x="891" y="155" on="0"/>
        <pt x="916" y="155" on="1"/>
        <pt x="937" y="155" on="0"/>
        <pt x="971" y="118" on="0"/>
        <pt x="964" y="102" on="1"/>
        <pt x="957" y="86" on="0"/>
        <pt x="878" y="47" on="0"/>
        <pt x="840" y="41" on="1"/>
        <pt x="813" y="39" on="0"/>
        <pt x="786" y="44" on="0"/>
        <pt x="766" y="58" on="1"/>
        <pt x="725" y="89" on="0"/>
        <pt x="697" y="162" on="0"/>
        <pt x="697" y="239" on="1"/>
        <pt x="697" y="334" on="0"/>
        <pt x="705" y="364" on="1"/>
        <pt x="722" y="416" on="0"/>
        <pt x="748" y="532" on="0"/>
        <pt x="752" y="566" on="1"/>
        <pt x="755" y="600" on="0"/>
        <pt x="748" y="604" on="1"/>
        <pt x="721" y="604" on="0"/>
        <pt x="531" y="367" on="0"/>
        <pt x="520" y="317" on="1"/>
        <pt x="514" y="291" on="0"/>
        <pt x="448" y="139" on="0"/>
        <pt x="415" y="76" on="1"/>
        <pt x="398" y="46" on="0"/>
        <pt x="352" y="33" on="0"/>
        <pt x="325" y="75" on="0"/>
        <pt x="333" y="109" on="1"/>
        <pt x="337" y="137" on="0"/>
        <pt x="356" y="176" on="1"/>
        <pt x="376" y="212" on="0"/>
        <pt x="376" y="251" on="0"/>
        <pt x="395" y="276" on="1"/>
        <pt x="416" y="302" on="0"/>
        <pt x="420" y="349" on="0"/>
        <pt x="435" y="367" on="1"/>
        <pt x="456" y="389" on="0"/>
        <pt x="524" y="600" on="0"/>
        <pt x="516" y="615" on="1"/>
        <pt x="512" y="622" on="0"/>
        <pt x="434" y="583" on="0"/>
        <pt x="434" y="565" on="0"/>
        <pt x="379" y="474" on="1"/>
        <pt x="323" y="389" on="0"/>
        <pt x="301" y="324" on="1"/>
        <pt x="278" y="263" on="0"/>
        <pt x="254" y="228" on="1"/>
        <pt x="229" y="190" on="0"/>
        <pt x="229" y="180" on="1"/>
        <pt x="228" y="165" on="0"/>
        <pt x="156" y="30" on="0"/>
        <pt x="145" y="25" on="1"/>
        <pt x="131" y="18" on="0"/>
        <pt x="121" y="25" on="1"/>
        <pt x="69" y="59" on="0"/>
        <pt x="108" y="129" on="1"/>
        <pt x="131" y="170" on="0"/>
        <pt x="142" y="191" on="1"/>
        <pt x="165" y="231" on="0"/>
        <pt x="175" y="253" on="1"/>
        <pt x="196" y="297" on="0"/>
        <pt x="245" y="475" on="0"/>
        <pt x="262" y="515" on="1"/>
        <pt x="286" y="569" on="0"/>
        <pt x="294" y="611" on="0"/>
        <pt x="290" y="649" on="1"/>
        <pt x="283" y="706" on="1"/>
        <pt x="248" y="703" on="1"/>
        <pt x="215" y="699" on="0"/>
        <pt x="186" y="673" on="0"/>
        <pt x="199" y="658" on="1"/>
        <pt x="225" y="627" on="0"/>
        <pt x="163" y="562" on="1"/>
        <pt x="95" y="491" on="0"/>
        <pt x="55" y="515" on="1"/>
        <pt x="34" y="526" on="0"/>
        <pt x="34" y="609" on="0"/>
        <pt x="53" y="655" on="1"/>
        <pt x="68" y="688" on="0"/>
        <pt x="107" y="723" on="0"/>
      </contour>
    </TTGlyph>
    <TTGlyph name="N" xMin="34" yMin="-9" xMax="999" yMax="788">
      <contour>
        <pt x="951" y="168" on="1"/>
        <pt x="970" y="184" on="0"/>
        <pt x="999" y="178" on="0"/>
        <pt x="999" y="153" on="1"/>
        <pt x="999" y="128" on="0"/>
        <pt x="944" y="75" on="0"/>
        <pt x="864" y="37" on="0"/>
        <pt x="791" y="11" on="0"/>
        <pt x="767" y="7" on="1"/>
        <pt x="687" y="-9" on="0"/>
        <pt x="536" y="26" on="0"/>
        <pt x="498" y="87" on="1"/>
        <pt x="463" y="143" on="0"/>
        <pt x="477" y="280" on="0"/>
        <pt x="530" y="395" on="1"/>
        <pt x="559" y="459" on="0"/>
        <pt x="566" y="487" on="1"/>
        <pt x="572" y="510" on="0"/>
        <pt x="598" y="558" on="1"/>
        <pt x="635" y="624" on="0"/>
        <pt x="606" y="623" on="1"/>
        <pt x="585" y="621" on="0"/>
        <pt x="544" y="585" on="1"/>
        <pt x="510" y="555" on="0"/>
        <pt x="476" y="528" on="1"/>
        <pt x="452" y="512" on="0"/>
        <pt x="321" y="331" on="0"/>
        <pt x="305" y="295" on="1"/>
        <pt x="290" y="258" on="0"/>
        <pt x="261" y="217" on="1"/>
        <pt x="213" y="145" on="0"/>
        <pt x="164" y="55" on="1"/>
        <pt x="139" y="6" on="0"/>
        <pt x="130" y="6" on="1"/>
        <pt x="124" y="6" on="0"/>
        <pt x="101" y="0" on="1"/>
        <pt x="79" y="-6" on="0"/>
        <pt x="56" y="26" on="1"/>
        <pt x="34" y="58" on="1"/>
        <pt x="63" y="102" on="1"/>
        <pt x="82" y="130" on="0"/>
        <pt x="161" y="273" on="0"/>
        <pt x="180" y="299" on="1"/>
        <pt x="194" y="321" on="0"/>
        <pt x="215" y="360" on="1"/>
        <pt x="236" y="399" on="0"/>
        <pt x="254" y="439" on="1"/>
        <pt x="271" y="478" on="0"/>
        <pt x="277" y="499" on="1"/>
        <pt x="285" y="525" on="0"/>
        <pt x="307" y="566" on="1"/>
        <pt x="323" y="595" on="0"/>
        <pt x="331" y="669" on="0"/>
        <pt x="320" y="680" on="1"/>
        <pt x="317" y="684" on="0"/>
        <pt x="273" y="668" on="0"/>
        <pt x="248" y="655" on="1"/>
        <pt x="223" y="642" on="0"/>
        <pt x="198" y="627" on="1"/>
        <pt x="174" y="613" on="0"/>
        <pt x="165" y="602" on="1"/>
        <pt x="146" y="582" on="0"/>
        <pt x="113" y="583" on="0"/>
        <pt x="91" y="608" on="1"/>
        <pt x="67" y="634" on="0"/>
        <pt x="67" y="637" on="1"/>
        <pt x="67" y="649" on="0"/>
        <pt x="266" y="763" on="0"/>
        <pt x="314" y="780" on="1"/>
        <pt x="337" y="788" on="0"/>
        <pt x="407" y="782" on="0"/>
        <pt x="425" y="770" on="1"/>
        <pt x="435" y="764" on="0"/>
        <pt x="444" y="748" on="0"/>
        <pt x="445" y="734" on="1"/>
        <pt x="447" y="720" on="0"/>
        <pt x="447" y="693" on="1"/>
        <pt x="447" y="633" on="1"/>
        <pt x="508" y="680" on="1"/>
        <pt x="549" y="712" on="0"/>
        <pt x="588" y="729" on="0"/>
        <pt x="626" y="729" on="1"/>
        <pt x="670" y="731" on="0"/>
        <pt x="689" y="720" on="0"/>
        <pt x="697" y="693" on="1"/>
        <pt x="711" y="659" on="0"/>
        <pt x="703" y="610" on="1"/>
        <pt x="693" y="548" on="0"/>
        <pt x="646" y="389" on="0"/>
        <pt x="626" y="351" on="1"/>
        <pt x="601" y="302" on="0"/>
        <pt x="601" y="277" on="1"/>
        <pt x="601" y="254" on="0"/>
        <pt x="587" y="243" on="1"/>
        <pt x="563" y="223" on="0"/>
        <pt x="559" y="150" on="0"/>
        <pt x="594" y="89" on="0"/>
        <pt x="623" y="82" on="1"/>
        <pt x="663" y="74" on="0"/>
        <pt x="770" y="81" on="0"/>
        <pt x="820" y="92" on="1"/>
        <pt x="838" y="98" on="0"/>
        <pt x="846" y="102" on="1"/>
        <pt x="913" y="137" on="0"/>
      </contour>
    </TTGlyph>
    <TTGlyph name="O" xMin="30" yMin="-221" xMax="715" yMax="750">
      <contour>
        <pt x="393" y="697" on="0"/>
        <pt x="407" y="701" on="0"/>
        <pt x="428" y="717" on="1"/>
        <pt x="461" y="742" on="0"/>
        <pt x="518" y="750" on="1"/>
        <pt x="530" y="750" on="0"/>
        <pt x="571" y="713" on="1"/>
        <pt x="666" y="625" on="0"/>
        <pt x="608" y="510" on="1"/>
        <pt x="572" y="440" on="0"/>
        <pt x="588" y="436" on="1"/>
        <pt x="589" y="436" on="0"/>
        <pt x="592" y="437" on="1"/>
        <pt x="628" y="453" on="0"/>
        <pt x="674" y="467" on="0"/>
        <pt x="703" y="469" on="0"/>
        <pt x="715" y="456" on="0"/>
        <pt x="715" y="441" on="1"/>
        <pt x="715" y="416" on="0"/>
        <pt x="658" y="372" on="0"/>
        <pt x="609" y="361" on="1"/>
        <pt x="575" y="353" on="0"/>
        <pt x="546" y="336" on="0"/>
        <pt x="534" y="317" on="1"/>
        <pt x="196" y="-221" on="0"/>
        <pt x="61" y="56" on="1"/>
        <pt x="44" y="93" on="0"/>
        <pt x="30" y="198" on="0"/>
        <pt x="39" y="221" on="1"/>
        <pt x="57" y="266" on="0"/>
        <pt x="81" y="398" on="1"/>
        <pt x="93" y="452" on="0"/>
        <pt x="116" y="495" on="1"/>
        <pt x="138" y="545" on="0"/>
        <pt x="138" y="551" on="1"/>
        <pt x="138" y="564" on="0"/>
        <pt x="287" y="683" on="0"/>
        <pt x="323" y="700" on="1"/>
        <pt x="353" y="714" on="0"/>
        <pt x="374" y="717" on="0"/>
        <pt x="383" y="708" on="1"/>
      </contour>
      <contour>
        <pt x="356" y="532" on="1"/>
        <pt x="343" y="551" on="0"/>
        <pt x="343" y="576" on="1"/>
        <pt x="343" y="603" on="0"/>
        <pt x="324" y="605" on="0"/>
        <pt x="292" y="580" on="1"/>
        <pt x="199" y="506" on="0"/>
        <pt x="175" y="449" on="1"/>
        <pt x="154" y="402" on="0"/>
        <pt x="101" y="165" on="0"/>
        <pt x="106" y="143" on="1"/>
        <pt x="110" y="118" on="0"/>
        <pt x="110" y="91" on="1"/>
        <pt x="110" y="70" on="0"/>
        <pt x="143" y="36" on="0"/>
        <pt x="163" y="36" on="1"/>
        <pt x="209" y="36" on="0"/>
        <pt x="301" y="126" on="1"/>
        <pt x="393" y="217" on="0"/>
        <pt x="442" y="310" on="1"/>
        <pt x="467" y="359" on="1"/>
        <pt x="424" y="400" on="1"/>
        <pt x="381" y="444" on="0"/>
        <pt x="374" y="478" on="1"/>
        <pt x="368" y="514" on="0"/>
      </contour>
      <contour>
        <pt x="542" y="540" on="0"/>
        <pt x="555" y="621" on="0"/>
        <pt x="543" y="639" on="1"/>
        <pt x="536" y="648" on="0"/>
        <pt x="481" y="648" on="0"/>
        <pt x="473" y="626" on="1"/>
        <pt x="469" y="615" on="0"/>
        <pt x="456" y="602" on="0"/>
        <pt x="451" y="602" on="1"/>
        <pt x="438" y="602" on="0"/>
        <pt x="431" y="541" on="0"/>
        <pt x="440" y="504" on="1"/>
        <pt x="449" y="466" on="0"/>
        <pt x="465" y="448" on="1"/>
        <pt x="472" y="440" on="0"/>
        <pt x="481" y="434" on="0"/>
        <pt x="494" y="446" on="0"/>
        <pt x="509" y="471" on="0"/>
        <pt x="521" y="497" on="1"/>
      </contour>
    </TTGlyph>
    <TTGlyph name="P" xMin="7" yMin="-41" xMax="788" yMax="728">
      <contour>
        <pt x="271" y="449" on="1"/>
        <pt x="318" y="551" on="0"/>
        <pt x="318" y="567" on="1"/>
        <pt x="318" y="576" on="0"/>
        <pt x="324" y="582" on="1"/>
        <pt x="329" y="588" on="0"/>
        <pt x="334" y="595" on="1"/>
        <pt x="339" y="601" on="0"/>
        <pt x="339" y="610" on="1"/>
        <pt x="333" y="628" on="0"/>
        <pt x="265" y="607" on="0"/>
        <pt x="256" y="598" on="1"/>
        <pt x="224" y="573" on="0"/>
        <pt x="150" y="592" on="0"/>
        <pt x="150" y="627" on="1"/>
        <pt x="150" y="640" on="0"/>
        <pt x="215" y="688" on="0"/>
        <pt x="235" y="688" on="1"/>
        <pt x="247" y="688" on="0"/>
        <pt x="330" y="724" on="0"/>
        <pt x="333" y="724" on="1"/>
        <pt x="351" y="728" on="0"/>
        <pt x="560" y="721" on="0"/>
        <pt x="612" y="713" on="1"/>
        <pt x="660" y="707" on="0"/>
        <pt x="716" y="662" on="1"/>
        <pt x="788" y="610" on="0"/>
        <pt x="785" y="498" on="0"/>
        <pt x="712" y="393" on="1"/>
        <pt x="676" y="342" on="0"/>
        <pt x="655" y="316" on="1"/>
        <pt x="634" y="290" on="0"/>
        <pt x="608" y="269" on="0"/>
        <pt x="596" y="269" on="1"/>
        <pt x="575" y="269" on="0"/>
        <pt x="557" y="251" on="1"/>
        <pt x="525" y="215" on="0"/>
        <pt x="356" y="154" on="0"/>
        <pt x="306" y="160" on="1"/>
        <pt x="292" y="160" on="0"/>
        <pt x="271" y="163" on="0"/>
        <pt x="261" y="157" on="1"/>
        <pt x="251" y="151" on="0"/>
        <pt x="236" y="139" on="0"/>
        <pt x="228" y="123" on="1"/>
        <pt x="220" y="108" on="0"/>
        <pt x="212" y="90" on="1"/>
        <pt x="205" y="72" on="0"/>
        <pt x="195" y="42" on="1"/>
        <pt x="181" y="3" on="0"/>
        <pt x="166" y="-29" on="0"/>
        <pt x="151" y="-41" on="0"/>
        <pt x="139" y="-41" on="1"/>
        <pt x="114" y="-41" on="0"/>
        <pt x="99" y="-14" on="1"/>
        <pt x="89" y="5" on="0"/>
        <pt x="92" y="21" on="1"/>
        <pt x="96" y="37" on="0"/>
        <pt x="123" y="94" on="1"/>
        <pt x="160" y="175" on="0"/>
        <pt x="156" y="184" on="1"/>
        <pt x="150" y="191" on="0"/>
        <pt x="95" y="187" on="1"/>
        <pt x="56" y="184" on="0"/>
        <pt x="32" y="191" on="0"/>
        <pt x="20" y="211" on="1"/>
        <pt x="7" y="231" on="0"/>
        <pt x="7" y="246" on="0"/>
        <pt x="22" y="266" on="1"/>
        <pt x="40" y="291" on="0"/>
        <pt x="162" y="331" on="0"/>
        <pt x="178" y="318" on="1"/>
        <pt x="189" y="311" on="0"/>
        <pt x="224" y="328" on="0"/>
        <pt x="224" y="342" on="1"/>
        <pt x="224" y="352" on="0"/>
      </contour>
      <contour>
        <pt x="684" y="598" on="0"/>
        <pt x="670" y="616" on="0"/>
        <pt x="646" y="630" on="1"/>
        <pt x="620" y="643" on="0"/>
        <pt x="560" y="649" on="1"/>
        <pt x="476" y="656" on="0"/>
        <pt x="412" y="625" on="0"/>
        <pt x="412" y="577" on="1"/>
        <pt x="412" y="542" on="0"/>
        <pt x="391" y="530" on="0"/>
        <pt x="391" y="512" on="1"/>
        <pt x="391" y="490" on="0"/>
        <pt x="291" y="287" on="1"/>
        <pt x="269" y="241" on="0"/>
        <pt x="315" y="241" on="1"/>
        <pt x="345" y="241" on="0"/>
        <pt x="391" y="260" on="1"/>
        <pt x="563" y="330" on="0"/>
        <pt x="654" y="472" on="1"/>
        <pt x="681" y="510" on="0"/>
        <pt x="694" y="548" on="0"/>
        <pt x="690" y="567" on="1"/>
      </contour>
    </TTGlyph>
    <TTGlyph name="Q" xMin="34" yMin="-29" xMax="697" yMax="736">
      <contour>
        <pt x="694" y="101" on="1"/>
        <pt x="691" y="78" on="0"/>
        <pt x="679" y="60" on="1"/>
        <pt x="649" y="16" on="0"/>
        <pt x="595" y="-7" on="1"/>
        <pt x="544" y="-29" on="0"/>
        <pt x="437" y="-6" on="0"/>
        <pt x="399" y="35" on="1"/>
        <pt x="351" y="86" on="1"/>
        <pt x="312" y="48" on="1"/>
        <pt x="271" y="10" on="0"/>
        <pt x="207" y="-20" on="0"/>
        <pt x="163" y="-20" on="1"/>
        <pt x="114" y="-20" on="0"/>
        <pt x="72" y="12" on="0"/>
        <pt x="54" y="61" on="1"/>
        <pt x="40" y="93" on="0"/>
        <pt x="34" y="155" on="0"/>
        <pt x="34" y="224" on="1"/>
        <pt x="35" y="302" on="0"/>
        <pt x="41" y="338" on="1"/>
        <pt x="47" y="374" on="0"/>
        <pt x="62" y="385" on="1"/>
        <pt x="72" y="389" on="0"/>
        <pt x="72" y="404" on="1"/>
        <pt x="72" y="419" on="0"/>
        <pt x="106" y="490" on="1"/>
        <pt x="134" y="550" on="0"/>
        <pt x="259" y="685" on="0"/>
        <pt x="308" y="711" on="1"/>
        <pt x="355" y="736" on="0"/>
        <pt x="456" y="724" on="0"/>
        <pt x="494" y="688" on="1"/>
        <pt x="514" y="670" on="0"/>
        <pt x="527" y="644" on="0"/>
        <pt x="527" y="621" on="1"/>
        <pt x="527" y="586" on="0"/>
        <pt x="535" y="579" on="1"/>
        <pt x="544" y="575" on="0"/>
        <pt x="551" y="532" on="1"/>
        <pt x="555" y="507" on="0"/>
        <pt x="546" y="465" on="0"/>
        <pt x="529" y="422" on="1"/>
        <pt x="500" y="353" on="0"/>
        <pt x="500" y="305" on="0"/>
        <pt x="481" y="295" on="0"/>
        <pt x="481" y="275" on="1"/>
        <pt x="481" y="257" on="0"/>
        <pt x="443" y="200" on="1"/>
        <pt x="403" y="143" on="1"/>
        <pt x="427" y="101" on="1"/>
        <pt x="443" y="72" on="0"/>
        <pt x="461" y="59" on="0"/>
        <pt x="492" y="56" on="1"/>
        <pt x="536" y="53" on="0"/>
        <pt x="584" y="73" on="1"/>
        <pt x="602" y="82" on="0"/>
        <pt x="617" y="85" on="1"/>
        <pt x="640" y="99" on="0"/>
        <pt x="657" y="113" on="1"/>
        <pt x="681" y="129" on="0"/>
        <pt x="697" y="120" on="0"/>
      </contour>
      <contour>
        <pt x="377" y="231" on="0"/>
        <pt x="405" y="278" on="0"/>
        <pt x="424" y="341" on="0"/>
        <pt x="424" y="365" on="1"/>
        <pt x="424" y="394" on="0"/>
        <pt x="453" y="449" on="1"/>
        <pt x="481" y="502" on="0"/>
        <pt x="481" y="522" on="1"/>
        <pt x="481" y="536" on="0"/>
        <pt x="449" y="593" on="0"/>
        <pt x="442" y="593" on="1"/>
        <pt x="436" y="593" on="0"/>
        <pt x="427" y="623" on="1"/>
        <pt x="422" y="646" on="0"/>
        <pt x="399" y="658" on="0"/>
        <pt x="372" y="651" on="1"/>
        <pt x="361" y="650" on="0"/>
        <pt x="324" y="622" on="0"/>
        <pt x="282" y="581" on="0"/>
        <pt x="238" y="532" on="0"/>
        <pt x="220" y="507" on="1"/>
        <pt x="202" y="482" on="0"/>
        <pt x="191" y="462" on="1"/>
        <pt x="183" y="447" on="0"/>
        <pt x="161" y="408" on="1"/>
        <pt x="139" y="370" on="0"/>
        <pt x="133" y="358" on="1"/>
        <pt x="118" y="331" on="0"/>
        <pt x="108" y="276" on="0"/>
        <pt x="105" y="214" on="1"/>
        <pt x="98" y="121" on="0"/>
        <pt x="114" y="60" on="0"/>
        <pt x="146" y="53" on="1"/>
        <pt x="166" y="49" on="0"/>
        <pt x="177" y="52" on="1"/>
        <pt x="188" y="55" on="0"/>
        <pt x="205" y="69" on="1"/>
        <pt x="232" y="92" on="0"/>
        <pt x="244" y="92" on="1"/>
        <pt x="257" y="92" on="0"/>
        <pt x="291" y="134" on="1"/>
        <pt x="315" y="163" on="0"/>
        <pt x="321" y="181" on="0"/>
        <pt x="312" y="189" on="1"/>
        <pt x="303" y="200" on="0"/>
        <pt x="278" y="201" on="0"/>
        <pt x="245" y="193" on="1"/>
        <pt x="201" y="184" on="0"/>
        <pt x="164" y="199" on="0"/>
        <pt x="164" y="222" on="1"/>
        <pt x="164" y="232" on="0"/>
        <pt x="176" y="246" on="0"/>
        <pt x="199" y="259" on="0"/>
        <pt x="230" y="268" on="0"/>
        <pt x="249" y="271" on="1"/>
        <pt x="275" y="274" on="0"/>
        <pt x="304" y="268" on="0"/>
        <pt x="325" y="254" on="1"/>
        <pt x="358" y="230" on="0"/>
        <pt x="366" y="230" on="1"/>
      </contour>
    </TTGlyph>
    <TTGlyph name="R" xMin="34" yMin="0" xMax="844" yMax="756">
      <contour>
        <pt x="814" y="205" on="1"/>
        <pt x="844" y="214" on="0"/>
        <pt x="841" y="185" on="1"/>
        <pt x="839" y="172" on="0"/>
        <pt x="832" y="155" on="1"/>
        <pt x="817" y="125" on="0"/>
        <pt x="757" y="77" on="0"/>
        <pt x="695" y="51" on="0"/>
        <pt x="637" y="34" on="0"/>
        <pt x="618" y="32" on="1"/>
        <pt x="600" y="29" on="1"/>
        <pt x="540" y="36" on="0"/>
        <pt x="430" y="74" on="0"/>
        <pt x="349" y="126" on="0"/>
        <pt x="298" y="168" on="0"/>
        <pt x="277" y="190" on="1"/>
        <pt x="269" y="185" on="0"/>
        <pt x="267" y="183" on="1"/>
        <pt x="260" y="177" on="0"/>
        <pt x="251" y="162" on="1"/>
        <pt x="243" y="147" on="0"/>
        <pt x="236" y="129" on="1"/>
        <pt x="228" y="110" on="0"/>
        <pt x="218" y="82" on="1"/>
        <pt x="205" y="43" on="0"/>
        <pt x="198" y="28" on="1"/>
        <pt x="194" y="20" on="0"/>
        <pt x="187" y="9" on="0"/>
        <pt x="183" y="6" on="1"/>
        <pt x="176" y="0" on="0"/>
        <pt x="164" y="0" on="1"/>
        <pt x="139" y="0" on="0"/>
        <pt x="125" y="26" on="1"/>
        <pt x="114" y="45" on="0"/>
        <pt x="122" y="78" on="0"/>
        <pt x="148" y="133" on="1"/>
        <pt x="185" y="213" on="0"/>
        <pt x="180" y="221" on="1"/>
        <pt x="174" y="229" on="0"/>
        <pt x="120" y="224" on="1"/>
        <pt x="82" y="221" on="0"/>
        <pt x="59" y="228" on="0"/>
        <pt x="47" y="248" on="1"/>
        <pt x="34" y="268" on="0"/>
        <pt x="34" y="283" on="0"/>
        <pt x="48" y="302" on="1"/>
        <pt x="66" y="327" on="0"/>
        <pt x="186" y="366" on="0"/>
        <pt x="202" y="353" on="1"/>
        <pt x="213" y="346" on="0"/>
        <pt x="248" y="363" on="0"/>
        <pt x="248" y="376" on="1"/>
        <pt x="248" y="387" on="0"/>
        <pt x="293" y="482" on="1"/>
        <pt x="340" y="582" on="0"/>
        <pt x="340" y="598" on="1"/>
        <pt x="340" y="607" on="0"/>
        <pt x="345" y="612" on="1"/>
        <pt x="351" y="619" on="0"/>
        <pt x="355" y="625" on="1"/>
        <pt x="361" y="632" on="0"/>
        <pt x="361" y="640" on="1"/>
        <pt x="355" y="658" on="0"/>
        <pt x="287" y="637" on="0"/>
        <pt x="278" y="628" on="1"/>
        <pt x="248" y="604" on="0"/>
        <pt x="174" y="623" on="0"/>
        <pt x="174" y="656" on="1"/>
        <pt x="174" y="670" on="0"/>
        <pt x="239" y="716" on="0"/>
        <pt x="258" y="716" on="1"/>
        <pt x="270" y="716" on="0"/>
        <pt x="352" y="752" on="0"/>
        <pt x="355" y="752" on="1"/>
        <pt x="372" y="756" on="0"/>
        <pt x="577" y="749" on="0"/>
        <pt x="629" y="741" on="1"/>
        <pt x="675" y="735" on="0"/>
        <pt x="731" y="692" on="1"/>
        <pt x="801" y="640" on="0"/>
        <pt x="799" y="530" on="0"/>
        <pt x="727" y="426" on="1"/>
        <pt x="691" y="376" on="0"/>
        <pt x="671" y="351" on="1"/>
        <pt x="651" y="325" on="0"/>
        <pt x="624" y="305" on="0"/>
        <pt x="613" y="305" on="1"/>
        <pt x="592" y="305" on="0"/>
        <pt x="574" y="287" on="1"/>
        <pt x="545" y="254" on="0"/>
        <pt x="467" y="225" on="1"/>
        <pt x="466" y="224" on="1"/>
        <pt x="409" y="198" on="0"/>
        <pt x="415" y="186" on="1"/>
        <pt x="417" y="183" on="1"/>
        <pt x="436" y="149" on="0"/>
        <pt x="499" y="111" on="0"/>
        <pt x="561" y="106" on="0"/>
        <pt x="618" y="111" on="0"/>
        <pt x="636" y="117" on="1"/>
        <pt x="654" y="122" on="1"/>
        <pt x="662" y="132" on="0"/>
        <pt x="696" y="142" on="0"/>
        <pt x="710" y="143" on="1"/>
        <pt x="724" y="144" on="1"/>
      </contour>
      <contour>
        <pt x="326" y="265" on="1"/>
        <pt x="355" y="265" on="0"/>
        <pt x="401" y="284" on="1"/>
        <pt x="569" y="353" on="0"/>
        <pt x="658" y="492" on="1"/>
        <pt x="685" y="531" on="0"/>
        <pt x="698" y="567" on="0"/>
        <pt x="694" y="586" on="1"/>
        <pt x="688" y="617" on="0"/>
        <pt x="675" y="634" on="0"/>
        <pt x="651" y="648" on="1"/>
        <pt x="625" y="661" on="0"/>
        <pt x="566" y="667" on="1"/>
        <pt x="484" y="674" on="0"/>
        <pt x="421" y="643" on="0"/>
        <pt x="421" y="596" on="1"/>
        <pt x="421" y="561" on="0"/>
        <pt x="401" y="550" on="0"/>
        <pt x="401" y="532" on="1"/>
        <pt x="401" y="510" on="0"/>
        <pt x="302" y="311" on="1"/>
        <pt x="281" y="265" on="0"/>
      </contour>
    </TTGlyph>
    <TTGlyph name="S" xMin="26" yMin="-74" xMax="862" yMax="799">
      <contour>
        <pt x="862" y="138" on="1"/>
        <pt x="862" y="115" on="0"/>
        <pt x="822" y="87" on="1"/>
        <pt x="813" y="67" on="0"/>
        <pt x="790" y="52" on="1"/>
        <pt x="751" y="27" on="0"/>
        <pt x="722" y="21" on="1"/>
        <pt x="617" y="-11" on="0"/>
        <pt x="499" y="-32" on="0"/>
        <pt x="447" y="-29" on="1"/>
        <pt x="432" y="-28" on="0"/>
        <pt x="411" y="-29" on="0"/>
        <pt x="394" y="-33" on="0"/>
        <pt x="378" y="-41" on="0"/>
        <pt x="370" y="-48" on="1"/>
        <pt x="333" y="-74" on="0"/>
        <pt x="191" y="-57" on="0"/>
        <pt x="152" y="-20" on="1"/>
        <pt x="127" y="3" on="0"/>
        <pt x="101" y="10" on="0"/>
        <pt x="82" y="-2" on="1"/>
        <pt x="53" y="-19" on="0"/>
        <pt x="26" y="23" on="0"/>
        <pt x="45" y="55" on="1"/>
        <pt x="56" y="73" on="0"/>
        <pt x="32" y="176" on="0"/>
        <pt x="52" y="195" on="0"/>
        <pt x="94" y="171" on="1"/>
        <pt x="139" y="146" on="1"/>
        <pt x="180" y="187" on="1"/>
        <pt x="209" y="215" on="0"/>
        <pt x="350" y="384" on="0"/>
        <pt x="371" y="406" on="1"/>
        <pt x="408" y="444" on="1"/>
        <pt x="403" y="505" on="1"/>
        <pt x="398" y="566" on="0"/>
        <pt x="383" y="593" on="1"/>
        <pt x="361" y="635" on="0"/>
        <pt x="383" y="712" on="0"/>
        <pt x="433" y="765" on="1"/>
        <pt x="453" y="785" on="0"/>
        <pt x="480" y="799" on="0"/>
        <pt x="499" y="799" on="1"/>
        <pt x="522" y="799" on="0"/>
        <pt x="592" y="766" on="0"/>
        <pt x="593" y="756" on="1"/>
        <pt x="604" y="686" on="0"/>
        <pt x="592" y="674" on="1"/>
        <pt x="586" y="667" on="0"/>
        <pt x="569" y="613" on="1"/>
        <pt x="552" y="563" on="0"/>
        <pt x="524" y="526" on="1"/>
        <pt x="499" y="489" on="0"/>
        <pt x="499" y="480" on="1"/>
        <pt x="499" y="469" on="0"/>
        <pt x="486" y="456" on="1"/>
        <pt x="473" y="440" on="0"/>
        <pt x="481" y="394" on="1"/>
        <pt x="527" y="158" on="0"/>
        <pt x="490" y="83" on="1"/>
        <pt x="473" y="47" on="0"/>
        <pt x="481" y="42" on="1"/>
        <pt x="488" y="36" on="0"/>
        <pt x="528" y="47" on="1"/>
        <pt x="560" y="55" on="0"/>
        <pt x="619" y="64" on="1"/>
        <pt x="633" y="67" on="0"/>
        <pt x="662" y="77" on="0"/>
        <pt x="693" y="90" on="0"/>
        <pt x="705" y="93" on="1"/>
        <pt x="720" y="97" on="0"/>
        <pt x="725" y="101" on="1"/>
        <pt x="729" y="104" on="0"/>
        <pt x="742" y="118" on="0"/>
        <pt x="746" y="120" on="1"/>
        <pt x="754" y="127" on="0"/>
        <pt x="781" y="137" on="0"/>
        <pt x="811" y="147" on="0"/>
        <pt x="819" y="152" on="1"/>
        <pt x="834" y="163" on="0"/>
        <pt x="862" y="161" on="0"/>
      </contour>
      <contour>
        <pt x="425" y="114" on="0"/>
        <pt x="443" y="174" on="0"/>
        <pt x="437" y="250" on="1"/>
        <pt x="429" y="337" on="0"/>
        <pt x="420" y="341" on="1"/>
        <pt x="412" y="344" on="0"/>
        <pt x="369" y="295" on="1"/>
        <pt x="338" y="260" on="0"/>
        <pt x="274" y="190" on="1"/>
        <pt x="220" y="134" on="0"/>
        <pt x="220" y="118" on="1"/>
        <pt x="220" y="106" on="0"/>
        <pt x="294" y="59" on="0"/>
        <pt x="324" y="51" on="1"/>
        <pt x="340" y="47" on="0"/>
        <pt x="363" y="58" on="0"/>
        <pt x="386" y="77" on="1"/>
      </contour>
      <contour>
        <pt x="464" y="568" on="1"/>
        <pt x="473" y="572" on="0"/>
        <pt x="527" y="703" on="0"/>
        <pt x="522" y="712" on="1"/>
        <pt x="514" y="737" on="0"/>
        <pt x="484" y="711" on="1"/>
        <pt x="462" y="693" on="0"/>
        <pt x="453" y="665" on="1"/>
        <pt x="440" y="625" on="0"/>
        <pt x="452" y="581" on="1"/>
        <pt x="458" y="568" on="0"/>
      </contour>
    </TTGlyph>
    <TTGlyph name="T" xMin="34" yMin="-19" xMax="1055" yMax="721">
      <contour>
        <pt x="1026" y="692" on="1"/>
        <pt x="1055" y="664" on="0"/>
        <pt x="1021" y="630" on="1"/>
        <pt x="1001" y="612" on="0"/>
        <pt x="954" y="602" on="1"/>
        <pt x="907" y="592" on="0"/>
        <pt x="792" y="583" on="1"/>
        <pt x="708" y="576" on="1"/>
        <pt x="685" y="501" on="1"/>
        <pt x="662" y="424" on="0"/>
        <pt x="649" y="410" on="1"/>
        <pt x="633" y="388" on="0"/>
        <pt x="621" y="364" on="1"/>
        <pt x="561" y="232" on="0"/>
        <pt x="561" y="211" on="1"/>
        <pt x="561" y="194" on="0"/>
        <pt x="538" y="165" on="1"/>
        <pt x="515" y="137" on="0"/>
        <pt x="518" y="113" on="0"/>
        <pt x="543" y="88" on="1"/>
        <pt x="544" y="87" on="0"/>
        <pt x="545" y="86" on="1"/>
        <pt x="547" y="84" on="1"/>
        <pt x="597" y="112" on="0"/>
        <pt x="629" y="138" on="1"/>
        <pt x="650" y="155" on="0"/>
        <pt x="682" y="149" on="0"/>
        <pt x="682" y="121" on="1"/>
        <pt x="682" y="113" on="0"/>
        <pt x="674" y="95" on="0"/>
        <pt x="665" y="83" on="0"/>
        <pt x="646" y="67" on="0"/>
        <pt x="635" y="59" on="0"/>
        <pt x="612" y="44" on="0"/>
        <pt x="610" y="43" on="1"/>
        <pt x="566" y="13" on="0"/>
        <pt x="477" y="-8" on="1"/>
        <pt x="455" y="-13" on="0"/>
        <pt x="434" y="-7" on="1"/>
        <pt x="346" y="-19" on="0"/>
        <pt x="277" y="-19" on="1"/>
        <pt x="238" y="-19" on="0"/>
        <pt x="219" y="-18" on="1"/>
        <pt x="200" y="-16" on="0"/>
        <pt x="177" y="-5" on="0"/>
        <pt x="163" y="10" on="1"/>
        <pt x="130" y="39" on="0"/>
        <pt x="102" y="44" on="1"/>
        <pt x="76" y="46" on="0"/>
        <pt x="50" y="80" on="1"/>
        <pt x="34" y="101" on="0"/>
        <pt x="34" y="116" on="0"/>
        <pt x="47" y="131" on="1"/>
        <pt x="58" y="142" on="0"/>
        <pt x="78" y="145" on="0"/>
        <pt x="96" y="136" on="1"/>
        <pt x="124" y="123" on="0"/>
        <pt x="182" y="123" on="0"/>
        <pt x="187" y="111" on="1"/>
        <pt x="194" y="100" on="0"/>
        <pt x="233" y="100" on="0"/>
        <pt x="267" y="82" on="1"/>
        <pt x="292" y="69" on="0"/>
        <pt x="313" y="74" on="0"/>
        <pt x="345" y="97" on="1"/>
        <pt x="388" y="124" on="0"/>
        <pt x="419" y="162" on="1"/>
        <pt x="440" y="186" on="0"/>
        <pt x="538" y="382" on="0"/>
        <pt x="538" y="398" on="1"/>
        <pt x="538" y="408" on="0"/>
        <pt x="566" y="469" on="1"/>
        <pt x="597" y="537" on="0"/>
        <pt x="597" y="579" on="0"/>
        <pt x="561" y="597" on="1"/>
        <pt x="518" y="617" on="0"/>
        <pt x="430" y="614" on="1"/>
        <pt x="339" y="610" on="1"/>
        <pt x="318" y="542" on="1"/>
        <pt x="283" y="433" on="0"/>
        <pt x="225" y="433" on="1"/>
        <pt x="202" y="433" on="0"/>
        <pt x="146" y="480" on="1"/>
        <pt x="109" y="511" on="0"/>
        <pt x="94" y="539" on="0"/>
        <pt x="97" y="566" on="1"/>
        <pt x="104" y="606" on="0"/>
        <pt x="89" y="638" on="1"/>
        <pt x="76" y="671" on="0"/>
        <pt x="102" y="720" on="0"/>
        <pt x="111" y="720" on="1"/>
        <pt x="112" y="720" on="0"/>
        <pt x="129" y="717" on="1"/>
        <pt x="148" y="715" on="0"/>
        <pt x="179" y="711" on="1"/>
        <pt x="212" y="707" on="0"/>
        <pt x="239" y="703" on="1"/>
        <pt x="358" y="687" on="0"/>
        <pt x="409" y="697" on="1"/>
        <pt x="445" y="703" on="0"/>
        <pt x="546" y="681" on="0"/>
        <pt x="567" y="661" on="1"/>
        <pt x="587" y="641" on="0"/>
        <pt x="887" y="667" on="0"/>
        <pt x="936" y="694" on="1"/>
        <pt x="992" y="721" on="0"/>
      </contour>
      <contour>
        <pt x="223" y="524" on="0"/>
        <pt x="251" y="575" on="0"/>
        <pt x="251" y="594" on="1"/>
        <pt x="251" y="619" on="0"/>
        <pt x="220" y="591" on="1"/>
        <pt x="181" y="558" on="0"/>
        <pt x="189" y="535" on="1"/>
        <pt x="192" y="524" on="0"/>
        <pt x="212" y="524" on="1"/>
      </contour>
    </TTGlyph>
    <TTGlyph name="U" xMin="32" yMin="-46" xMax="695" yMax="766">
      <contour>
        <pt x="648" y="148" on="1"/>
        <pt x="667" y="163" on="0"/>
        <pt x="694" y="157" on="0"/>
        <pt x="695" y="133" on="1"/>
        <pt x="695" y="126" on="0"/>
        <pt x="688" y="111" on="0"/>
        <pt x="679" y="100" on="0"/>
        <pt x="663" y="85" on="0"/>
        <pt x="653" y="79" on="0"/>
        <pt x="634" y="66" on="0"/>
        <pt x="632" y="64" on="1"/>
        <pt x="624" y="59" on="0"/>
        <pt x="612" y="48" on="0"/>
        <pt x="598" y="33" on="0"/>
        <pt x="593" y="29" on="1"/>
        <pt x="587" y="23" on="0"/>
        <pt x="574" y="22" on="1"/>
        <pt x="564" y="15" on="0"/>
        <pt x="537" y="12" on="1"/>
        <pt x="497" y="6" on="0"/>
        <pt x="464" y="20" on="1"/>
        <pt x="462" y="20" on="0"/>
        <pt x="455" y="20" on="0"/>
        <pt x="453" y="20" on="1"/>
        <pt x="452" y="23" on="0"/>
        <pt x="453" y="26" on="1"/>
        <pt x="452" y="27" on="0"/>
        <pt x="446" y="30" on="0"/>
        <pt x="444" y="31" on="1"/>
        <pt x="404" y="57" on="0"/>
        <pt x="404" y="100" on="1"/>
        <pt x="404" y="150" on="0"/>
        <pt x="372" y="92" on="1"/>
        <pt x="355" y="62" on="0"/>
        <pt x="232" y="-35" on="0"/>
        <pt x="202" y="-42" on="1"/>
        <pt x="179" y="-46" on="0"/>
        <pt x="153" y="-34" on="0"/>
        <pt x="113" y="1" on="1"/>
        <pt x="84" y="26" on="0"/>
        <pt x="73" y="50" on="0"/>
        <pt x="75" y="88" on="1"/>
        <pt x="76" y="141" on="0"/>
        <pt x="99" y="187" on="1"/>
        <pt x="113" y="215" on="0"/>
        <pt x="137" y="274" on="1"/>
        <pt x="161" y="333" on="0"/>
        <pt x="181" y="370" on="1"/>
        <pt x="214" y="427" on="0"/>
        <pt x="214" y="434" on="1"/>
        <pt x="214" y="443" on="0"/>
        <pt x="227" y="472" on="1"/>
        <pt x="246" y="519" on="0"/>
        <pt x="274" y="628" on="0"/>
        <pt x="270" y="644" on="1"/>
        <pt x="264" y="676" on="0"/>
        <pt x="247" y="683" on="1"/>
        <pt x="241" y="685" on="0"/>
        <pt x="237" y="679" on="1"/>
        <pt x="230" y="671" on="0"/>
        <pt x="241" y="665" on="1"/>
        <pt x="256" y="655" on="0"/>
        <pt x="241" y="595" on="0"/>
        <pt x="214" y="563" on="1"/>
        <pt x="167" y="507" on="0"/>
        <pt x="135" y="479" on="0"/>
        <pt x="109" y="476" on="1"/>
        <pt x="45" y="463" on="0"/>
        <pt x="35" y="539" on="1"/>
        <pt x="32" y="562" on="0"/>
        <pt x="41" y="591" on="0"/>
        <pt x="58" y="617" on="1"/>
        <pt x="86" y="658" on="0"/>
        <pt x="86" y="670" on="1"/>
        <pt x="86" y="676" on="0"/>
        <pt x="101" y="692" on="1"/>
        <pt x="116" y="707" on="0"/>
        <pt x="134" y="720" on="1"/>
        <pt x="152" y="733" on="0"/>
        <pt x="161" y="733" on="1"/>
        <pt x="176" y="734" on="0"/>
        <pt x="205" y="751" on="1"/>
        <pt x="233" y="766" on="0"/>
        <pt x="248" y="766" on="0"/>
        <pt x="275" y="751" on="1"/>
        <pt x="317" y="725" on="0"/>
        <pt x="351" y="589" on="0"/>
        <pt x="327" y="543" on="1"/>
        <pt x="299" y="486" on="0"/>
        <pt x="281" y="409" on="1"/>
        <pt x="274" y="379" on="0"/>
        <pt x="268" y="374" on="1"/>
        <pt x="261" y="370" on="0"/>
        <pt x="226" y="295" on="0"/>
        <pt x="205" y="242" on="1"/>
        <pt x="184" y="191" on="0"/>
        <pt x="178" y="176" on="1"/>
        <pt x="149" y="113" on="0"/>
        <pt x="145" y="73" on="0"/>
        <pt x="162" y="53" on="1"/>
        <pt x="184" y="32" on="1"/>
        <pt x="208" y="52" on="1"/>
        <pt x="234" y="71" on="0"/>
        <pt x="246" y="71" on="1"/>
        <pt x="255" y="71" on="0"/>
        <pt x="266" y="85" on="1"/>
        <pt x="277" y="99" on="0"/>
        <pt x="324" y="171" on="1"/>
        <pt x="353" y="213" on="0"/>
        <pt x="431" y="367" on="0"/>
        <pt x="431" y="380" on="1"/>
        <pt x="431" y="391" on="0"/>
        <pt x="476" y="455" on="0"/>
        <pt x="476" y="483" on="1"/>
        <pt x="476" y="510" on="0"/>
        <pt x="494" y="543" on="1"/>
        <pt x="511" y="571" on="0"/>
        <pt x="530" y="612" on="1"/>
        <pt x="544" y="642" on="0"/>
        <pt x="595" y="689" on="0"/>
        <pt x="606" y="684" on="1"/>
        <pt x="614" y="682" on="0"/>
        <pt x="628" y="664" on="1"/>
        <pt x="636" y="652" on="0"/>
        <pt x="633" y="637" on="0"/>
        <pt x="622" y="621" on="1"/>
        <pt x="609" y="604" on="0"/>
        <pt x="578" y="494" on="0"/>
        <pt x="566" y="478" on="1"/>
        <pt x="551" y="456" on="0"/>
        <pt x="537" y="411" on="1"/>
        <pt x="524" y="364" on="0"/>
        <pt x="496" y="240" on="1"/>
        <pt x="477" y="163" on="0"/>
        <pt x="472" y="96" on="0"/>
        <pt x="484" y="84" on="1"/>
        <pt x="493" y="74" on="0"/>
        <pt x="516" y="72" on="1"/>
        <pt x="537" y="79" on="0"/>
        <pt x="544" y="83" on="1"/>
        <pt x="610" y="117" on="0"/>
      </contour>
      <contour>
        <pt x="138" y="588" on="0"/>
        <pt x="178" y="630" on="0"/>
        <pt x="178" y="640" on="1"/>
        <pt x="178" y="665" on="0"/>
        <pt x="118" y="606" on="0"/>
        <pt x="124" y="591" on="1"/>
        <pt x="126" y="588" on="0"/>
        <pt x="130" y="588" on="1"/>
      </contour>
      <contour>
        <pt x="581" y="34" on="1"/>
        <pt x="582" y="34" on="0"/>
        <pt x="582" y="34" on="1"/>
      </contour>
    </TTGlyph>
    <TTGlyph name="V" xMin="65" yMin="-17" xMax="842" yMax="769">
      <contour>
        <pt x="150" y="721" on="1"/>
        <pt x="178" y="735" on="0"/>
        <pt x="197" y="751" on="1"/>
        <pt x="214" y="769" on="0"/>
        <pt x="301" y="761" on="0"/>
        <pt x="326" y="740" on="1"/>
        <pt x="364" y="704" on="0"/>
        <pt x="403" y="603" on="0"/>
        <pt x="386" y="584" on="1"/>
        <pt x="377" y="573" on="0"/>
        <pt x="364" y="508" on="1"/>
        <pt x="352" y="446" on="0"/>
        <pt x="326" y="361" on="1"/>
        <pt x="299" y="276" on="0"/>
        <pt x="286" y="255" on="1"/>
        <pt x="271" y="236" on="0"/>
        <pt x="271" y="180" on="0"/>
        <pt x="260" y="150" on="1"/>
        <pt x="250" y="117" on="0"/>
        <pt x="279" y="50" on="0"/>
        <pt x="301" y="59" on="1"/>
        <pt x="320" y="68" on="0"/>
        <pt x="339" y="72" on="1"/>
        <pt x="356" y="75" on="0"/>
        <pt x="482" y="208" on="0"/>
        <pt x="491" y="235" on="1"/>
        <pt x="498" y="254" on="0"/>
        <pt x="509" y="314" on="1"/>
        <pt x="520" y="394" on="0"/>
        <pt x="602" y="578" on="0"/>
        <pt x="637" y="600" on="1"/>
        <pt x="665" y="617" on="0"/>
        <pt x="709" y="662" on="1"/>
        <pt x="762" y="715" on="0"/>
        <pt x="806" y="704" on="1"/>
        <pt x="842" y="696" on="0"/>
        <pt x="829" y="647" on="1"/>
        <pt x="822" y="617" on="0"/>
        <pt x="790" y="609" on="1"/>
        <pt x="754" y="603" on="0"/>
        <pt x="661" y="517" on="0"/>
        <pt x="637" y="472" on="1"/>
        <pt x="614" y="425" on="0"/>
        <pt x="590" y="312" on="1"/>
        <pt x="580" y="262" on="0"/>
        <pt x="573" y="236" on="1"/>
        <pt x="566" y="210" on="0"/>
        <pt x="544" y="173" on="0"/>
        <pt x="523" y="145" on="1"/>
        <pt x="476" y="82" on="0"/>
        <pt x="468" y="65" on="1"/>
        <pt x="456" y="46" on="0"/>
        <pt x="352" y="-7" on="0"/>
        <pt x="308" y="-13" on="1"/>
        <pt x="280" y="-17" on="0"/>
        <pt x="254" y="-10" on="0"/>
        <pt x="233" y="6" on="1"/>
        <pt x="188" y="46" on="0"/>
        <pt x="181" y="221" on="0"/>
        <pt x="220" y="322" on="1"/>
        <pt x="268" y="445" on="0"/>
        <pt x="296" y="574" on="1"/>
        <pt x="308" y="628" on="0"/>
        <pt x="305" y="653" on="0"/>
        <pt x="289" y="671" on="1"/>
        <pt x="266" y="693" on="1"/>
        <pt x="225" y="672" on="1"/>
        <pt x="182" y="652" on="0"/>
        <pt x="151" y="615" on="1"/>
        <pt x="131" y="590" on="0"/>
        <pt x="112" y="581" on="0"/>
        <pt x="97" y="589" on="1"/>
        <pt x="65" y="606" on="0"/>
        <pt x="100" y="694" on="0"/>
      </contour>
    </TTGlyph>
    <TTGlyph name="W" xMin="36" yMin="-10" xMax="1099" yMax="788">
      <contour>
        <pt x="688" y="363" on="1"/>
        <pt x="716" y="399" on="0"/>
        <pt x="716" y="414" on="1"/>
        <pt x="716" y="421" on="0"/>
        <pt x="753" y="478" on="0"/>
        <pt x="753" y="494" on="0"/>
        <pt x="783" y="527" on="1"/>
        <pt x="812" y="559" on="0"/>
        <pt x="889" y="626" on="0"/>
        <pt x="910" y="638" on="1"/>
        <pt x="952" y="662" on="0"/>
        <pt x="981" y="651" on="0"/>
        <pt x="1024" y="662" on="1"/>
        <pt x="1099" y="682" on="0"/>
        <pt x="1091" y="624" on="1"/>
        <pt x="1090" y="612" on="0"/>
        <pt x="1079" y="602" on="0"/>
        <pt x="1052" y="592" on="0"/>
        <pt x="1017" y="586" on="1"/>
        <pt x="943" y="569" on="0"/>
        <pt x="926" y="559" on="1"/>
        <pt x="906" y="548" on="0"/>
        <pt x="795" y="409" on="0"/>
        <pt x="775" y="370" on="1"/>
        <pt x="765" y="348" on="0"/>
        <pt x="753" y="319" on="1"/>
        <pt x="741" y="289" on="0"/>
        <pt x="730" y="265" on="1"/>
        <pt x="718" y="241" on="0"/>
        <pt x="701" y="218" on="1"/>
        <pt x="673" y="182" on="0"/>
        <pt x="653" y="140" on="1"/>
        <pt x="638" y="108" on="0"/>
        <pt x="513" y="9" on="0"/>
        <pt x="488" y="9" on="1"/>
        <pt x="457" y="9" on="0"/>
        <pt x="386" y="52" on="0"/>
        <pt x="376" y="75" on="1"/>
        <pt x="364" y="104" on="0"/>
        <pt x="346" y="115" on="0"/>
        <pt x="284" y="53" on="1"/>
        <pt x="222" y="-10" on="0"/>
        <pt x="212" y="-10" on="1"/>
        <pt x="186" y="-8" on="0"/>
        <pt x="110" y="25" on="0"/>
        <pt x="98" y="41" on="1"/>
        <pt x="72" y="75" on="0"/>
        <pt x="92" y="253" on="0"/>
        <pt x="124" y="292" on="1"/>
        <pt x="163" y="340" on="0"/>
        <pt x="283" y="691" on="0"/>
        <pt x="264" y="702" on="1"/>
        <pt x="257" y="706" on="0"/>
        <pt x="197" y="689" on="0"/>
        <pt x="197" y="683" on="1"/>
        <pt x="197" y="679" on="0"/>
        <pt x="206" y="663" on="1"/>
        <pt x="218" y="645" on="0"/>
        <pt x="178" y="565" on="0"/>
        <pt x="107" y="500" on="0"/>
        <pt x="56" y="500" on="0"/>
        <pt x="36" y="547" on="0"/>
        <pt x="36" y="608" on="1"/>
        <pt x="36" y="636" on="0"/>
        <pt x="40" y="662" on="0"/>
        <pt x="52" y="681" on="0"/>
        <pt x="67" y="696" on="1"/>
        <pt x="122" y="746" on="0"/>
        <pt x="220" y="776" on="1"/>
        <pt x="261" y="788" on="0"/>
        <pt x="299" y="781" on="0"/>
        <pt x="321" y="759" on="1"/>
        <pt x="335" y="742" on="0"/>
        <pt x="343" y="713" on="0"/>
        <pt x="342" y="677" on="1"/>
        <pt x="342" y="631" on="0"/>
        <pt x="309" y="500" on="0"/>
        <pt x="295" y="458" on="1"/>
        <pt x="280" y="415" on="0"/>
        <pt x="273" y="403" on="1"/>
        <pt x="268" y="391" on="0"/>
        <pt x="229" y="321" on="1"/>
        <pt x="199" y="265" on="0"/>
        <pt x="190" y="254" on="1"/>
        <pt x="175" y="234" on="0"/>
        <pt x="143" y="98" on="1"/>
        <pt x="138" y="76" on="0"/>
        <pt x="159" y="65" on="1"/>
        <pt x="171" y="59" on="0"/>
        <pt x="193" y="68" on="0"/>
        <pt x="218" y="91" on="1"/>
        <pt x="271" y="138" on="0"/>
        <pt x="348" y="246" on="0"/>
        <pt x="395" y="335" on="1"/>
        <pt x="454" y="450" on="0"/>
        <pt x="474" y="477" on="1"/>
        <pt x="496" y="508" on="0"/>
        <pt x="516" y="557" on="1"/>
        <pt x="540" y="619" on="0"/>
        <pt x="578" y="670" on="0"/>
        <pt x="596" y="670" on="1"/>
        <pt x="623" y="670" on="0"/>
        <pt x="641" y="641" on="0"/>
        <pt x="628" y="616" on="1"/>
        <pt x="624" y="609" on="0"/>
        <pt x="602" y="549" on="1"/>
        <pt x="579" y="489" on="0"/>
        <pt x="564" y="477" on="1"/>
        <pt x="545" y="460" on="0"/>
        <pt x="545" y="446" on="1"/>
        <pt x="545" y="437" on="0"/>
        <pt x="508" y="378" on="0"/>
        <pt x="508" y="367" on="1"/>
        <pt x="508" y="350" on="0"/>
        <pt x="498" y="344" on="1"/>
        <pt x="482" y="335" on="0"/>
        <pt x="434" y="179" on="0"/>
        <pt x="434" y="142" on="1"/>
        <pt x="435" y="126" on="0"/>
        <pt x="446" y="95" on="0"/>
        <pt x="464" y="75" on="0"/>
        <pt x="472" y="75" on="1"/>
        <pt x="478" y="75" on="0"/>
        <pt x="507" y="95" on="0"/>
        <pt x="535" y="120" on="0"/>
        <pt x="555" y="147" on="0"/>
        <pt x="555" y="154" on="1"/>
        <pt x="555" y="171" on="0"/>
        <pt x="587" y="202" on="1"/>
        <pt x="610" y="222" on="0"/>
        <pt x="659" y="300" on="0"/>
        <pt x="659" y="316" on="1"/>
        <pt x="659" y="325" on="0"/>
      </contour>
    </TTGlyph>
    <TTGlyph name="X" xMin="100" yMin="-36" xMax="1026" yMax="750">
      <contour>
        <pt x="979" y="201" on="1"/>
        <pt x="998" y="217" on="0"/>
        <pt x="1026" y="211" on="0"/>
        <pt x="1026" y="187" on="1"/>
        <pt x="1026" y="179" on="0"/>
        <pt x="1019" y="164" on="0"/>
        <pt x="1011" y="153" on="0"/>
        <pt x="994" y="139" on="0"/>
        <pt x="984" y="132" on="0"/>
        <pt x="965" y="119" on="0"/>
        <pt x="963" y="118" on="1"/>
        <pt x="943" y="104" on="0"/>
        <pt x="921" y="95" on="1"/>
        <pt x="918" y="94" on="0"/>
        <pt x="881" y="74" on="0"/>
        <pt x="868" y="67" on="1"/>
        <pt x="853" y="56" on="0"/>
        <pt x="831" y="46" on="1"/>
        <pt x="747" y="9" on="0"/>
        <pt x="645" y="49" on="1"/>
        <pt x="604" y="64" on="0"/>
        <pt x="553" y="114" on="1"/>
        <pt x="511" y="156" on="0"/>
        <pt x="496" y="156" on="1"/>
        <pt x="468" y="156" on="0"/>
        <pt x="380" y="90" on="0"/>
        <pt x="338" y="39" on="1"/>
        <pt x="277" y="-36" on="0"/>
        <pt x="264" y="-36" on="1"/>
        <pt x="246" y="-36" on="0"/>
        <pt x="217" y="7" on="0"/>
        <pt x="223" y="24" on="1"/>
        <pt x="227" y="44" on="0"/>
        <pt x="276" y="94" on="1"/>
        <pt x="370" y="191" on="0"/>
        <pt x="443" y="298" on="1"/>
        <pt x="471" y="343" on="0"/>
        <pt x="480" y="374" on="0"/>
        <pt x="475" y="430" on="1"/>
        <pt x="471" y="491" on="0"/>
        <pt x="424" y="604" on="0"/>
        <pt x="394" y="624" on="1"/>
        <pt x="331" y="666" on="0"/>
        <pt x="237" y="566" on="1"/>
        <pt x="181" y="508" on="0"/>
        <pt x="154" y="508" on="1"/>
        <pt x="100" y="508" on="0"/>
        <pt x="131" y="570" on="1"/>
        <pt x="141" y="590" on="0"/>
        <pt x="235" y="673" on="0"/>
        <pt x="291" y="701" on="1"/>
        <pt x="331" y="721" on="0"/>
        <pt x="370" y="730" on="0"/>
        <pt x="408" y="726" on="1"/>
        <pt x="470" y="718" on="0"/>
        <pt x="481" y="713" on="1"/>
        <pt x="507" y="704" on="0"/>
        <pt x="573" y="531" on="0"/>
        <pt x="574" y="473" on="1"/>
        <pt x="574" y="453" on="0"/>
        <pt x="580" y="447" on="1"/>
        <pt x="584" y="443" on="0"/>
        <pt x="730" y="598" on="0"/>
        <pt x="730" y="618" on="0"/>
        <pt x="770" y="661" on="1"/>
        <pt x="807" y="703" on="0"/>
        <pt x="820" y="727" on="1"/>
        <pt x="830" y="746" on="0"/>
        <pt x="841" y="750" on="0"/>
        <pt x="862" y="740" on="1"/>
        <pt x="881" y="728" on="0"/>
        <pt x="880" y="678" on="0"/>
        <pt x="858" y="651" on="1"/>
        <pt x="835" y="623" on="0"/>
        <pt x="821" y="594" on="1"/>
        <pt x="808" y="570" on="0"/>
        <pt x="693" y="451" on="1"/>
        <pt x="577" y="339" on="1"/>
        <pt x="583" y="297" on="1"/>
        <pt x="598" y="184" on="0"/>
        <pt x="637" y="159" on="1"/>
        <pt x="657" y="144" on="0"/>
        <pt x="685" y="119" on="1"/>
        <pt x="703" y="100" on="0"/>
        <pt x="765" y="96" on="0"/>
        <pt x="831" y="117" on="0"/>
        <pt x="865" y="131" on="0"/>
        <pt x="876" y="137" on="1"/>
        <pt x="941" y="171" on="0"/>
      </contour>
    </TTGlyph>
    <TTGlyph name="Y" xMin="30" yMin="-285" xMax="662" yMax="768">
      <contour>
        <pt x="645" y="747" on="1"/>
        <pt x="661" y="734" on="0"/>
        <pt x="662" y="659" on="0"/>
        <pt x="646" y="636" on="1"/>
        <pt x="632" y="615" on="0"/>
        <pt x="632" y="581" on="0"/>
        <pt x="608" y="539" on="1"/>
        <pt x="598" y="521" on="0"/>
        <pt x="593" y="510" on="1"/>
        <pt x="588" y="498" on="0"/>
        <pt x="591" y="498" on="1"/>
        <pt x="597" y="498" on="0"/>
        <pt x="583" y="483" on="1"/>
        <pt x="571" y="467" on="0"/>
        <pt x="519" y="359" on="0"/>
        <pt x="519" y="335" on="0"/>
        <pt x="488" y="288" on="1"/>
        <pt x="455" y="238" on="0"/>
        <pt x="455" y="227" on="0"/>
        <pt x="438" y="205" on="1"/>
        <pt x="419" y="181" on="0"/>
        <pt x="403" y="134" on="1"/>
        <pt x="403" y="133" on="0"/>
        <pt x="399" y="122" on="0"/>
        <pt x="397" y="117" on="0"/>
        <pt x="394" y="106" on="0"/>
        <pt x="394" y="100" on="0"/>
        <pt x="393" y="91" on="0"/>
        <pt x="395" y="84" on="0"/>
        <pt x="397" y="81" on="1"/>
        <pt x="409" y="85" on="0"/>
        <pt x="459" y="95" on="1"/>
        <pt x="466" y="97" on="0"/>
        <pt x="502" y="113" on="0"/>
        <pt x="510" y="115" on="1"/>
        <pt x="544" y="135" on="0"/>
        <pt x="565" y="152" on="1"/>
        <pt x="582" y="166" on="0"/>
        <pt x="608" y="161" on="0"/>
        <pt x="608" y="138" on="1"/>
        <pt x="608" y="133" on="0"/>
        <pt x="604" y="121" on="0"/>
        <pt x="596" y="110" on="0"/>
        <pt x="587" y="101" on="0"/>
        <pt x="574" y="92" on="0"/>
        <pt x="566" y="86" on="0"/>
        <pt x="552" y="77" on="0"/>
        <pt x="549" y="75" on="1"/>
        <pt x="531" y="62" on="0"/>
        <pt x="511" y="54" on="1"/>
        <pt x="509" y="53" on="0"/>
        <pt x="498" y="47" on="0"/>
        <pt x="481" y="38" on="0"/>
        <pt x="474" y="34" on="1"/>
        <pt x="452" y="11" on="0"/>
        <pt x="436" y="-8" on="1"/>
        <pt x="386" y="-68" on="0"/>
        <pt x="361" y="-68" on="0"/>
        <pt x="361" y="-78" on="1"/>
        <pt x="361" y="-86" on="0"/>
        <pt x="294" y="-156" on="1"/>
        <pt x="221" y="-231" on="0"/>
        <pt x="211" y="-247" on="1"/>
        <pt x="195" y="-272" on="0"/>
        <pt x="121" y="-285" on="0"/>
        <pt x="96" y="-269" on="1"/>
        <pt x="81" y="-260" on="0"/>
        <pt x="76" y="-243" on="0"/>
        <pt x="88" y="-207" on="0"/>
        <pt x="89" y="-199" on="1"/>
        <pt x="94" y="-175" on="0"/>
        <pt x="149" y="-123" on="1"/>
        <pt x="204" y="-71" on="0"/>
        <pt x="204" y="-58" on="1"/>
        <pt x="204" y="-46" on="0"/>
        <pt x="226" y="11" on="1"/>
        <pt x="245" y="55" on="0"/>
        <pt x="242" y="81" on="0"/>
        <pt x="219" y="81" on="1"/>
        <pt x="199" y="81" on="0"/>
        <pt x="171" y="108" on="1"/>
        <pt x="153" y="128" on="0"/>
        <pt x="143" y="160" on="0"/>
        <pt x="143" y="213" on="1"/>
        <pt x="143" y="289" on="0"/>
        <pt x="163" y="331" on="1"/>
        <pt x="178" y="362" on="0"/>
        <pt x="212" y="478" on="0"/>
        <pt x="220" y="521" on="1"/>
        <pt x="224" y="546" on="0"/>
        <pt x="233" y="560" on="1"/>
        <pt x="241" y="570" on="0"/>
        <pt x="249" y="649" on="0"/>
        <pt x="259" y="660" on="0"/>
        <pt x="250" y="670" on="1"/>
        <pt x="241" y="682" on="0"/>
        <pt x="217" y="670" on="1"/>
        <pt x="197" y="663" on="0"/>
        <pt x="195" y="640" on="0"/>
        <pt x="212" y="624" on="1"/>
        <pt x="244" y="595" on="0"/>
        <pt x="194" y="521" on="1"/>
        <pt x="164" y="478" on="0"/>
        <pt x="131" y="459" on="0"/>
        <pt x="95" y="465" on="1"/>
        <pt x="52" y="470" on="0"/>
        <pt x="42" y="479" on="1"/>
        <pt x="30" y="492" on="0"/>
        <pt x="42" y="585" on="0"/>
        <pt x="60" y="612" on="1"/>
        <pt x="87" y="652" on="0"/>
        <pt x="187" y="750" on="0"/>
        <pt x="201" y="750" on="1"/>
        <pt x="217" y="750" on="0"/>
        <pt x="232" y="759" on="1"/>
        <pt x="245" y="768" on="0"/>
        <pt x="261" y="765" on="0"/>
        <pt x="286" y="752" on="1"/>
        <pt x="316" y="738" on="0"/>
        <pt x="343" y="693" on="0"/>
        <pt x="347" y="645" on="1"/>
        <pt x="351" y="614" on="0"/>
        <pt x="343" y="562" on="0"/>
        <pt x="324" y="507" on="1"/>
        <pt x="294" y="416" on="0"/>
        <pt x="281" y="387" on="0"/>
        <pt x="271" y="356" on="1"/>
        <pt x="261" y="325" on="0"/>
        <pt x="251" y="292" on="1"/>
        <pt x="241" y="260" on="0"/>
        <pt x="236" y="244" on="1"/>
        <pt x="223" y="209" on="0"/>
        <pt x="224" y="182" on="0"/>
        <pt x="242" y="172" on="1"/>
        <pt x="254" y="166" on="0"/>
        <pt x="269" y="169" on="0"/>
        <pt x="282" y="181" on="1"/>
        <pt x="297" y="196" on="0"/>
        <pt x="336" y="231" on="1"/>
        <pt x="372" y="264" on="0"/>
        <pt x="372" y="290" on="0"/>
        <pt x="406" y="322" on="0"/>
        <pt x="413" y="359" on="1"/>
        <pt x="419" y="395" on="0"/>
        <pt x="432" y="407" on="1"/>
        <pt x="446" y="416" on="0"/>
        <pt x="446" y="429" on="1"/>
        <pt x="446" y="440" on="0"/>
        <pt x="459" y="446" on="1"/>
        <pt x="473" y="451" on="0"/>
        <pt x="473" y="474" on="1"/>
        <pt x="473" y="498" on="0"/>
        <pt x="492" y="508" on="0"/>
        <pt x="492" y="554" on="1"/>
        <pt x="492" y="582" on="0"/>
        <pt x="505" y="615" on="0"/>
        <pt x="529" y="643" on="1"/>
        <pt x="566" y="689" on="0"/>
        <pt x="566" y="705" on="1"/>
        <pt x="566" y="715" on="0"/>
        <pt x="610" y="759" on="0"/>
        <pt x="621" y="759" on="1"/>
        <pt x="626" y="759" on="0"/>
      </contour>
      <contour>
        <pt x="171" y="612" on="0"/>
        <pt x="186" y="632" on="0"/>
        <pt x="186" y="640" on="1"/>
        <pt x="186" y="647" on="0"/>
        <pt x="167" y="647" on="0"/>
        <pt x="147" y="608" on="0"/>
        <pt x="153" y="602" on="1"/>
        <pt x="155" y="599" on="0"/>
      </contour>
    </TTGlyph>
    <TTGlyph name="Z" xMin="31" yMin="-279" xMax="735" yMax="826">
      <contour>
        <pt x="235" y="769" on="1"/>
        <pt x="294" y="798" on="0"/>
        <pt x="344" y="813" on="1"/>
        <pt x="394" y="826" on="0"/>
        <pt x="400" y="823" on="1"/>
        <pt x="470" y="794" on="0"/>
        <pt x="504" y="749" on="0"/>
        <pt x="504" y="690" on="1"/>
        <pt x="504" y="624" on="0"/>
        <pt x="485" y="582" on="1"/>
        <pt x="467" y="540" on="1"/>
        <pt x="505" y="517" on="1"/>
        <pt x="525" y="505" on="0"/>
        <pt x="547" y="482" on="0"/>
        <pt x="561" y="445" on="0"/>
        <pt x="560" y="420" on="1"/>
        <pt x="559" y="393" on="0"/>
        <pt x="557" y="357" on="1"/>
        <pt x="551" y="288" on="0"/>
        <pt x="525" y="228" on="1"/>
        <pt x="500" y="175" on="0"/>
        <pt x="509" y="166" on="1"/>
        <pt x="516" y="159" on="0"/>
        <pt x="590" y="181" on="0"/>
        <pt x="613" y="196" on="1"/>
        <pt x="637" y="211" on="0"/>
        <pt x="671" y="223" on="1"/>
        <pt x="692" y="231" on="0"/>
        <pt x="711" y="231" on="0"/>
        <pt x="719" y="224" on="1"/>
        <pt x="735" y="211" on="0"/>
        <pt x="735" y="200" on="1"/>
        <pt x="735" y="185" on="0"/>
        <pt x="661" y="128" on="0"/>
        <pt x="623" y="116" on="1"/>
        <pt x="572" y="99" on="0"/>
        <pt x="557" y="87" on="1"/>
        <pt x="543" y="74" on="0"/>
        <pt x="535" y="74" on="1"/>
        <pt x="529" y="74" on="0"/>
        <pt x="480" y="53" on="1"/>
        <pt x="448" y="38" on="0"/>
        <pt x="422" y="13" on="0"/>
        <pt x="410" y="-15" on="1"/>
        <pt x="388" y="-61" on="0"/>
        <pt x="336" y="-110" on="1"/>
        <pt x="279" y="-165" on="0"/>
        <pt x="124" y="-279" on="0"/>
        <pt x="105" y="-279" on="1"/>
        <pt x="86" y="-279" on="0"/>
        <pt x="57" y="-244" on="1"/>
        <pt x="31" y="-214" on="0"/>
        <pt x="37" y="-161" on="0"/>
        <pt x="68" y="-111" on="1"/>
        <pt x="91" y="-74" on="0"/>
        <pt x="200" y="9" on="0"/>
        <pt x="227" y="9" on="1"/>
        <pt x="235" y="9" on="0"/>
        <pt x="285" y="33" on="1"/>
        <pt x="307" y="45" on="0"/>
        <pt x="331" y="63" on="0"/>
        <pt x="341" y="77" on="1"/>
        <pt x="351" y="91" on="0"/>
        <pt x="365" y="119" on="1"/>
        <pt x="404" y="194" on="0"/>
        <pt x="447" y="334" on="0"/>
        <pt x="443" y="369" on="1"/>
        <pt x="438" y="412" on="0"/>
        <pt x="431" y="418" on="1"/>
        <pt x="422" y="427" on="0"/>
        <pt x="327" y="356" on="0"/>
        <pt x="283" y="306" on="1"/>
        <pt x="228" y="241" on="0"/>
        <pt x="165" y="214" on="0"/>
        <pt x="145" y="244" on="1"/>
        <pt x="129" y="269" on="0"/>
        <pt x="158" y="363" on="0"/>
        <pt x="192" y="394" on="1"/>
        <pt x="229" y="427" on="0"/>
        <pt x="239" y="427" on="1"/>
        <pt x="245" y="427" on="0"/>
        <pt x="307" y="513" on="0"/>
        <pt x="337" y="565" on="1"/>
        <pt x="367" y="616" on="0"/>
        <pt x="372" y="636" on="1"/>
        <pt x="393" y="708" on="0"/>
        <pt x="360" y="728" on="1"/>
        <pt x="351" y="735" on="0"/>
        <pt x="313" y="724" on="0"/>
        <pt x="272" y="701" on="0"/>
        <pt x="228" y="665" on="0"/>
        <pt x="216" y="648" on="1"/>
        <pt x="190" y="611" on="0"/>
        <pt x="141" y="582" on="0"/>
        <pt x="125" y="595" on="1"/>
        <pt x="97" y="619" on="0"/>
        <pt x="138" y="674" on="1"/>
        <pt x="163" y="708" on="0"/>
        <pt x="170" y="726" on="1"/>
        <pt x="175" y="740" on="0"/>
      </contour>
    </TTGlyph>
    <TTGlyph name="a" xMin="2" yMin="-33" xMax="538" yMax="365">
      <contour>
        <pt x="502" y="96" on="1"/>
        <pt x="516" y="108" on="0"/>
        <pt x="537" y="103" on="0"/>
        <pt x="537" y="85" on="1"/>
        <pt x="538" y="80" on="0"/>
        <pt x="534" y="70" on="0"/>
        <pt x="527" y="62" on="0"/>
        <pt x="520" y="54" on="0"/>
        <pt x="510" y="46" on="0"/>
        <pt x="503" y="41" on="0"/>
        <pt x="491" y="34" on="0"/>
        <pt x="489" y="32" on="1"/>
        <pt x="474" y="22" on="0"/>
        <pt x="458" y="15" on="1"/>
        <pt x="456" y="14" on="0"/>
        <pt x="439" y="5" on="1"/>
        <pt x="434" y="1" on="1"/>
        <pt x="413" y="-19" on="0"/>
        <pt x="374" y="-24" on="1"/>
        <pt x="349" y="-27" on="0"/>
        <pt x="321" y="-22" on="0"/>
        <pt x="297" y="-11" on="1"/>
        <pt x="261" y="7" on="0"/>
        <pt x="249" y="17" on="1"/>
        <pt x="242" y="24" on="0"/>
        <pt x="230" y="22" on="0"/>
        <pt x="216" y="10" on="1"/>
        <pt x="192" y="-7" on="0"/>
        <pt x="135" y="-26" on="0"/>
        <pt x="101" y="-29" on="1"/>
        <pt x="35" y="-33" on="0"/>
        <pt x="15" y="-2" on="1"/>
        <pt x="2" y="17" on="0"/>
        <pt x="4" y="130" on="0"/>
        <pt x="18" y="154" on="1"/>
        <pt x="29" y="176" on="0"/>
        <pt x="36" y="185" on="1"/>
        <pt x="43" y="196" on="0"/>
        <pt x="49" y="205" on="1"/>
        <pt x="55" y="214" on="0"/>
        <pt x="71" y="232" on="1"/>
        <pt x="120" y="293" on="0"/>
        <pt x="148" y="316" on="1"/>
        <pt x="170" y="333" on="0"/>
        <pt x="229" y="358" on="0"/>
        <pt x="295" y="365" on="0"/>
        <pt x="320" y="352" on="1"/>
        <pt x="350" y="337" on="0"/>
        <pt x="364" y="261" on="0"/>
        <pt x="347" y="189" on="0"/>
        <pt x="332" y="158" on="1"/>
        <pt x="318" y="128" on="0"/>
        <pt x="305" y="58" on="0"/>
        <pt x="312" y="47" on="1"/>
        <pt x="327" y="17" on="0"/>
        <pt x="410" y="43" on="1"/>
        <pt x="413" y="44" on="0"/>
        <pt x="416" y="44" on="1"/>
        <pt x="421" y="46" on="0"/>
        <pt x="423" y="47" on="1"/>
        <pt x="473" y="73" on="0"/>
      </contour>
      <contour>
        <pt x="265" y="243" on="1"/>
        <pt x="273" y="247" on="0"/>
        <pt x="275" y="254" on="0"/>
        <pt x="270" y="259" on="1"/>
        <pt x="261" y="269" on="0"/>
        <pt x="226" y="275" on="0"/>
        <pt x="210" y="270" on="1"/>
        <pt x="193" y="267" on="0"/>
        <pt x="127" y="212" on="0"/>
        <pt x="115" y="192" on="1"/>
        <pt x="100" y="169" on="0"/>
        <pt x="89" y="151" on="1"/>
        <pt x="75" y="132" on="0"/>
        <pt x="66" y="60" on="0"/>
        <pt x="74" y="50" on="1"/>
        <pt x="82" y="40" on="0"/>
        <pt x="136" y="40" on="0"/>
        <pt x="159" y="49" on="1"/>
        <pt x="182" y="59" on="0"/>
        <pt x="193" y="81" on="1"/>
        <pt x="212" y="119" on="0"/>
        <pt x="223" y="141" on="1"/>
        <pt x="243" y="176" on="0"/>
        <pt x="243" y="189" on="1"/>
        <pt x="243" y="197" on="0"/>
        <pt x="257" y="213" on="0"/>
        <pt x="254" y="222" on="1"/>
        <pt x="250" y="235" on="0"/>
      </contour>
    </TTGlyph>
    <TTGlyph name="ampersand" xMin="27" yMin="-68" xMax="610" yMax="696">
      <contour>
        <pt x="298" y="188" on="1"/>
        <pt x="301" y="184" on="0"/>
        <pt x="373" y="101" on="1"/>
        <pt x="379" y="119" on="0"/>
        <pt x="401" y="173" on="0"/>
        <pt x="413" y="210" on="0"/>
        <pt x="416" y="227" on="1"/>
        <pt x="423" y="276" on="0"/>
        <pt x="388" y="307" on="0"/>
        <pt x="332" y="301" on="1"/>
        <pt x="324" y="346" on="0"/>
        <pt x="365" y="356" on="1"/>
        <pt x="366" y="356" on="0"/>
        <pt x="372" y="357" on="1"/>
        <pt x="385" y="357" on="0"/>
        <pt x="440" y="355" on="0"/>
        <pt x="480" y="358" on="0"/>
        <pt x="498" y="363" on="1"/>
        <pt x="511" y="367" on="0"/>
        <pt x="540" y="383" on="0"/>
        <pt x="563" y="399" on="0"/>
        <pt x="598" y="424" on="0"/>
        <pt x="610" y="432" on="1"/>
        <pt x="608" y="402" on="0"/>
        <pt x="581" y="358" on="0"/>
        <pt x="553" y="341" on="0"/>
        <pt x="503" y="318" on="0"/>
        <pt x="494" y="312" on="1"/>
        <pt x="449" y="142" on="0"/>
        <pt x="426" y="54" on="1"/>
        <pt x="435" y="46" on="0"/>
        <pt x="475" y="18" on="0"/>
        <pt x="499" y="-1" on="0"/>
        <pt x="521" y="-42" on="0"/>
        <pt x="522" y="-68" on="1"/>
        <pt x="514" y="-65" on="0"/>
        <pt x="482" y="-59" on="0"/>
        <pt x="461" y="-53" on="0"/>
        <pt x="452" y="-48" on="1"/>
        <pt x="450" y="-47" on="0"/>
        <pt x="445" y="-44" on="1"/>
        <pt x="416" y="-28" on="0"/>
        <pt x="386" y="-16" on="0"/>
        <pt x="332" y="-15" on="0"/>
        <pt x="304" y="-28" on="1"/>
        <pt x="254" y="-48" on="0"/>
        <pt x="146" y="-35" on="0"/>
        <pt x="93" y="-7" on="1"/>
        <pt x="58" y="11" on="0"/>
        <pt x="27" y="80" on="0"/>
        <pt x="38" y="120" on="1"/>
        <pt x="60" y="200" on="0"/>
        <pt x="96" y="266" on="1"/>
        <pt x="125" y="320" on="0"/>
        <pt x="101" y="372" on="1"/>
        <pt x="75" y="428" on="0"/>
        <pt x="67" y="470" on="1"/>
        <pt x="53" y="538" on="0"/>
        <pt x="125" y="663" on="0"/>
        <pt x="190" y="687" on="1"/>
        <pt x="217" y="696" on="0"/>
        <pt x="282" y="658" on="0"/>
        <pt x="295" y="624" on="1"/>
        <pt x="338" y="513" on="0"/>
        <pt x="274" y="416" on="1"/>
        <pt x="271" y="412" on="0"/>
        <pt x="265" y="402" on="1"/>
        <pt x="244" y="372" on="0"/>
        <pt x="228" y="347" on="0"/>
        <pt x="212" y="312" on="0"/>
        <pt x="211" y="302" on="0"/>
        <pt x="220" y="277" on="0"/>
        <pt x="231" y="265" on="0"/>
        <pt x="246" y="248" on="1"/>
        <pt x="277" y="214" on="0"/>
      </contour>
      <contour>
        <pt x="336" y="42" on="1"/>
        <pt x="304" y="77" on="0"/>
        <pt x="186" y="205" on="0"/>
        <pt x="161" y="233" on="1"/>
        <pt x="154" y="218" on="0"/>
        <pt x="133" y="173" on="0"/>
        <pt x="121" y="144" on="0"/>
        <pt x="118" y="131" on="1"/>
        <pt x="99" y="50" on="0"/>
        <pt x="188" y="19" on="1"/>
        <pt x="202" y="14" on="0"/>
        <pt x="230" y="12" on="0"/>
        <pt x="261" y="18" on="0"/>
        <pt x="285" y="25" on="0"/>
        <pt x="324" y="38" on="0"/>
      </contour>
      <contour>
        <pt x="170" y="393" on="1"/>
        <pt x="215" y="460" on="0"/>
        <pt x="228" y="561" on="0"/>
        <pt x="198" y="610" on="1"/>
        <pt x="133" y="576" on="0"/>
        <pt x="118" y="460" on="0"/>
      </contour>
    </TTGlyph>
    <TTGlyph name="asciicircum" xMin="33" yMin="526" xMax="401" yMax="852">
      <contour>
        <pt x="333" y="571" on="1"/>
        <pt x="321" y="588" on="0"/>
        <pt x="297" y="626" on="0"/>
        <pt x="258" y="692" on="0"/>
        <pt x="249" y="708" on="1"/>
        <pt x="167" y="569" on="0"/>
        <pt x="162" y="560" on="1"/>
        <pt x="149" y="539" on="0"/>
        <pt x="55" y="526" on="0"/>
        <pt x="40" y="545" on="1"/>
        <pt x="34" y="552" on="0"/>
        <pt x="33" y="582" on="0"/>
        <pt x="38" y="591" on="1"/>
        <pt x="41" y="596" on="0"/>
        <pt x="47" y="605" on="0"/>
        <pt x="59" y="616" on="0"/>
        <pt x="63" y="620" on="0"/>
        <pt x="79" y="633" on="0"/>
        <pt x="80" y="634" on="1"/>
        <pt x="163" y="702" on="0"/>
        <pt x="198" y="812" on="1"/>
        <pt x="201" y="820" on="0"/>
        <pt x="212" y="838" on="0"/>
        <pt x="227" y="851" on="0"/>
        <pt x="233" y="851" on="1"/>
        <pt x="243" y="852" on="0"/>
        <pt x="270" y="832" on="0"/>
        <pt x="276" y="820" on="1"/>
        <pt x="308" y="764" on="0"/>
        <pt x="392" y="603" on="1"/>
        <pt x="401" y="587" on="0"/>
        <pt x="392" y="559" on="0"/>
        <pt x="376" y="554" on="1"/>
        <pt x="370" y="552" on="0"/>
        <pt x="353" y="556" on="0"/>
        <pt x="337" y="566" on="0"/>
      </contour>
    </TTGlyph>
    <TTGlyph name="asciitilde" xMin="34" yMin="364" xMax="490" yMax="548">
      <contour>
        <pt x="37" y="445" on="1"/>
        <pt x="50" y="455" on="0"/>
        <pt x="87" y="498" on="0"/>
        <pt x="114" y="527" on="0"/>
        <pt x="162" y="548" on="0"/>
        <pt x="190" y="546" on="1"/>
        <pt x="197" y="543" on="0"/>
        <pt x="217" y="536" on="0"/>
        <pt x="231" y="530" on="0"/>
        <pt x="250" y="523" on="0"/>
        <pt x="257" y="519" on="1"/>
        <pt x="272" y="511" on="0"/>
        <pt x="325" y="473" on="1"/>
        <pt x="374" y="438" on="0"/>
        <pt x="410" y="482" on="1"/>
        <pt x="412" y="484" on="0"/>
        <pt x="417" y="492" on="0"/>
        <pt x="421" y="498" on="0"/>
        <pt x="426" y="504" on="0"/>
        <pt x="429" y="505" on="1"/>
        <pt x="435" y="506" on="0"/>
        <pt x="490" y="514" on="1"/>
        <pt x="489" y="504" on="0"/>
        <pt x="490" y="486" on="0"/>
        <pt x="488" y="467" on="0"/>
        <pt x="484" y="460" on="1"/>
        <pt x="462" y="419" on="0"/>
        <pt x="431" y="380" on="0"/>
        <pt x="387" y="364" on="0"/>
        <pt x="338" y="375" on="0"/>
        <pt x="294" y="392" on="1"/>
        <pt x="271" y="401" on="0"/>
        <pt x="230" y="429" on="1"/>
        <pt x="187" y="458" on="0"/>
        <pt x="142" y="456" on="0"/>
        <pt x="105" y="424" on="1"/>
        <pt x="104" y="423" on="0"/>
        <pt x="88" y="406" on="0"/>
        <pt x="83" y="404" on="1"/>
        <pt x="79" y="403" on="0"/>
        <pt x="38" y="397" on="1"/>
        <pt x="38" y="402" on="0"/>
        <pt x="34" y="428" on="0"/>
        <pt x="34" y="438" on="0"/>
      </contour>
    </TTGlyph>
    <TTGlyph name="asterisk" xMin="33" yMin="345" xMax="464" yMax="726">
      <contour>
        <pt x="104" y="495" on="1"/>
        <pt x="99" y="500" on="0"/>
        <pt x="76" y="505" on="0"/>
        <pt x="57" y="508" on="0"/>
        <pt x="38" y="520" on="0"/>
        <pt x="33" y="541" on="0"/>
        <pt x="36" y="562" on="1"/>
        <pt x="52" y="563" on="0"/>
        <pt x="110" y="567" on="0"/>
        <pt x="126" y="568" on="1"/>
        <pt x="122" y="593" on="0"/>
        <pt x="126" y="623" on="0"/>
        <pt x="147" y="657" on="0"/>
        <pt x="169" y="679" on="0"/>
        <pt x="196" y="711" on="0"/>
        <pt x="204" y="726" on="1"/>
        <pt x="215" y="719" on="0"/>
        <pt x="258" y="694" on="0"/>
        <pt x="271" y="688" on="1"/>
        <pt x="247" y="632" on="0"/>
        <pt x="236" y="603" on="1"/>
        <pt x="265" y="619" on="0"/>
        <pt x="333" y="616" on="0"/>
        <pt x="378" y="600" on="0"/>
        <pt x="440" y="582" on="0"/>
        <pt x="464" y="583" on="1"/>
        <pt x="464" y="580" on="0"/>
        <pt x="463" y="566" on="0"/>
        <pt x="463" y="563" on="1"/>
        <pt x="437" y="558" on="0"/>
        <pt x="320" y="535" on="0"/>
        <pt x="284" y="528" on="1"/>
        <pt x="335" y="480" on="0"/>
        <pt x="339" y="477" on="1"/>
        <pt x="340" y="476" on="0"/>
        <pt x="367" y="456" on="0"/>
        <pt x="372" y="449" on="1"/>
        <pt x="376" y="442" on="0"/>
        <pt x="377" y="421" on="0"/>
        <pt x="373" y="414" on="1"/>
        <pt x="370" y="408" on="0"/>
        <pt x="349" y="400" on="0"/>
        <pt x="342" y="402" on="1"/>
        <pt x="333" y="404" on="0"/>
        <pt x="261" y="428" on="1"/>
        <pt x="250" y="367" on="0"/>
        <pt x="246" y="349" on="1"/>
        <pt x="233" y="345" on="0"/>
        <pt x="210" y="352" on="0"/>
        <pt x="198" y="357" on="0"/>
        <pt x="186" y="374" on="0"/>
        <pt x="181" y="386" on="0"/>
        <pt x="173" y="406" on="0"/>
        <pt x="170" y="411" on="1"/>
        <pt x="160" y="406" on="0"/>
        <pt x="136" y="397" on="0"/>
        <pt x="103" y="383" on="0"/>
        <pt x="90" y="378" on="1"/>
        <pt x="97" y="442" on="0"/>
      </contour>
    </TTGlyph>
    <TTGlyph name="asterisk.alt1" xMin="26" yMin="145" xMax="460" yMax="565">
      <contour>
        <pt x="99" y="495" on="1"/>
        <pt x="107" y="502" on="0"/>
        <pt x="133" y="506" on="0"/>
        <pt x="176" y="507" on="0"/>
        <pt x="188" y="509" on="1"/>
        <pt x="192" y="512" on="0"/>
        <pt x="210" y="529" on="0"/>
        <pt x="226" y="541" on="0"/>
        <pt x="235" y="543" on="1"/>
        <pt x="316" y="565" on="0"/>
        <pt x="379" y="563" on="0"/>
        <pt x="440" y="535" on="1"/>
        <pt x="460" y="434" on="0"/>
        <pt x="383" y="266" on="0"/>
        <pt x="300" y="184" on="1"/>
        <pt x="259" y="145" on="0"/>
        <pt x="211" y="181" on="1"/>
        <pt x="174" y="209" on="0"/>
        <pt x="141" y="219" on="1"/>
        <pt x="109" y="230" on="0"/>
        <pt x="64" y="266" on="0"/>
        <pt x="39" y="317" on="0"/>
        <pt x="35" y="351" on="1"/>
        <pt x="26" y="426" on="0"/>
      </contour>
      <contour>
        <pt x="267" y="252" on="1"/>
        <pt x="349" y="317" on="0"/>
        <pt x="389" y="452" on="0"/>
        <pt x="344" y="520" on="1"/>
        <pt x="289" y="459" on="0"/>
        <pt x="286" y="455" on="1"/>
        <pt x="281" y="449" on="0"/>
        <pt x="228" y="375" on="1"/>
        <pt x="203" y="405" on="0"/>
        <pt x="154" y="465" on="1"/>
        <pt x="128" y="435" on="0"/>
        <pt x="127" y="434" on="1"/>
        <pt x="93" y="402" on="0"/>
        <pt x="83" y="360" on="0"/>
        <pt x="99" y="324" on="1"/>
        <pt x="116" y="286" on="0"/>
        <pt x="159" y="264" on="0"/>
        <pt x="204" y="267" on="1"/>
        <pt x="213" y="268" on="0"/>
        <pt x="232" y="263" on="0"/>
        <pt x="259" y="254" on="0"/>
      </contour>
    </TTGlyph>
    <TTGlyph name="asterisk.alt10" xMin="34" yMin="-7" xMax="930" yMax="713">
      <contour>
        <pt x="90" y="392" on="1"/>
        <pt x="77" y="380" on="1"/>
        <pt x="68" y="371" on="0"/>
        <pt x="62" y="370" on="0"/>
        <pt x="55" y="376" on="1"/>
        <pt x="49" y="381" on="0"/>
        <pt x="47" y="392" on="0"/>
        <pt x="49" y="405" on="1"/>
        <pt x="50" y="418" on="0"/>
        <pt x="49" y="427" on="0"/>
        <pt x="42" y="430" on="1"/>
        <pt x="34" y="435" on="0"/>
        <pt x="34" y="439" on="1"/>
        <pt x="34" y="447" on="0"/>
        <pt x="52" y="460" on="0"/>
        <pt x="63" y="460" on="1"/>
        <pt x="68" y="460" on="0"/>
        <pt x="74" y="461" on="0"/>
        <pt x="80" y="466" on="0"/>
        <pt x="83" y="470" on="1"/>
        <pt x="86" y="474" on="0"/>
        <pt x="90" y="480" on="1"/>
        <pt x="95" y="487" on="0"/>
        <pt x="100" y="504" on="0"/>
        <pt x="105" y="523" on="0"/>
        <pt x="108" y="530" on="1"/>
        <pt x="110" y="535" on="0"/>
        <pt x="121" y="552" on="0"/>
        <pt x="123" y="556" on="1"/>
        <pt x="128" y="561" on="0"/>
        <pt x="125" y="602" on="0"/>
        <pt x="126" y="607" on="1"/>
        <pt x="127" y="611" on="0"/>
        <pt x="139" y="645" on="0"/>
        <pt x="141" y="645" on="1"/>
        <pt x="118" y="639" on="0"/>
        <pt x="107" y="642" on="1"/>
        <pt x="91" y="648" on="0"/>
        <pt x="92" y="668" on="0"/>
        <pt x="106" y="673" on="1"/>
        <pt x="112" y="676" on="0"/>
        <pt x="145" y="675" on="0"/>
        <pt x="151" y="680" on="1"/>
        <pt x="162" y="687" on="0"/>
        <pt x="177" y="697" on="1"/>
        <pt x="192" y="707" on="0"/>
        <pt x="211" y="707" on="0"/>
        <pt x="221" y="694" on="0"/>
        <pt x="218" y="685" on="1"/>
        <pt x="215" y="673" on="0"/>
        <pt x="225" y="674" on="1"/>
        <pt x="232" y="675" on="0"/>
        <pt x="245" y="681" on="1"/>
        <pt x="259" y="689" on="0"/>
        <pt x="296" y="690" on="0"/>
        <pt x="309" y="684" on="1"/>
        <pt x="321" y="677" on="0"/>
        <pt x="331" y="662" on="1"/>
        <pt x="339" y="651" on="0"/>
        <pt x="341" y="639" on="0"/>
        <pt x="337" y="624" on="1"/>
        <pt x="328" y="578" on="0"/>
        <pt x="279" y="534" on="1"/>
        <pt x="254" y="513" on="1"/>
        <pt x="264" y="498" on="1"/>
        <pt x="272" y="483" on="0"/>
        <pt x="275" y="461" on="1"/>
        <pt x="277" y="452" on="0"/>
        <pt x="276" y="446" on="1"/>
        <pt x="275" y="439" on="0"/>
        <pt x="273" y="434" on="1"/>
        <pt x="271" y="430" on="0"/>
        <pt x="265" y="420" on="1"/>
        <pt x="247" y="394" on="0"/>
        <pt x="187" y="360" on="0"/>
        <pt x="159" y="360" on="1"/>
        <pt x="145" y="360" on="0"/>
        <pt x="137" y="363" on="1"/>
        <pt x="128" y="365" on="0"/>
        <pt x="114" y="376" on="1"/>
      </contour>
      <contour>
        <pt x="256" y="649" on="1"/>
        <pt x="227" y="653" on="0"/>
        <pt x="162" y="584" on="0"/>
        <pt x="164" y="559" on="1"/>
        <pt x="167" y="526" on="0"/>
        <pt x="213" y="541" on="1"/>
        <pt x="257" y="555" on="0"/>
        <pt x="278" y="586" on="1"/>
        <pt x="284" y="595" on="0"/>
        <pt x="285" y="603" on="1"/>
        <pt x="287" y="624" on="0"/>
        <pt x="277" y="636" on="1"/>
        <pt x="268" y="647" on="0"/>
      </contour>
      <contour>
        <pt x="146" y="490" on="1"/>
        <pt x="136" y="486" on="0"/>
        <pt x="127" y="416" on="0"/>
        <pt x="135" y="408" on="1"/>
        <pt x="141" y="402" on="0"/>
        <pt x="161" y="399" on="0"/>
        <pt x="181" y="405" on="0"/>
        <pt x="198" y="414" on="0"/>
        <pt x="205" y="419" on="1"/>
        <pt x="233" y="440" on="0"/>
        <pt x="233" y="460" on="1"/>
        <pt x="233" y="481" on="0"/>
        <pt x="225" y="489" on="1"/>
        <pt x="220" y="493" on="0"/>
        <pt x="203" y="494" on="0"/>
        <pt x="180" y="491" on="0"/>
        <pt x="172" y="492" on="1"/>
        <pt x="152" y="494" on="0"/>
      </contour>
      <contour>
        <pt x="924" y="69" on="1"/>
        <pt x="929" y="69" on="0"/>
        <pt x="930" y="62" on="0"/>
        <pt x="926" y="53" on="0"/>
        <pt x="922" y="46" on="0"/>
        <pt x="921" y="44" on="1"/>
        <pt x="911" y="33" on="0"/>
        <pt x="890" y="23" on="1"/>
        <pt x="887" y="21" on="0"/>
        <pt x="871" y="13" on="0"/>
        <pt x="862" y="8" on="0"/>
        <pt x="845" y="1" on="0"/>
        <pt x="835" y="2" on="0"/>
        <pt x="827" y="2" on="1"/>
        <pt x="798" y="10" on="0"/>
        <pt x="784" y="41" on="1"/>
        <pt x="774" y="63" on="0"/>
        <pt x="786" y="104" on="1"/>
        <pt x="793" y="127" on="0"/>
        <pt x="792" y="128" on="1"/>
        <pt x="790" y="130" on="0"/>
        <pt x="765" y="107" on="1"/>
        <pt x="741" y="85" on="0"/>
        <pt x="718" y="59" on="1"/>
        <pt x="694" y="33" on="0"/>
        <pt x="694" y="29" on="1"/>
        <pt x="694" y="26" on="0"/>
        <pt x="686" y="18" on="0"/>
        <pt x="674" y="14" on="0"/>
        <pt x="669" y="15" on="1"/>
        <pt x="662" y="15" on="0"/>
        <pt x="659" y="26" on="1"/>
        <pt x="656" y="25" on="0"/>
        <pt x="655" y="24" on="1"/>
        <pt x="648" y="20" on="0"/>
        <pt x="640" y="18" on="1"/>
        <pt x="631" y="15" on="1"/>
        <pt x="612" y="9" on="0"/>
        <pt x="591" y="10" on="1"/>
        <pt x="569" y="11" on="0"/>
        <pt x="560" y="17" on="1"/>
        <pt x="559" y="17" on="0"/>
        <pt x="543" y="26" on="0"/>
        <pt x="539" y="29" on="1"/>
        <pt x="535" y="33" on="0"/>
        <pt x="532" y="40" on="1"/>
        <pt x="531" y="39" on="0"/>
        <pt x="519" y="31" on="1"/>
        <pt x="517" y="29" on="0"/>
        <pt x="507" y="23" on="0"/>
        <pt x="504" y="21" on="1"/>
        <pt x="493" y="14" on="0"/>
        <pt x="482" y="13" on="1"/>
        <pt x="472" y="11" on="0"/>
        <pt x="466" y="13" on="1"/>
        <pt x="461" y="14" on="0"/>
        <pt x="451" y="21" on="1"/>
        <pt x="434" y="32" on="0"/>
        <pt x="426" y="45" on="1"/>
        <pt x="423" y="42" on="0"/>
        <pt x="410" y="33" on="1"/>
        <pt x="407" y="31" on="0"/>
        <pt x="397" y="24" on="0"/>
        <pt x="394" y="22" on="1"/>
        <pt x="383" y="14" on="0"/>
        <pt x="372" y="13" on="1"/>
        <pt x="361" y="11" on="0"/>
        <pt x="355" y="13" on="1"/>
        <pt x="349" y="14" on="0"/>
        <pt x="339" y="22" on="1"/>
        <pt x="313" y="41" on="0"/>
        <pt x="305" y="70" on="1"/>
        <pt x="264" y="27" on="0"/>
        <pt x="236" y="18" on="1"/>
        <pt x="214" y="8" on="0"/>
        <pt x="182" y="2" on="1"/>
        <pt x="128" y="-7" on="0"/>
        <pt x="95" y="16" on="1"/>
        <pt x="78" y="29" on="0"/>
        <pt x="74" y="66" on="0"/>
        <pt x="82" y="84" on="1"/>
        <pt x="84" y="92" on="0"/>
        <pt x="135" y="163" on="0"/>
        <pt x="140" y="156" on="1"/>
        <pt x="136" y="162" on="0"/>
        <pt x="115" y="184" on="0"/>
        <pt x="103" y="199" on="0"/>
        <pt x="94" y="221" on="0"/>
        <pt x="95" y="232" on="1"/>
        <pt x="97" y="251" on="0"/>
        <pt x="107" y="267" on="1"/>
        <pt x="116" y="282" on="0"/>
        <pt x="133" y="296" on="1"/>
        <pt x="145" y="306" on="0"/>
        <pt x="173" y="317" on="0"/>
        <pt x="201" y="323" on="1"/>
        <pt x="210" y="325" on="0"/>
        <pt x="212" y="327" on="1"/>
        <pt x="215" y="329" on="0"/>
        <pt x="214" y="335" on="1"/>
        <pt x="214" y="338" on="0"/>
        <pt x="215" y="341" on="1"/>
        <pt x="215" y="344" on="0"/>
        <pt x="217" y="347" on="1"/>
        <pt x="219" y="349" on="0"/>
        <pt x="222" y="352" on="1"/>
        <pt x="224" y="355" on="0"/>
        <pt x="227" y="356" on="1"/>
        <pt x="230" y="358" on="0"/>
        <pt x="233" y="359" on="1"/>
        <pt x="233" y="360" on="0"/>
        <pt x="241" y="363" on="0"/>
        <pt x="248" y="366" on="0"/>
        <pt x="255" y="369" on="0"/>
        <pt x="256" y="369" on="1"/>
        <pt x="258" y="369" on="0"/>
        <pt x="266" y="361" on="0"/>
        <pt x="271" y="359" on="1"/>
        <pt x="275" y="357" on="0"/>
        <pt x="278" y="353" on="0"/>
        <pt x="277" y="350" on="0"/>
        <pt x="275" y="346" on="0"/>
        <pt x="275" y="345" on="1"/>
        <pt x="275" y="343" on="0"/>
        <pt x="267" y="333" on="1"/>
        <pt x="260" y="324" on="0"/>
        <pt x="263" y="316" on="0"/>
        <pt x="275" y="313" on="1"/>
        <pt x="282" y="311" on="0"/>
        <pt x="296" y="301" on="0"/>
        <pt x="304" y="287" on="0"/>
        <pt x="305" y="275" on="0"/>
        <pt x="295" y="262" on="0"/>
        <pt x="282" y="253" on="0"/>
        <pt x="275" y="253" on="1"/>
        <pt x="257" y="253" on="0"/>
        <pt x="221" y="279" on="1"/>
        <pt x="201" y="293" on="0"/>
        <pt x="172" y="268" on="1"/>
        <pt x="158" y="258" on="0"/>
        <pt x="155" y="258" on="1"/>
        <pt x="153" y="258" on="0"/>
        <pt x="149" y="252" on="1"/>
        <pt x="146" y="246" on="0"/>
        <pt x="141" y="229" on="0"/>
        <pt x="140" y="220" on="1"/>
        <pt x="138" y="206" on="0"/>
        <pt x="153" y="194" on="0"/>
        <pt x="181" y="188" on="0"/>
        <pt x="186" y="185" on="1"/>
        <pt x="190" y="182" on="0"/>
        <pt x="194" y="177" on="1"/>
        <pt x="196" y="174" on="0"/>
        <pt x="211" y="165" on="0"/>
        <pt x="215" y="153" on="0"/>
        <pt x="215" y="144" on="0"/>
        <pt x="212" y="138" on="0"/>
        <pt x="204" y="133" on="0"/>
        <pt x="199" y="130" on="0"/>
        <pt x="187" y="126" on="0"/>
        <pt x="185" y="125" on="1"/>
        <pt x="179" y="122" on="0"/>
        <pt x="158" y="115" on="0"/>
        <pt x="149" y="111" on="0"/>
        <pt x="134" y="99" on="0"/>
        <pt x="127" y="90" on="1"/>
        <pt x="116" y="76" on="0"/>
        <pt x="117" y="67" on="1"/>
        <pt x="120" y="43" on="0"/>
        <pt x="178" y="38" on="0"/>
        <pt x="236" y="58" on="0"/>
        <pt x="259" y="70" on="1"/>
        <pt x="303" y="108" on="1"/>
        <pt x="303" y="110" on="0"/>
        <pt x="307" y="144" on="0"/>
        <pt x="308" y="151" on="0"/>
        <pt x="312" y="179" on="0"/>
        <pt x="315" y="190" on="0"/>
        <pt x="320" y="214" on="0"/>
        <pt x="324" y="229" on="0"/>
        <pt x="331" y="249" on="0"/>
        <pt x="335" y="257" on="1"/>
        <pt x="350" y="293" on="0"/>
        <pt x="370" y="310" on="1"/>
        <pt x="373" y="312" on="0"/>
        <pt x="401" y="343" on="0"/>
        <pt x="410" y="347" on="1"/>
        <pt x="422" y="354" on="0"/>
        <pt x="429" y="352" on="1"/>
        <pt x="440" y="349" on="0"/>
        <pt x="443" y="335" on="1"/>
        <pt x="444" y="331" on="0"/>
        <pt x="445" y="322" on="0"/>
        <pt x="444" y="313" on="0"/>
        <pt x="444" y="305" on="0"/>
        <pt x="441" y="294" on="0"/>
        <pt x="440" y="289" on="0"/>
        <pt x="436" y="276" on="0"/>
        <pt x="435" y="272" on="0"/>
        <pt x="430" y="258" on="0"/>
        <pt x="430" y="257" on="1"/>
        <pt x="422" y="234" on="0"/>
        <pt x="417" y="226" on="1"/>
        <pt x="413" y="222" on="0"/>
        <pt x="398" y="190" on="1"/>
        <pt x="382" y="159" on="0"/>
        <pt x="376" y="152" on="1"/>
        <pt x="367" y="144" on="0"/>
        <pt x="345" y="116" on="0"/>
        <pt x="338" y="104" on="1"/>
        <pt x="330" y="92" on="0"/>
        <pt x="330" y="89" on="1"/>
        <pt x="330" y="83" on="0"/>
        <pt x="340" y="64" on="1"/>
        <pt x="350" y="41" on="0"/>
        <pt x="365" y="41" on="1"/>
        <pt x="368" y="41" on="0"/>
        <pt x="385" y="46" on="1"/>
        <pt x="388" y="47" on="0"/>
        <pt x="397" y="52" on="1"/>
        <pt x="407" y="59" on="0"/>
        <pt x="416" y="67" on="1"/>
        <pt x="417" y="67" on="0"/>
        <pt x="417" y="67" on="1"/>
        <pt x="413" y="83" on="0"/>
        <pt x="423" y="151" on="0"/>
        <pt x="423" y="158" on="1"/>
        <pt x="427" y="222" on="0"/>
        <pt x="479" y="282" on="1"/>
        <pt x="500" y="306" on="0"/>
        <pt x="519" y="316" on="1"/>
        <pt x="531" y="322" on="0"/>
        <pt x="538" y="320" on="1"/>
        <pt x="548" y="318" on="0"/>
        <pt x="551" y="305" on="1"/>
        <pt x="552" y="301" on="0"/>
        <pt x="552" y="291" on="0"/>
        <pt x="552" y="284" on="0"/>
        <pt x="550" y="272" on="0"/>
        <pt x="549" y="267" on="0"/>
        <pt x="545" y="253" on="0"/>
        <pt x="544" y="250" on="0"/>
        <pt x="538" y="235" on="0"/>
        <pt x="538" y="234" on="1"/>
        <pt x="531" y="213" on="0"/>
        <pt x="526" y="207" on="1"/>
        <pt x="522" y="202" on="0"/>
        <pt x="507" y="174" on="1"/>
        <pt x="492" y="145" on="0"/>
        <pt x="486" y="139" on="1"/>
        <pt x="477" y="131" on="0"/>
        <pt x="467" y="119" on="1"/>
        <pt x="457" y="107" on="0"/>
        <pt x="449" y="95" on="1"/>
        <pt x="442" y="84" on="0"/>
        <pt x="442" y="82" on="1"/>
        <pt x="442" y="76" on="0"/>
        <pt x="451" y="59" on="1"/>
        <pt x="462" y="38" on="0"/>
        <pt x="476" y="38" on="1"/>
        <pt x="478" y="38" on="0"/>
        <pt x="495" y="43" on="1"/>
        <pt x="498" y="44" on="0"/>
        <pt x="514" y="53" on="0"/>
        <pt x="524" y="61" on="1"/>
        <pt x="519" y="82" on="0"/>
        <pt x="520" y="98" on="1"/>
        <pt x="522" y="111" on="0"/>
        <pt x="528" y="131" on="1"/>
        <pt x="536" y="155" on="0"/>
        <pt x="541" y="161" on="1"/>
        <pt x="548" y="169" on="0"/>
        <pt x="552" y="173" on="1"/>
        <pt x="570" y="188" on="0"/>
        <pt x="595" y="184" on="1"/>
        <pt x="620" y="179" on="0"/>
        <pt x="621" y="164" on="1"/>
        <pt x="622" y="149" on="0"/>
        <pt x="611" y="124" on="0"/>
        <pt x="582" y="87" on="0"/>
        <pt x="579" y="83" on="1"/>
        <pt x="564" y="59" on="0"/>
        <pt x="563" y="54" on="1"/>
        <pt x="563" y="50" on="0"/>
        <pt x="570" y="42" on="1"/>
        <pt x="574" y="38" on="0"/>
        <pt x="582" y="35" on="0"/>
        <pt x="592" y="36" on="1"/>
        <pt x="608" y="37" on="0"/>
        <pt x="626" y="40" on="1"/>
        <pt x="653" y="46" on="0"/>
        <pt x="664" y="53" on="1"/>
        <pt x="665" y="54" on="0"/>
        <pt x="667" y="55" on="1"/>
        <pt x="669" y="58" on="0"/>
        <pt x="669" y="58" on="1"/>
        <pt x="675" y="67" on="0"/>
        <pt x="705" y="130" on="0"/>
        <pt x="715" y="143" on="1"/>
        <pt x="717" y="145" on="0"/>
        <pt x="719" y="147" on="1"/>
        <pt x="723" y="151" on="0"/>
        <pt x="737" y="155" on="0"/>
        <pt x="742" y="153" on="1"/>
        <pt x="744" y="152" on="0"/>
        <pt x="737" y="136" on="0"/>
        <pt x="730" y="121" on="0"/>
        <pt x="731" y="120" on="1"/>
        <pt x="736" y="120" on="0"/>
        <pt x="746" y="127" on="0"/>
        <pt x="757" y="140" on="0"/>
        <pt x="760" y="142" on="1"/>
        <pt x="773" y="152" on="0"/>
        <pt x="810" y="168" on="0"/>
        <pt x="823" y="166" on="1"/>
        <pt x="826" y="165" on="0"/>
        <pt x="832" y="160" on="1"/>
        <pt x="840" y="153" on="0"/>
        <pt x="840" y="131" on="0"/>
        <pt x="833" y="122" on="1"/>
        <pt x="827" y="113" on="0"/>
        <pt x="810" y="65" on="0"/>
        <pt x="810" y="56" on="1"/>
        <pt x="810" y="50" on="0"/>
        <pt x="819" y="34" on="0"/>
        <pt x="831" y="24" on="0"/>
        <pt x="836" y="24" on="1"/>
        <pt x="849" y="24" on="0"/>
        <pt x="875" y="40" on="1"/>
        <pt x="899" y="54" on="0"/>
        <pt x="909" y="62" on="1"/>
        <pt x="920" y="70" on="0"/>
      </contour>
      <contour>
        <pt x="455" y="174" on="1"/>
        <pt x="450" y="156" on="0"/>
        <pt x="453" y="153" on="1"/>
        <pt x="455" y="152" on="0"/>
        <pt x="458" y="155" on="1"/>
        <pt x="462" y="160" on="0"/>
        <pt x="467" y="168" on="1"/>
        <pt x="472" y="176" on="0"/>
        <pt x="478" y="188" on="1"/>
        <pt x="488" y="208" on="0"/>
        <pt x="488" y="210" on="1"/>
        <pt x="488" y="211" on="0"/>
        <pt x="498" y="232" on="1"/>
        <pt x="518" y="273" on="0"/>
        <pt x="518" y="276" on="1"/>
        <pt x="518" y="285" on="0"/>
        <pt x="510" y="278" on="1"/>
        <pt x="507" y="276" on="0"/>
        <pt x="489" y="245" on="1"/>
        <pt x="486" y="241" on="0"/>
        <pt x="477" y="226" on="0"/>
        <pt x="470" y="213" on="0"/>
        <pt x="468" y="207" on="1"/>
        <pt x="467" y="201" on="0"/>
        <pt x="456" y="180" on="0"/>
      </contour>
      <contour>
        <pt x="348" y="211" on="0"/>
        <pt x="339" y="170" on="0"/>
        <pt x="342" y="167" on="1"/>
        <pt x="343" y="166" on="0"/>
        <pt x="351" y="175" on="0"/>
        <pt x="356" y="184" on="1"/>
        <pt x="361" y="193" on="0"/>
        <pt x="367" y="206" on="1"/>
        <pt x="378" y="228" on="0"/>
        <pt x="378" y="231" on="1"/>
        <pt x="378" y="232" on="0"/>
        <pt x="388" y="254" on="1"/>
        <pt x="409" y="299" on="0"/>
        <pt x="409" y="301" on="1"/>
        <pt x="409" y="310" on="0"/>
        <pt x="400" y="303" on="1"/>
        <pt x="394" y="298" on="0"/>
        <pt x="379" y="269" on="1"/>
        <pt x="370" y="252" on="0"/>
        <pt x="363" y="243" on="1"/>
        <pt x="357" y="235" on="0"/>
        <pt x="357" y="226" on="1"/>
        <pt x="357" y="219" on="0"/>
        <pt x="352" y="214" on="1"/>
      </contour>
      <contour>
        <pt x="553" y="95" on="1"/>
        <pt x="556" y="95" on="0"/>
        <pt x="580" y="140" on="0"/>
        <pt x="580" y="145" on="1"/>
        <pt x="580" y="151" on="0"/>
        <pt x="568" y="154" on="0"/>
        <pt x="564" y="149" on="1"/>
        <pt x="561" y="146" on="0"/>
        <pt x="558" y="139" on="1"/>
        <pt x="555" y="132" on="0"/>
        <pt x="554" y="125" on="1"/>
        <pt x="552" y="117" on="0"/>
        <pt x="551" y="111" on="1"/>
        <pt x="550" y="104" on="0"/>
        <pt x="551" y="95" on="0"/>
      </contour>
      <contour>
        <pt x="389" y="522" on="1"/>
        <pt x="391" y="507" on="0"/>
        <pt x="383" y="481" on="0"/>
        <pt x="358" y="443" on="0"/>
        <pt x="356" y="439" on="1"/>
        <pt x="343" y="414" on="0"/>
        <pt x="343" y="410" on="1"/>
        <pt x="343" y="406" on="0"/>
        <pt x="350" y="399" on="1"/>
        <pt x="355" y="395" on="0"/>
        <pt x="359" y="394" on="1"/>
        <pt x="363" y="393" on="0"/>
        <pt x="372" y="395" on="1"/>
        <pt x="387" y="397" on="0"/>
        <pt x="405" y="402" on="1"/>
        <pt x="431" y="410" on="0"/>
        <pt x="440" y="418" on="1"/>
        <pt x="443" y="419" on="0"/>
        <pt x="445" y="421" on="1"/>
        <pt x="444" y="439" on="0"/>
        <pt x="446" y="458" on="1"/>
        <pt x="446" y="459" on="0"/>
        <pt x="452" y="509" on="0"/>
        <pt x="458" y="557" on="0"/>
        <pt x="457" y="557" on="1"/>
        <pt x="454" y="560" on="0"/>
        <pt x="444" y="560" on="1"/>
        <pt x="419" y="562" on="0"/>
        <pt x="404" y="562" on="1"/>
        <pt x="390" y="561" on="0"/>
        <pt x="384" y="563" on="1"/>
        <pt x="382" y="563" on="0"/>
        <pt x="374" y="563" on="0"/>
        <pt x="367" y="563" on="0"/>
        <pt x="367" y="565" on="1"/>
        <pt x="367" y="570" on="0"/>
        <pt x="371" y="572" on="1"/>
        <pt x="371" y="572" on="0"/>
        <pt x="378" y="577" on="0"/>
        <pt x="386" y="581" on="0"/>
        <pt x="400" y="585" on="0"/>
        <pt x="406" y="584" on="1"/>
        <pt x="419" y="583" on="0"/>
        <pt x="465" y="584" on="0"/>
        <pt x="469" y="584" on="1"/>
        <pt x="471" y="585" on="0"/>
        <pt x="471" y="585" on="1"/>
        <pt x="471" y="586" on="0"/>
        <pt x="473" y="588" on="1"/>
        <pt x="480" y="596" on="0"/>
        <pt x="493" y="629" on="1"/>
        <pt x="501" y="648" on="0"/>
        <pt x="509" y="665" on="0"/>
        <pt x="529" y="695" on="0"/>
        <pt x="539" y="700" on="1"/>
        <pt x="564" y="713" on="0"/>
        <pt x="564" y="698" on="1"/>
        <pt x="564" y="693" on="0"/>
        <pt x="549" y="655" on="1"/>
        <pt x="548" y="652" on="0"/>
        <pt x="548" y="650" on="1"/>
        <pt x="546" y="645" on="0"/>
        <pt x="543" y="629" on="0"/>
        <pt x="539" y="621" on="1"/>
        <pt x="536" y="616" on="0"/>
        <pt x="528" y="600" on="1"/>
        <pt x="522" y="589" on="0"/>
        <pt x="524" y="587" on="1"/>
        <pt x="525" y="585" on="0"/>
        <pt x="553" y="581" on="1"/>
        <pt x="573" y="579" on="0"/>
        <pt x="576" y="578" on="1"/>
        <pt x="581" y="576" on="0"/>
        <pt x="580" y="572" on="1"/>
        <pt x="579" y="566" on="0"/>
        <pt x="574" y="567" on="1"/>
        <pt x="571" y="567" on="0"/>
        <pt x="565" y="567" on="1"/>
        <pt x="554" y="567" on="0"/>
        <pt x="549" y="566" on="1"/>
        <pt x="540" y="566" on="0"/>
        <pt x="531" y="564" on="1"/>
        <pt x="522" y="563" on="0"/>
        <pt x="516" y="563" on="1"/>
        <pt x="513" y="562" on="0"/>
        <pt x="502" y="524" on="0"/>
        <pt x="490" y="469" on="0"/>
        <pt x="487" y="459" on="1"/>
        <pt x="472" y="412" on="0"/>
        <pt x="491" y="394" on="1"/>
        <pt x="499" y="386" on="0"/>
        <pt x="506" y="387" on="1"/>
        <pt x="510" y="387" on="0"/>
        <pt x="516" y="390" on="1"/>
        <pt x="517" y="391" on="0"/>
        <pt x="549" y="405" on="1"/>
        <pt x="604" y="430" on="0"/>
        <pt x="650" y="467" on="1"/>
        <pt x="651" y="477" on="0"/>
        <pt x="652" y="483" on="1"/>
        <pt x="658" y="507" on="0"/>
        <pt x="674" y="549" on="1"/>
        <pt x="676" y="555" on="0"/>
        <pt x="693" y="624" on="0"/>
        <pt x="716" y="666" on="0"/>
        <pt x="737" y="671" on="1"/>
        <pt x="750" y="674" on="0"/>
        <pt x="765" y="662" on="0"/>
        <pt x="767" y="638" on="0"/>
        <pt x="765" y="617" on="0"/>
        <pt x="763" y="607" on="1"/>
        <pt x="760" y="596" on="0"/>
        <pt x="752" y="579" on="1"/>
        <pt x="744" y="564" on="0"/>
        <pt x="741" y="557" on="1"/>
        <pt x="737" y="545" on="0"/>
        <pt x="728" y="532" on="1"/>
        <pt x="724" y="527" on="0"/>
        <pt x="709" y="501" on="0"/>
        <pt x="705" y="495" on="1"/>
        <pt x="697" y="485" on="0"/>
        <pt x="690" y="477" on="1"/>
        <pt x="689" y="476" on="0"/>
        <pt x="683" y="471" on="0"/>
        <pt x="679" y="466" on="0"/>
        <pt x="678" y="464" on="1"/>
        <pt x="678" y="463" on="0"/>
        <pt x="679" y="460" on="0"/>
        <pt x="680" y="461" on="1"/>
        <pt x="681" y="461" on="0"/>
        <pt x="682" y="461" on="1"/>
        <pt x="685" y="463" on="0"/>
        <pt x="694" y="472" on="0"/>
        <pt x="701" y="478" on="0"/>
        <pt x="706" y="478" on="1"/>
        <pt x="706" y="478" on="0"/>
        <pt x="711" y="479" on="1"/>
        <pt x="725" y="480" on="0"/>
        <pt x="742" y="472" on="0"/>
        <pt x="748" y="461" on="1"/>
        <pt x="753" y="450" on="0"/>
        <pt x="753" y="435" on="1"/>
        <pt x="753" y="422" on="0"/>
        <pt x="761" y="387" on="0"/>
        <pt x="766" y="379" on="1"/>
        <pt x="769" y="373" on="0"/>
        <pt x="773" y="372" on="1"/>
        <pt x="777" y="371" on="0"/>
        <pt x="787" y="373" on="1"/>
        <pt x="800" y="375" on="0"/>
        <pt x="809" y="378" on="1"/>
        <pt x="831" y="389" on="0"/>
        <pt x="844" y="400" on="1"/>
        <pt x="862" y="413" on="0"/>
        <pt x="862" y="394" on="1"/>
        <pt x="862" y="392" on="0"/>
        <pt x="860" y="387" on="0"/>
        <pt x="857" y="383" on="0"/>
        <pt x="853" y="379" on="0"/>
        <pt x="848" y="375" on="0"/>
        <pt x="844" y="372" on="0"/>
        <pt x="839" y="369" on="0"/>
        <pt x="838" y="368" on="1"/>
        <pt x="837" y="368" on="0"/>
        <pt x="836" y="367" on="0"/>
        <pt x="836" y="367" on="1"/>
        <pt x="835" y="366" on="0"/>
        <pt x="832" y="364" on="0"/>
        <pt x="831" y="364" on="1"/>
        <pt x="820" y="356" on="0"/>
        <pt x="811" y="353" on="1"/>
        <pt x="803" y="351" on="0"/>
        <pt x="790" y="349" on="1"/>
        <pt x="757" y="346" on="0"/>
        <pt x="725" y="383" on="0"/>
        <pt x="718" y="433" on="1"/>
        <pt x="716" y="449" on="0"/>
        <pt x="714" y="449" on="1"/>
        <pt x="712" y="449" on="0"/>
        <pt x="691" y="431" on="1"/>
        <pt x="678" y="420" on="0"/>
        <pt x="674" y="413" on="1"/>
        <pt x="671" y="411" on="0"/>
        <pt x="667" y="403" on="0"/>
        <pt x="663" y="391" on="0"/>
        <pt x="661" y="387" on="0"/>
        <pt x="658" y="380" on="0"/>
        <pt x="658" y="378" on="1"/>
        <pt x="657" y="376" on="0"/>
        <pt x="654" y="368" on="0"/>
        <pt x="653" y="366" on="1"/>
        <pt x="652" y="363" on="0"/>
        <pt x="651" y="350" on="0"/>
        <pt x="647" y="342" on="0"/>
        <pt x="641" y="342" on="1"/>
        <pt x="630" y="340" on="0"/>
        <pt x="622" y="351" on="1"/>
        <pt x="616" y="359" on="0"/>
        <pt x="616" y="366" on="0"/>
        <pt x="620" y="375" on="1"/>
        <pt x="621" y="378" on="0"/>
        <pt x="621" y="379" on="1"/>
        <pt x="632" y="410" on="0"/>
        <pt x="639" y="423" on="1"/>
        <pt x="643" y="430" on="0"/>
        <pt x="645" y="439" on="1"/>
        <pt x="578" y="384" on="0"/>
        <pt x="529" y="367" on="1"/>
        <pt x="526" y="366" on="0"/>
        <pt x="526" y="366" on="1"/>
        <pt x="517" y="363" on="0"/>
        <pt x="508" y="361" on="1"/>
        <pt x="507" y="361" on="1"/>
        <pt x="476" y="356" on="0"/>
        <pt x="462" y="369" on="1"/>
        <pt x="453" y="378" on="0"/>
        <pt x="448" y="399" on="1"/>
        <pt x="447" y="397" on="0"/>
        <pt x="435" y="389" on="1"/>
        <pt x="427" y="384" on="0"/>
        <pt x="420" y="381" on="1"/>
        <pt x="412" y="378" on="1"/>
        <pt x="394" y="371" on="0"/>
        <pt x="373" y="369" on="1"/>
        <pt x="352" y="368" on="0"/>
        <pt x="343" y="373" on="1"/>
        <pt x="341" y="374" on="0"/>
        <pt x="325" y="381" on="0"/>
        <pt x="322" y="383" on="1"/>
        <pt x="315" y="388" on="0"/>
        <pt x="309" y="402" on="1"/>
        <pt x="298" y="428" on="0"/>
        <pt x="298" y="448" on="1"/>
        <pt x="298" y="461" on="0"/>
        <pt x="302" y="481" on="1"/>
        <pt x="308" y="505" on="0"/>
        <pt x="312" y="511" on="1"/>
        <pt x="318" y="520" on="0"/>
        <pt x="322" y="524" on="1"/>
        <pt x="338" y="540" on="0"/>
        <pt x="362" y="538" on="1"/>
        <pt x="387" y="536" on="0"/>
      </contour>
      <contour>
        <pt x="684" y="526" on="1"/>
        <pt x="680" y="508" on="0"/>
        <pt x="684" y="505" on="1"/>
        <pt x="685" y="504" on="0"/>
        <pt x="688" y="508" on="1"/>
        <pt x="692" y="513" on="0"/>
        <pt x="696" y="521" on="1"/>
        <pt x="701" y="530" on="0"/>
        <pt x="705" y="542" on="1"/>
        <pt x="714" y="563" on="0"/>
        <pt x="714" y="565" on="1"/>
        <pt x="714" y="566" on="0"/>
        <pt x="722" y="587" on="1"/>
        <pt x="739" y="630" on="0"/>
        <pt x="739" y="633" on="1"/>
        <pt x="738" y="642" on="0"/>
        <pt x="730" y="634" on="1"/>
        <pt x="728" y="632" on="0"/>
        <pt x="712" y="600" on="1"/>
        <pt x="710" y="595" on="0"/>
        <pt x="701" y="579" on="0"/>
        <pt x="696" y="567" on="0"/>
        <pt x="695" y="560" on="1"/>
        <pt x="694" y="554" on="0"/>
        <pt x="685" y="532" on="0"/>
      </contour>
      <contour>
        <pt x="330" y="438" on="0"/>
        <pt x="353" y="484" on="0"/>
        <pt x="353" y="488" on="1"/>
        <pt x="353" y="494" on="0"/>
        <pt x="341" y="497" on="0"/>
        <pt x="338" y="493" on="1"/>
        <pt x="335" y="489" on="0"/>
        <pt x="332" y="482" on="1"/>
        <pt x="329" y="475" on="0"/>
        <pt x="327" y="468" on="1"/>
        <pt x="326" y="460" on="0"/>
        <pt x="325" y="454" on="1"/>
        <pt x="324" y="447" on="0"/>
        <pt x="324" y="443" on="1"/>
        <pt x="325" y="438" on="0"/>
        <pt x="327" y="438" on="1"/>
      </contour>
    </TTGlyph>
    <TTGlyph name="asterisk.alt11" xMin="34" yMin="0" xMax="880" yMax="789">
      <contour>
        <pt x="491" y="78" on="1"/>
        <pt x="594" y="95" on="0"/>
        <pt x="594" y="75" on="1"/>
        <pt x="594" y="72" on="0"/>
        <pt x="585" y="70" on="0"/>
        <pt x="571" y="69" on="1"/>
        <pt x="549" y="68" on="0"/>
        <pt x="522" y="62" on="1"/>
        <pt x="492" y="55" on="0"/>
        <pt x="484" y="54" on="1"/>
        <pt x="469" y="52" on="0"/>
        <pt x="453" y="39" on="0"/>
        <pt x="445" y="22" on="1"/>
        <pt x="438" y="9" on="0"/>
        <pt x="431" y="0" on="0"/>
        <pt x="426" y="0" on="1"/>
        <pt x="412" y="0" on="0"/>
        <pt x="409" y="22" on="1"/>
        <pt x="407" y="35" on="1"/>
        <pt x="383" y="33" on="1"/>
        <pt x="362" y="32" on="0"/>
        <pt x="346" y="40" on="0"/>
        <pt x="346" y="51" on="1"/>
        <pt x="346" y="56" on="0"/>
        <pt x="347" y="57" on="1"/>
        <pt x="349" y="58" on="0"/>
        <pt x="355" y="56" on="1"/>
        <pt x="364" y="54" on="0"/>
        <pt x="388" y="54" on="1"/>
        <pt x="412" y="54" on="0"/>
        <pt x="429" y="64" on="0"/>
        <pt x="437" y="84" on="1"/>
        <pt x="455" y="125" on="0"/>
        <pt x="486" y="191" on="1"/>
        <pt x="521" y="267" on="0"/>
        <pt x="519" y="270" on="1"/>
        <pt x="518" y="270" on="0"/>
        <pt x="494" y="251" on="1"/>
        <pt x="472" y="234" on="0"/>
        <pt x="457" y="247" on="1"/>
        <pt x="449" y="253" on="1"/>
        <pt x="457" y="266" on="1"/>
        <pt x="465" y="280" on="0"/>
        <pt x="477" y="293" on="1"/>
        <pt x="489" y="307" on="0"/>
        <pt x="489" y="316" on="0"/>
        <pt x="495" y="316" on="1"/>
        <pt x="500" y="316" on="0"/>
        <pt x="511" y="322" on="1"/>
        <pt x="520" y="329" on="0"/>
        <pt x="547" y="329" on="1"/>
        <pt x="549" y="329" on="0"/>
        <pt x="562" y="330" on="0"/>
        <pt x="571" y="329" on="0"/>
        <pt x="573" y="326" on="1"/>
        <pt x="576" y="323" on="0"/>
        <pt x="577" y="309" on="0"/>
        <pt x="573" y="287" on="0"/>
        <pt x="573" y="287" on="1"/>
        <pt x="572" y="280" on="0"/>
        <pt x="571" y="278" on="1"/>
        <pt x="569" y="274" on="0"/>
        <pt x="567" y="272" on="1"/>
        <pt x="561" y="266" on="0"/>
        <pt x="557" y="253" on="1"/>
        <pt x="555" y="243" on="0"/>
        <pt x="533" y="203" on="0"/>
        <pt x="531" y="196" on="1"/>
        <pt x="525" y="180" on="0"/>
        <pt x="512" y="169" on="0"/>
        <pt x="512" y="165" on="1"/>
        <pt x="512" y="161" on="0"/>
        <pt x="507" y="157" on="1"/>
        <pt x="505" y="154" on="0"/>
        <pt x="500" y="143" on="1"/>
        <pt x="498" y="140" on="0"/>
        <pt x="491" y="123" on="1"/>
        <pt x="486" y="112" on="0"/>
        <pt x="483" y="109" on="1"/>
        <pt x="477" y="103" on="0"/>
        <pt x="467" y="79" on="0"/>
        <pt x="470" y="77" on="1"/>
        <pt x="472" y="75" on="0"/>
      </contour>
      <contour>
        <pt x="366" y="191" on="1"/>
        <pt x="360" y="191" on="0"/>
        <pt x="349" y="201" on="0"/>
        <pt x="346" y="209" on="1"/>
        <pt x="343" y="216" on="0"/>
        <pt x="355" y="230" on="0"/>
        <pt x="364" y="232" on="1"/>
        <pt x="366" y="232" on="0"/>
        <pt x="370" y="232" on="1"/>
        <pt x="375" y="233" on="0"/>
        <pt x="376" y="233" on="1"/>
        <pt x="377" y="233" on="1"/>
        <pt x="379" y="233" on="1"/>
        <pt x="381" y="233" on="0"/>
        <pt x="386" y="228" on="0"/>
        <pt x="390" y="220" on="0"/>
        <pt x="390" y="213" on="0"/>
        <pt x="381" y="200" on="0"/>
        <pt x="375" y="196" on="1"/>
        <pt x="369" y="191" on="0"/>
      </contour>
      <contour>
        <pt x="302" y="333" on="0"/>
        <pt x="318" y="323" on="0"/>
        <pt x="321" y="317" on="0"/>
        <pt x="319" y="303" on="1"/>
        <pt x="316" y="284" on="0"/>
        <pt x="314" y="279" on="1"/>
        <pt x="311" y="273" on="0"/>
        <pt x="311" y="265" on="1"/>
        <pt x="311" y="255" on="0"/>
        <pt x="299" y="237" on="0"/>
        <pt x="285" y="223" on="1"/>
        <pt x="268" y="206" on="0"/>
        <pt x="268" y="204" on="1"/>
        <pt x="268" y="201" on="0"/>
        <pt x="279" y="196" on="1"/>
        <pt x="289" y="191" on="0"/>
        <pt x="303" y="178" on="1"/>
        <pt x="323" y="158" on="0"/>
        <pt x="311" y="119" on="1"/>
        <pt x="308" y="109" on="0"/>
        <pt x="289" y="88" on="0"/>
        <pt x="273" y="76" on="0"/>
        <pt x="242" y="57" on="0"/>
        <pt x="238" y="54" on="1"/>
        <pt x="219" y="42" on="0"/>
        <pt x="212" y="39" on="1"/>
        <pt x="205" y="36" on="0"/>
        <pt x="199" y="37" on="1"/>
        <pt x="190" y="39" on="0"/>
        <pt x="179" y="35" on="1"/>
        <pt x="172" y="33" on="0"/>
        <pt x="161" y="34" on="0"/>
        <pt x="151" y="37" on="1"/>
        <pt x="139" y="41" on="0"/>
        <pt x="133" y="47" on="0"/>
        <pt x="131" y="55" on="1"/>
        <pt x="128" y="66" on="0"/>
        <pt x="133" y="71" on="1"/>
        <pt x="136" y="74" on="0"/>
        <pt x="141" y="72" on="0"/>
        <pt x="156" y="61" on="0"/>
        <pt x="165" y="58" on="0"/>
        <pt x="173" y="60" on="1"/>
        <pt x="211" y="66" on="0"/>
        <pt x="244" y="101" on="1"/>
        <pt x="269" y="126" on="0"/>
        <pt x="278" y="159" on="0"/>
        <pt x="264" y="170" on="1"/>
        <pt x="257" y="177" on="0"/>
        <pt x="249" y="179" on="0"/>
        <pt x="239" y="177" on="1"/>
        <pt x="225" y="176" on="0"/>
        <pt x="217" y="170" on="1"/>
        <pt x="202" y="161" on="0"/>
        <pt x="192" y="172" on="1"/>
        <pt x="184" y="181" on="0"/>
        <pt x="189" y="189" on="1"/>
        <pt x="194" y="198" on="0"/>
        <pt x="214" y="208" on="1"/>
        <pt x="246" y="225" on="0"/>
        <pt x="285" y="282" on="0"/>
        <pt x="278" y="301" on="1"/>
        <pt x="276" y="306" on="0"/>
        <pt x="270" y="308" on="0"/>
        <pt x="260" y="306" on="1"/>
        <pt x="247" y="303" on="0"/>
        <pt x="227" y="291" on="1"/>
        <pt x="208" y="278" on="0"/>
        <pt x="204" y="269" on="1"/>
        <pt x="201" y="263" on="0"/>
        <pt x="194" y="260" on="0"/>
        <pt x="184" y="260" on="1"/>
        <pt x="175" y="260" on="0"/>
        <pt x="165" y="263" on="0"/>
        <pt x="161" y="270" on="0"/>
        <pt x="161" y="276" on="1"/>
        <pt x="161" y="284" on="0"/>
        <pt x="168" y="293" on="1"/>
        <pt x="176" y="302" on="0"/>
        <pt x="187" y="307" on="1"/>
        <pt x="242" y="332" on="0"/>
        <pt x="252" y="335" on="1"/>
        <pt x="262" y="338" on="0"/>
        <pt x="282" y="336" on="1"/>
      </contour>
      <contour>
        <pt x="385" y="119" on="1"/>
        <pt x="373" y="96" on="0"/>
        <pt x="350" y="111" on="1"/>
        <pt x="345" y="114" on="0"/>
        <pt x="340" y="119" on="0"/>
        <pt x="337" y="125" on="0"/>
        <pt x="337" y="129" on="1"/>
        <pt x="337" y="138" on="0"/>
        <pt x="343" y="141" on="1"/>
        <pt x="351" y="146" on="0"/>
        <pt x="377" y="144" on="0"/>
        <pt x="383" y="137" on="1"/>
        <pt x="388" y="131" on="0"/>
        <pt x="389" y="126" on="0"/>
      </contour>
      <contour>
        <pt x="778" y="171" on="1"/>
        <pt x="803" y="169" on="0"/>
        <pt x="810" y="163" on="1"/>
        <pt x="818" y="157" on="0"/>
        <pt x="818" y="139" on="1"/>
        <pt x="818" y="123" on="1"/>
        <pt x="786" y="93" on="1"/>
        <pt x="755" y="63" on="0"/>
        <pt x="749" y="63" on="1"/>
        <pt x="744" y="63" on="0"/>
        <pt x="739" y="58" on="1"/>
        <pt x="732" y="49" on="0"/>
        <pt x="692" y="45" on="1"/>
        <pt x="673" y="42" on="0"/>
        <pt x="667" y="39" on="1"/>
        <pt x="656" y="33" on="0"/>
        <pt x="630" y="50" on="0"/>
        <pt x="632" y="61" on="1"/>
        <pt x="634" y="70" on="0"/>
        <pt x="630" y="87" on="1"/>
        <pt x="626" y="103" on="0"/>
        <pt x="626" y="115" on="1"/>
        <pt x="626" y="127" on="0"/>
        <pt x="630" y="145" on="1"/>
        <pt x="635" y="163" on="0"/>
        <pt x="639" y="173" on="1"/>
        <pt x="644" y="185" on="0"/>
        <pt x="659" y="216" on="1"/>
        <pt x="678" y="255" on="0"/>
        <pt x="694" y="279" on="1"/>
        <pt x="701" y="292" on="0"/>
        <pt x="705" y="307" on="1"/>
        <pt x="708" y="317" on="0"/>
        <pt x="710" y="319" on="1"/>
        <pt x="713" y="322" on="0"/>
        <pt x="720" y="325" on="1"/>
        <pt x="731" y="327" on="0"/>
        <pt x="734" y="330" on="1"/>
        <pt x="738" y="334" on="0"/>
        <pt x="756" y="332" on="0"/>
        <pt x="760" y="327" on="1"/>
        <pt x="764" y="323" on="0"/>
        <pt x="764" y="317" on="0"/>
        <pt x="761" y="310" on="1"/>
        <pt x="756" y="300" on="0"/>
        <pt x="743" y="283" on="1"/>
        <pt x="733" y="271" on="0"/>
        <pt x="723" y="254" on="1"/>
        <pt x="715" y="238" on="0"/>
        <pt x="707" y="227" on="1"/>
        <pt x="697" y="212" on="0"/>
        <pt x="697" y="204" on="0"/>
        <pt x="692" y="200" on="1"/>
        <pt x="688" y="196" on="0"/>
        <pt x="681" y="182" on="1"/>
        <pt x="674" y="167" on="0"/>
        <pt x="666" y="141" on="1"/>
        <pt x="658" y="117" on="0"/>
        <pt x="660" y="114" on="1"/>
        <pt x="660" y="114" on="0"/>
        <pt x="664" y="116" on="1"/>
        <pt x="668" y="119" on="0"/>
        <pt x="675" y="124" on="1"/>
        <pt x="682" y="129" on="0"/>
        <pt x="690" y="135" on="1"/>
        <pt x="717" y="157" on="0"/>
        <pt x="734" y="166" on="1"/>
        <pt x="746" y="170" on="0"/>
        <pt x="760" y="172" on="0"/>
      </contour>
      <contour>
        <pt x="741" y="96" on="1"/>
        <pt x="770" y="117" on="0"/>
        <pt x="772" y="122" on="1"/>
        <pt x="772" y="126" on="0"/>
        <pt x="768" y="128" on="0"/>
        <pt x="760" y="127" on="1"/>
        <pt x="749" y="127" on="0"/>
        <pt x="731" y="117" on="1"/>
        <pt x="712" y="107" on="0"/>
        <pt x="697" y="93" on="1"/>
        <pt x="678" y="74" on="0"/>
        <pt x="690" y="73" on="1"/>
        <pt x="704" y="72" on="0"/>
      </contour>
      <contour>
        <pt x="871" y="467" on="0"/>
        <pt x="879" y="467" on="0"/>
        <pt x="880" y="457" on="1"/>
        <pt x="880" y="453" on="0"/>
        <pt x="873" y="443" on="0"/>
        <pt x="868" y="438" on="1"/>
        <pt x="863" y="433" on="0"/>
        <pt x="855" y="427" on="1"/>
        <pt x="849" y="422" on="0"/>
        <pt x="840" y="419" on="1"/>
        <pt x="835" y="416" on="0"/>
        <pt x="812" y="404" on="1"/>
        <pt x="794" y="397" on="0"/>
        <pt x="763" y="409" on="0"/>
        <pt x="752" y="424" on="1"/>
        <pt x="733" y="450" on="0"/>
        <pt x="747" y="501" on="1"/>
        <pt x="749" y="508" on="0"/>
        <pt x="755" y="519" on="0"/>
        <pt x="759" y="524" on="0"/>
        <pt x="759" y="524" on="1"/>
        <pt x="758" y="524" on="0"/>
        <pt x="754" y="524" on="0"/>
        <pt x="746" y="522" on="0"/>
        <pt x="737" y="519" on="0"/>
        <pt x="727" y="512" on="0"/>
        <pt x="723" y="507" on="1"/>
        <pt x="714" y="499" on="0"/>
        <pt x="689" y="463" on="0"/>
        <pt x="683" y="456" on="1"/>
        <pt x="676" y="449" on="0"/>
        <pt x="657" y="419" on="0"/>
        <pt x="644" y="397" on="0"/>
        <pt x="644" y="395" on="1"/>
        <pt x="644" y="392" on="0"/>
        <pt x="637" y="384" on="0"/>
        <pt x="626" y="379" on="0"/>
        <pt x="621" y="380" on="1"/>
        <pt x="614" y="381" on="0"/>
        <pt x="612" y="392" on="1"/>
        <pt x="610" y="399" on="0"/>
        <pt x="611" y="405" on="1"/>
        <pt x="612" y="407" on="0"/>
        <pt x="615" y="413" on="1"/>
        <pt x="605" y="411" on="0"/>
        <pt x="599" y="410" on="1"/>
        <pt x="567" y="407" on="0"/>
        <pt x="536" y="444" on="0"/>
        <pt x="529" y="495" on="1"/>
        <pt x="527" y="511" on="0"/>
        <pt x="525" y="511" on="1"/>
        <pt x="523" y="511" on="0"/>
        <pt x="503" y="492" on="1"/>
        <pt x="491" y="481" on="0"/>
        <pt x="486" y="475" on="1"/>
        <pt x="484" y="473" on="0"/>
        <pt x="476" y="450" on="1"/>
        <pt x="475" y="449" on="0"/>
        <pt x="471" y="439" on="1"/>
        <pt x="471" y="439" on="0"/>
        <pt x="466" y="427" on="1"/>
        <pt x="465" y="424" on="0"/>
        <pt x="464" y="411" on="0"/>
        <pt x="460" y="403" on="0"/>
        <pt x="455" y="402" on="1"/>
        <pt x="444" y="401" on="0"/>
        <pt x="436" y="412" on="1"/>
        <pt x="431" y="419" on="0"/>
        <pt x="430" y="427" on="0"/>
        <pt x="434" y="436" on="1"/>
        <pt x="435" y="439" on="0"/>
        <pt x="436" y="440" on="1"/>
        <pt x="436" y="442" on="0"/>
        <pt x="437" y="443" on="1"/>
        <pt x="429" y="444" on="0"/>
        <pt x="425" y="447" on="1"/>
        <pt x="422" y="449" on="0"/>
        <pt x="419" y="454" on="1"/>
        <pt x="418" y="455" on="1"/>
        <pt x="412" y="463" on="0"/>
        <pt x="406" y="459" on="1"/>
        <pt x="401" y="456" on="0"/>
        <pt x="397" y="442" on="1"/>
        <pt x="394" y="434" on="0"/>
        <pt x="393" y="432" on="1"/>
        <pt x="388" y="422" on="0"/>
        <pt x="384" y="420" on="1"/>
        <pt x="378" y="417" on="0"/>
        <pt x="369" y="409" on="1"/>
        <pt x="358" y="400" on="0"/>
        <pt x="347" y="398" on="1"/>
        <pt x="334" y="395" on="0"/>
        <pt x="329" y="393" on="1"/>
        <pt x="326" y="392" on="0"/>
        <pt x="325" y="392" on="1"/>
        <pt x="322" y="392" on="0"/>
        <pt x="319" y="393" on="1"/>
        <pt x="315" y="394" on="0"/>
        <pt x="306" y="400" on="1"/>
        <pt x="298" y="406" on="0"/>
        <pt x="290" y="417" on="0"/>
        <pt x="286" y="431" on="1"/>
        <pt x="285" y="431" on="0"/>
        <pt x="285" y="433" on="0"/>
        <pt x="285" y="433" on="1"/>
        <pt x="240" y="417" on="0"/>
        <pt x="220" y="427" on="1"/>
        <pt x="215" y="428" on="0"/>
        <pt x="207" y="430" on="0"/>
        <pt x="199" y="424" on="0"/>
        <pt x="194" y="418" on="0"/>
        <pt x="187" y="407" on="0"/>
        <pt x="183" y="398" on="0"/>
        <pt x="177" y="386" on="0"/>
        <pt x="175" y="383" on="1"/>
        <pt x="156" y="350" on="0"/>
        <pt x="149" y="345" on="1"/>
        <pt x="137" y="336" on="0"/>
        <pt x="126" y="326" on="1"/>
        <pt x="117" y="317" on="0"/>
        <pt x="109" y="316" on="1"/>
        <pt x="102" y="314" on="0"/>
        <pt x="73" y="314" on="1"/>
        <pt x="34" y="313" on="1"/>
        <pt x="34" y="342" on="1"/>
        <pt x="34" y="362" on="0"/>
        <pt x="36" y="369" on="1"/>
        <pt x="38" y="376" on="0"/>
        <pt x="47" y="388" on="1"/>
        <pt x="59" y="405" on="0"/>
        <pt x="90" y="430" on="1"/>
        <pt x="120" y="453" on="0"/>
        <pt x="122" y="459" on="1"/>
        <pt x="124" y="465" on="0"/>
        <pt x="145" y="472" on="1"/>
        <pt x="170" y="481" on="0"/>
        <pt x="174" y="486" on="1"/>
        <pt x="177" y="490" on="0"/>
        <pt x="171" y="516" on="0"/>
        <pt x="161" y="540" on="0"/>
        <pt x="150" y="566" on="0"/>
        <pt x="149" y="569" on="1"/>
        <pt x="131" y="634" on="0"/>
        <pt x="142" y="694" on="1"/>
        <pt x="151" y="743" on="0"/>
        <pt x="177" y="769" on="1"/>
        <pt x="197" y="789" on="0"/>
        <pt x="251" y="789" on="0"/>
        <pt x="270" y="767" on="1"/>
        <pt x="277" y="759" on="0"/>
        <pt x="277" y="721" on="1"/>
        <pt x="277" y="695" on="0"/>
        <pt x="274" y="674" on="1"/>
        <pt x="270" y="651" on="0"/>
        <pt x="262" y="610" on="1"/>
        <pt x="253" y="564" on="0"/>
        <pt x="249" y="540" on="1"/>
        <pt x="246" y="525" on="1"/>
        <pt x="255" y="526" on="0"/>
        <pt x="258" y="525" on="1"/>
        <pt x="263" y="524" on="0"/>
        <pt x="270" y="517" on="1"/>
        <pt x="281" y="507" on="1"/>
        <pt x="273" y="499" on="1"/>
        <pt x="265" y="489" on="0"/>
        <pt x="247" y="486" on="1"/>
        <pt x="235" y="483" on="0"/>
        <pt x="223" y="461" on="0"/>
        <pt x="237" y="446" on="1"/>
        <pt x="242" y="442" on="0"/>
        <pt x="250" y="441" on="0"/>
        <pt x="256" y="443" on="0"/>
        <pt x="269" y="450" on="0"/>
        <pt x="275" y="452" on="1"/>
        <pt x="276" y="452" on="0"/>
        <pt x="278" y="453" on="1"/>
        <pt x="279" y="454" on="0"/>
        <pt x="280" y="454" on="1"/>
        <pt x="278" y="463" on="0"/>
        <pt x="278" y="468" on="1"/>
        <pt x="279" y="482" on="0"/>
        <pt x="288" y="502" on="1"/>
        <pt x="300" y="528" on="0"/>
        <pt x="312" y="540" on="1"/>
        <pt x="324" y="553" on="0"/>
        <pt x="343" y="559" on="1"/>
        <pt x="352" y="563" on="0"/>
        <pt x="358" y="569" on="1"/>
        <pt x="369" y="577" on="0"/>
        <pt x="386" y="576" on="0"/>
        <pt x="399" y="566" on="1"/>
        <pt x="405" y="560" on="0"/>
        <pt x="408" y="557" on="1"/>
        <pt x="411" y="553" on="0"/>
        <pt x="413" y="550" on="1"/>
        <pt x="414" y="546" on="0"/>
        <pt x="415" y="539" on="1"/>
        <pt x="419" y="510" on="0"/>
        <pt x="423" y="495" on="1"/>
        <pt x="426" y="481" on="0"/>
        <pt x="442" y="471" on="1"/>
        <pt x="443" y="472" on="1"/>
        <pt x="446" y="474" on="0"/>
        <pt x="450" y="478" on="1"/>
        <pt x="450" y="479" on="0"/>
        <pt x="452" y="484" on="0"/>
        <pt x="453" y="485" on="1"/>
        <pt x="459" y="496" on="0"/>
        <pt x="465" y="542" on="0"/>
        <pt x="466" y="545" on="1"/>
        <pt x="471" y="569" on="0"/>
        <pt x="487" y="611" on="1"/>
        <pt x="490" y="619" on="0"/>
        <pt x="501" y="665" on="0"/>
        <pt x="510" y="698" on="0"/>
        <pt x="532" y="730" on="0"/>
        <pt x="547" y="734" on="1"/>
        <pt x="560" y="737" on="0"/>
        <pt x="575" y="725" on="0"/>
        <pt x="577" y="701" on="0"/>
        <pt x="575" y="680" on="0"/>
        <pt x="573" y="670" on="1"/>
        <pt x="570" y="659" on="0"/>
        <pt x="562" y="642" on="1"/>
        <pt x="554" y="626" on="0"/>
        <pt x="551" y="620" on="1"/>
        <pt x="547" y="607" on="0"/>
        <pt x="539" y="594" on="1"/>
        <pt x="536" y="589" on="0"/>
        <pt x="528" y="575" on="0"/>
        <pt x="520" y="562" on="0"/>
        <pt x="516" y="557" on="1"/>
        <pt x="510" y="549" on="0"/>
        <pt x="502" y="539" on="1"/>
        <pt x="491" y="527" on="0"/>
        <pt x="490" y="524" on="0"/>
        <pt x="492" y="522" on="0"/>
        <pt x="493" y="522" on="1"/>
        <pt x="493" y="522" on="0"/>
        <pt x="494" y="523" on="1"/>
        <pt x="496" y="524" on="0"/>
        <pt x="499" y="527" on="0"/>
        <pt x="502" y="530" on="0"/>
        <pt x="505" y="533" on="0"/>
        <pt x="508" y="536" on="0"/>
        <pt x="512" y="538" on="0"/>
        <pt x="516" y="540" on="0"/>
        <pt x="518" y="540" on="1"/>
        <pt x="521" y="540" on="0"/>
        <pt x="523" y="540" on="1"/>
        <pt x="536" y="542" on="0"/>
        <pt x="553" y="534" on="0"/>
        <pt x="558" y="523" on="1"/>
        <pt x="563" y="511" on="0"/>
        <pt x="563" y="497" on="1"/>
        <pt x="563" y="484" on="0"/>
        <pt x="571" y="448" on="0"/>
        <pt x="576" y="440" on="1"/>
        <pt x="579" y="434" on="0"/>
        <pt x="582" y="433" on="1"/>
        <pt x="586" y="432" on="0"/>
        <pt x="596" y="434" on="1"/>
        <pt x="609" y="436" on="0"/>
        <pt x="617" y="439" on="1"/>
        <pt x="624" y="443" on="0"/>
        <pt x="634" y="449" on="1"/>
        <pt x="672" y="529" on="0"/>
        <pt x="681" y="540" on="1"/>
        <pt x="682" y="542" on="0"/>
        <pt x="684" y="544" on="1"/>
        <pt x="688" y="548" on="0"/>
        <pt x="701" y="553" on="0"/>
        <pt x="706" y="550" on="1"/>
        <pt x="707" y="549" on="0"/>
        <pt x="708" y="543" on="0"/>
        <pt x="709" y="538" on="0"/>
        <pt x="711" y="537" on="1"/>
        <pt x="713" y="537" on="0"/>
        <pt x="721" y="543" on="1"/>
        <pt x="735" y="554" on="0"/>
        <pt x="765" y="561" on="1"/>
        <pt x="777" y="564" on="0"/>
        <pt x="784" y="563" on="0"/>
        <pt x="789" y="557" on="1"/>
        <pt x="797" y="550" on="0"/>
        <pt x="797" y="528" on="0"/>
        <pt x="790" y="519" on="1"/>
        <pt x="785" y="511" on="0"/>
        <pt x="769" y="463" on="0"/>
        <pt x="769" y="454" on="1"/>
        <pt x="769" y="447" on="0"/>
        <pt x="773" y="440" on="1"/>
        <pt x="779" y="428" on="0"/>
        <pt x="797" y="423" on="0"/>
        <pt x="813" y="428" on="0"/>
        <pt x="824" y="435" on="1"/>
        <pt x="847" y="448" on="0"/>
        <pt x="861" y="459" on="1"/>
      </contour>
      <contour>
        <pt x="499" y="576" on="1"/>
        <pt x="497" y="571" on="0"/>
        <pt x="500" y="569" on="1"/>
        <pt x="503" y="571" on="1"/>
        <pt x="508" y="576" on="0"/>
        <pt x="515" y="588" on="0"/>
        <pt x="522" y="605" on="0"/>
        <pt x="524" y="610" on="1"/>
        <pt x="533" y="628" on="0"/>
        <pt x="539" y="653" on="1"/>
        <pt x="539" y="654" on="0"/>
        <pt x="545" y="669" on="0"/>
        <pt x="546" y="676" on="0"/>
        <pt x="545" y="680" on="1"/>
        <pt x="543" y="682" on="0"/>
        <pt x="539" y="678" on="1"/>
        <pt x="537" y="676" on="0"/>
        <pt x="533" y="666" on="1"/>
        <pt x="531" y="663" on="0"/>
        <pt x="530" y="659" on="1"/>
        <pt x="529" y="658" on="0"/>
        <pt x="525" y="649" on="0"/>
        <pt x="524" y="647" on="1"/>
        <pt x="517" y="632" on="0"/>
        <pt x="513" y="616" on="1"/>
        <pt x="511" y="611" on="0"/>
      </contour>
      <contour>
        <pt x="139" y="389" on="1"/>
        <pt x="166" y="431" on="0"/>
        <pt x="165" y="437" on="1"/>
        <pt x="165" y="452" on="0"/>
        <pt x="133" y="421" on="1"/>
        <pt x="131" y="418" on="1"/>
        <pt x="113" y="401" on="0"/>
        <pt x="108" y="401" on="1"/>
        <pt x="101" y="401" on="0"/>
        <pt x="66" y="360" on="0"/>
        <pt x="64" y="350" on="1"/>
        <pt x="64" y="342" on="0"/>
        <pt x="67" y="338" on="0"/>
        <pt x="74" y="339" on="1"/>
        <pt x="87" y="340" on="0"/>
        <pt x="126" y="371" on="0"/>
      </contour>
      <contour>
        <pt x="206" y="523" on="1"/>
        <pt x="216" y="538" on="0"/>
        <pt x="221" y="567" on="1"/>
        <pt x="252" y="731" on="0"/>
        <pt x="240" y="749" on="1"/>
        <pt x="235" y="754" on="0"/>
        <pt x="223" y="754" on="1"/>
        <pt x="220" y="754" on="0"/>
        <pt x="214" y="753" on="0"/>
        <pt x="208" y="748" on="0"/>
        <pt x="205" y="744" on="1"/>
        <pt x="201" y="739" on="0"/>
        <pt x="197" y="734" on="1"/>
        <pt x="185" y="717" on="0"/>
        <pt x="179" y="697" on="1"/>
        <pt x="174" y="678" on="0"/>
        <pt x="171" y="642" on="1"/>
        <pt x="169" y="621" on="0"/>
        <pt x="170" y="613" on="1"/>
        <pt x="171" y="605" on="0"/>
        <pt x="176" y="598" on="1"/>
        <pt x="184" y="585" on="0"/>
        <pt x="188" y="563" on="1"/>
        <pt x="192" y="539" on="0"/>
        <pt x="196" y="537" on="1"/>
        <pt x="199" y="534" on="0"/>
        <pt x="199" y="526" on="1"/>
        <pt x="199" y="511" on="0"/>
      </contour>
      <contour>
        <pt x="365" y="546" on="1"/>
        <pt x="363" y="542" on="0"/>
        <pt x="367" y="528" on="1"/>
        <pt x="370" y="520" on="0"/>
        <pt x="372" y="517" on="1"/>
        <pt x="373" y="520" on="0"/>
        <pt x="372" y="531" on="1"/>
        <pt x="370" y="547" on="0"/>
        <pt x="366" y="548" on="1"/>
        <pt x="365" y="547" on="0"/>
      </contour>
      <contour>
        <pt x="376" y="463" on="1"/>
        <pt x="381" y="469" on="0"/>
        <pt x="381" y="480" on="1"/>
        <pt x="381" y="488" on="0"/>
        <pt x="377" y="494" on="0"/>
        <pt x="370" y="500" on="1"/>
        <pt x="358" y="509" on="0"/>
        <pt x="357" y="516" on="1"/>
        <pt x="357" y="520" on="0"/>
        <pt x="349" y="531" on="0"/>
        <pt x="346" y="533" on="1"/>
        <pt x="344" y="534" on="0"/>
        <pt x="342" y="534" on="1"/>
        <pt x="341" y="534" on="0"/>
        <pt x="340" y="533" on="1"/>
        <pt x="337" y="531" on="0"/>
        <pt x="328" y="520" on="1"/>
        <pt x="321" y="510" on="0"/>
        <pt x="309" y="481" on="0"/>
        <pt x="307" y="469" on="1"/>
        <pt x="305" y="457" on="0"/>
        <pt x="308" y="452" on="1"/>
        <pt x="311" y="447" on="0"/>
        <pt x="313" y="436" on="1"/>
        <pt x="315" y="427" on="0"/>
        <pt x="317" y="423" on="1"/>
        <pt x="319" y="420" on="0"/>
        <pt x="322" y="419" on="1"/>
        <pt x="326" y="418" on="0"/>
        <pt x="334" y="419" on="1"/>
        <pt x="338" y="419" on="0"/>
        <pt x="343" y="420" on="0"/>
        <pt x="348" y="422" on="0"/>
        <pt x="349" y="424" on="1"/>
        <pt x="352" y="426" on="0"/>
        <pt x="353" y="427" on="1"/>
        <pt x="355" y="429" on="0"/>
        <pt x="358" y="432" on="1"/>
        <pt x="369" y="443" on="0"/>
        <pt x="370" y="449" on="1"/>
        <pt x="371" y="456" on="0"/>
      </contour>
    </TTGlyph>
    <TTGlyph name="asterisk.alt2" xMin="34" yMin="-12" xMax="795" yMax="491">
      <contour>
        <pt x="709" y="486" on="1"/>
        <pt x="745" y="491" on="0"/>
        <pt x="775" y="473" on="0"/>
        <pt x="795" y="432" on="1"/>
        <pt x="752" y="415" on="0"/>
        <pt x="749" y="414" on="1"/>
        <pt x="693" y="394" on="0"/>
        <pt x="653" y="330" on="0"/>
        <pt x="663" y="273" on="1"/>
        <pt x="678" y="188" on="0"/>
        <pt x="642" y="90" on="1"/>
        <pt x="617" y="21" on="0"/>
        <pt x="522" y="-12" on="0"/>
        <pt x="455" y="34" on="1"/>
        <pt x="452" y="37" on="0"/>
        <pt x="447" y="48" on="0"/>
        <pt x="445" y="58" on="0"/>
        <pt x="442" y="73" on="0"/>
        <pt x="441" y="78" on="1"/>
        <pt x="445" y="79" on="0"/>
        <pt x="465" y="87" on="0"/>
        <pt x="480" y="91" on="0"/>
        <pt x="486" y="90" on="1"/>
        <pt x="528" y="79" on="0"/>
        <pt x="577" y="98" on="0"/>
        <pt x="590" y="133" on="1"/>
        <pt x="607" y="178" on="0"/>
        <pt x="609" y="306" on="0"/>
        <pt x="592" y="358" on="1"/>
        <pt x="543" y="340" on="0"/>
        <pt x="459" y="368" on="0"/>
        <pt x="435" y="409" on="1"/>
        <pt x="478" y="456" on="0"/>
        <pt x="554" y="461" on="1"/>
        <pt x="577" y="463" on="0"/>
        <pt x="629" y="471" on="0"/>
        <pt x="691" y="483" on="0"/>
      </contour>
      <contour>
        <pt x="479" y="216" on="1"/>
        <pt x="480" y="203" on="0"/>
        <pt x="477" y="183" on="0"/>
        <pt x="466" y="169" on="0"/>
        <pt x="458" y="161" on="0"/>
        <pt x="439" y="155" on="0"/>
        <pt x="431" y="153" on="0"/>
        <pt x="421" y="150" on="1"/>
        <pt x="377" y="141" on="0"/>
        <pt x="343" y="155" on="1"/>
        <pt x="332" y="159" on="0"/>
        <pt x="312" y="175" on="0"/>
        <pt x="284" y="202" on="0"/>
        <pt x="279" y="206" on="1"/>
        <pt x="276" y="209" on="0"/>
        <pt x="226" y="256" on="1"/>
        <pt x="222" y="248" on="0"/>
        <pt x="214" y="222" on="0"/>
        <pt x="207" y="207" on="0"/>
        <pt x="203" y="202" on="1"/>
        <pt x="197" y="194" on="0"/>
        <pt x="175" y="183" on="0"/>
        <pt x="169" y="186" on="1"/>
        <pt x="164" y="187" on="0"/>
        <pt x="154" y="199" on="0"/>
        <pt x="148" y="213" on="0"/>
        <pt x="147" y="219" on="1"/>
        <pt x="145" y="231" on="0"/>
        <pt x="144" y="285" on="0"/>
        <pt x="142" y="298" on="1"/>
        <pt x="138" y="317" on="0"/>
        <pt x="154" y="345" on="0"/>
        <pt x="174" y="358" on="0"/>
        <pt x="196" y="369" on="1"/>
        <pt x="199" y="371" on="0"/>
        <pt x="201" y="372" on="1"/>
        <pt x="183" y="382" on="0"/>
        <pt x="128" y="384" on="0"/>
        <pt x="87" y="379" on="0"/>
        <pt x="45" y="401" on="0"/>
        <pt x="34" y="430" on="1"/>
        <pt x="46" y="433" on="0"/>
        <pt x="109" y="454" on="0"/>
        <pt x="141" y="462" on="0"/>
        <pt x="193" y="471" on="0"/>
        <pt x="239" y="466" on="0"/>
        <pt x="263" y="457" on="1"/>
        <pt x="319" y="437" on="0"/>
        <pt x="348" y="375" on="0"/>
        <pt x="323" y="321" on="1"/>
        <pt x="322" y="319" on="0"/>
        <pt x="305" y="285" on="1"/>
        <pt x="312" y="278" on="0"/>
        <pt x="340" y="240" on="0"/>
        <pt x="364" y="215" on="0"/>
        <pt x="378" y="209" on="1"/>
        <pt x="387" y="205" on="0"/>
        <pt x="413" y="205" on="0"/>
        <pt x="435" y="209" on="0"/>
        <pt x="469" y="215" on="0"/>
      </contour>
    </TTGlyph>
</ttFont>
